<svg width="146" height="139" viewBox="0 0 146 139" fill="none" xmlns="http://www.w3.org/2000/svg">
<g filter="url(#filter0_bd_122_5405)">
<path fill-rule="evenodd" clip-rule="evenodd" d="M86.0004 43H94C95.1046 43 96 43.8954 96 44.9999C96 46.1045 95.1046 46.9999 94 46.9999H86.0004C84.8958 46.9999 84.0004 46.1045 84.0004 44.9999C84.0004 43.8954 84.8958 43 86.0004 43ZM86.0004 50.9997H94C95.1046 50.9997 96 51.8951 96 52.9996V54.9996C96 56.1041 95.1046 56.9995 94 56.9995H86.0004C84.8958 56.9995 84.0004 56.1041 84.0004 54.9996V52.9996C84.0004 51.8951 84.8958 50.9997 86.0004 50.9997ZM86.0004 60.9993H94C95.1046 60.9993 96 61.8947 96 62.9993C96 64.1037 95.1046 64.9991 94 64.9991H86.0004C84.8958 64.9991 84.0004 64.1037 84.0004 62.9993C84.0004 61.8947 84.8958 60.9993 86.0004 60.9993ZM86.0004 68.9991H94C95.1046 68.9991 96 69.8945 96 70.9989C96 72.1035 95.1046 72.9989 94 72.9989H86.0004C84.8958 72.9989 84.0004 72.1035 84.0004 70.9989C84.0004 69.8945 84.8958 68.9991 86.0004 68.9991ZM86.0004 76.9987H94C95.1046 76.9987 96 77.8941 96 78.9987V80.9985C96 82.1031 95.1046 82.9985 94 82.9985H86.0004C84.8958 82.9985 84.0004 82.1031 84.0004 80.9985V78.9987C84.0004 77.8941 84.8958 76.9987 86.0004 76.9987ZM76.0008 62.9993V50.9997H60.0013C59.8956 50.9997 59.7906 51.0024 59.6863 51.0078C56.5183 51.1707 53.9998 53.791 53.9998 56.9995C53.9998 60.3131 56.686 62.9993 59.9996 62.9993H76.0008ZM64.3111 76.9987L61.8808 83.6819C61.5934 84.4723 60.8423 84.9985 60.0013 84.9985H50.0017C48.6138 84.9985 47.6478 83.6193 48.1221 82.3151L54.332 65.2379C51.7162 63.4343 50.0017 60.4171 50.0017 56.9995C50.0017 51.4768 54.4787 46.9999 60.0013 46.9999H78.0006C79.1052 46.9999 80.0006 47.8952 80.0006 48.9998V64.9991C80.0006 66.1037 79.1052 66.9991 78.0006 66.9991H76.0008V70.9989C76.0008 74.3125 73.3146 76.9987 70.001 76.9987H64.3111ZM65.7656 72.9989H70.001C71.1054 72.9989 72.0008 72.1035 72.0008 70.9989V66.9991H67.9473L65.7656 72.9989ZM63.6912 66.9991H60.0013C59.3227 66.9991 58.6598 66.9315 58.0191 66.8027L52.857 80.9985H58.6005L63.6912 66.9991Z" fill="url(#paint0_linear_122_5405)"/>
</g>
<defs>
<filter id="filter0_bd_122_5405" x="-1.70634" y="-5.56414" width="147.413" height="147.413" filterUnits="userSpaceOnUse" color-interpolation-filters="sRGB">
<feFlood flood-opacity="0" result="BackgroundImageFix"/>
<feGaussianBlur in="BackgroundImageFix" stdDeviation="1.03555"/>
<feComposite in2="SourceAlpha" operator="in" result="effect1_backgroundBlur_122_5405"/>
<feColorMatrix in="SourceAlpha" type="matrix" values="0 0 0 0 0 0 0 0 0 0 0 0 0 0 0 0 0 0 127 0" result="hardAlpha"/>
<feOffset dy="4.14219"/>
<feGaussianBlur stdDeviation="24.8532"/>
<feComposite in2="hardAlpha" operator="out"/>
<feColorMatrix type="matrix" values="0 0 0 0 0.890196 0 0 0 0 0.796078 0 0 0 0 0.498039 0 0 0 0.3 0"/>
<feBlend mode="normal" in2="effect1_backgroundBlur_122_5405" result="effect2_dropShadow_122_5405"/>
<feBlend mode="normal" in="SourceGraphic" in2="effect2_dropShadow_122_5405" result="shape"/>
</filter>
<linearGradient id="paint0_linear_122_5405" x1="72" y1="43" x2="72" y2="84.9985" gradientUnits="userSpaceOnUse">
<stop stop-color="#009241"/>
<stop offset="1" stop-color="#04AD4F" stop-opacity="0.84"/>
</linearGradient>
</defs>
</svg>
