<svg width="16" height="17" viewBox="0 0 16 17" fill="none" xmlns="http://www.w3.org/2000/svg">
<g id="QuestionCircle" clip-path="url(#clip0_892_1167)">
<g id="Vector">
<path d="M8 0.600037C3.58214 0.600037 0 4.18218 0 8.60004C0 13.0179 3.58214 16.6 8 16.6C12.4179 16.6 16 13.0179 16 8.60004C16 4.18218 12.4179 0.600037 8 0.600037ZM8 15.2429C4.33214 15.2429 1.35714 12.2679 1.35714 8.60004C1.35714 4.93218 4.33214 1.95718 8 1.95718C11.6679 1.95718 14.6429 4.93218 14.6429 8.60004C14.6429 12.2679 11.6679 15.2429 8 15.2429Z" fill="black" fill-opacity="0.45"/>
<path d="M9.99258 5.11198C9.45686 4.64234 8.74972 4.38519 7.99972 4.38519C7.24972 4.38519 6.54258 4.64412 6.00686 5.11198C5.44972 5.59948 5.14258 6.25484 5.14258 6.95662V7.09234C5.14258 7.17091 5.20686 7.23519 5.28544 7.23519H6.14258C6.22115 7.23519 6.28544 7.17091 6.28544 7.09234V6.95662C6.28544 6.16912 7.05508 5.52805 7.99972 5.52805C8.94436 5.52805 9.71401 6.16912 9.71401 6.95662C9.71401 7.51198 9.32115 8.02091 8.71222 8.25484C8.33365 8.39948 8.01222 8.65305 7.78186 8.98519C7.54794 9.32448 7.42651 9.73162 7.42651 10.1441V10.5281C7.42651 10.6066 7.49079 10.6709 7.56936 10.6709H8.42651C8.50508 10.6709 8.56937 10.6066 8.56937 10.5281V10.1227C8.57029 9.94934 8.62343 9.78028 8.72186 9.63758C8.82029 9.49488 8.95943 9.38514 9.12115 9.32269C10.1747 8.91734 10.8551 7.98876 10.8551 6.95662C10.8569 6.25484 10.5497 5.59948 9.99258 5.11198ZM7.28544 12.5281C7.28544 12.7175 7.36069 12.8992 7.49465 13.0331C7.6286 13.1671 7.81028 13.2423 7.99972 13.2423C8.18916 13.2423 8.37084 13.1671 8.5048 13.0331C8.63875 12.8992 8.71401 12.7175 8.71401 12.5281C8.71401 12.3386 8.63875 12.1569 8.5048 12.023C8.37084 11.889 8.18916 11.8138 7.99972 11.8138C7.81028 11.8138 7.6286 11.889 7.49465 12.023C7.36069 12.1569 7.28544 12.3386 7.28544 12.5281Z" fill="black" fill-opacity="0.45"/>
</g>
</g>
<defs>
<clipPath id="clip0_892_1167">
<rect width="16" height="16" fill="white" transform="translate(0 0.600037)"/>
</clipPath>
</defs>
</svg>
