<svg width="107" height="74" viewBox="0 0 107 74" fill="none" xmlns="http://www.w3.org/2000/svg">
<g id="Group">
<g id="Group_2">
<g id="Group_3">
<g id="Group_4">
<path id="Vector" d="M46.9505 70.1062L44.1272 66.0474H43.9589H41.0094V70.1062H37.6211V55.5374H43.9589C47.8703 55.5374 50.3188 57.5568 50.3188 60.8243C50.3188 63.0092 49.2108 64.612 47.3072 65.4234L50.5913 70.1062H46.9505ZM43.7706 58.2845H41.0094V63.3621H43.7706C45.8425 63.3621 46.8884 62.4051 46.8884 60.8223C46.8864 59.2214 45.8405 58.2845 43.7706 58.2845Z" fill="black" fill-opacity="0.85"/>
<path id="Vector_2" d="M63.0501 67.401V70.1062H51.7109V55.5374H62.7776V58.2426H55.0792V61.4064H61.8779V64.0279H55.0792V67.399H63.0501V67.401Z" fill="black" fill-opacity="0.85"/>
<path id="Vector_3" d="M68.7805 58.2845H64.0938V55.5374H76.8536V58.2845H72.1668V70.1062H68.7785V58.2845H68.7805Z" fill="black" fill-opacity="0.85"/>
<path id="Vector_4" d="M84.759 66.9843H77.9603L76.6639 70.1062H73.1914L79.7176 55.5374H83.0639L89.6121 70.1062H86.0555L84.759 66.9843ZM83.693 64.4246L81.3707 58.8467L79.0484 64.4246H83.693Z" fill="black" fill-opacity="0.85"/>
<path id="Vector_5" d="M90.5938 55.5374H93.9821V70.1062H90.5938V55.5374Z" fill="black" fill-opacity="0.85"/>
<path id="Vector_6" d="M95.5664 55.5374H98.9547V67.3591H106.298V70.1062H95.5664V55.5374Z" fill="black" fill-opacity="0.85"/>
</g>
</g>
<g id="Group_5">
<g id="Group 1">
<g id="Group_6">
<g id="Group_7">
<path id="Vector_7" d="M94.0341 4.41664C93.3568 4.12957 92.6676 3.83851 91.9883 3.55144C92.6255 1.07345 95.1843 -0.284157 97.7811 0.481368C98.7169 0.758472 99.6085 1.18509 100.522 1.54393C100.731 1.62567 100.935 1.71338 101.147 1.78116C102.847 2.3274 103.658 2.01242 104.878 0.309919C105.578 0.596991 106.291 0.888051 107 1.17712C106.213 3.80064 103.526 5.09046 100.811 4.16545C100.009 3.89234 99.2378 3.53549 98.4524 3.22051C96.2062 2.3254 95.4608 2.52277 94.0341 4.41664Z" fill="#009241"/>
</g>
<g id="Group_8">
<path id="Vector_8" d="M102.31 6.8667H96.6758V51.9749H102.31V6.8667Z" fill="#009241"/>
</g>
</g>
<g id="Group_9">
<g id="Group_10">
<path id="Vector_9" d="M47.8279 52.244C41.6504 52.244 36.625 47.2442 36.625 41.0981V6.86273H42.2595V41.0981C42.2595 44.1542 44.7582 46.6401 47.83 46.6401C50.9017 46.6401 53.4004 44.1542 53.4004 41.0981V23.0943H59.0349V41.0981C59.0329 47.2442 54.0075 52.244 47.8279 52.244Z" fill="#009241"/>
</g>
<g id="Group_11">
<path id="Vector_10" d="M64.6014 52.244C58.4238 52.244 53.3984 47.2442 53.3984 41.098V23.0942H59.033V41.098C59.033 44.1542 61.5316 46.6401 64.6034 46.6401C67.6751 46.6401 70.1738 44.1542 70.1738 41.098V23.0942H75.8083V41.098C75.8063 47.2442 70.7809 52.244 64.6014 52.244Z" fill="#009241"/>
</g>
<g id="Group_12">
<path id="Vector_11" d="M81.3748 52.244C75.1973 52.244 70.1719 47.2442 70.1719 41.098V23.0942H75.8064V41.098C75.8064 44.1542 78.3051 46.6401 81.3768 46.6401C84.4486 46.6401 86.9472 44.1542 86.9472 41.098V23.0942H92.5818V41.098C92.5778 47.2442 87.5524 52.244 81.3748 52.244Z" fill="#009241"/>
</g>
</g>
<g id="Group_13">
<g id="Group_14">
<path id="Vector_12" d="M15.7575 73.268C7.06922 73.268 0 66.2348 0 57.5907V28.8357H5.63453V57.5907C5.63453 63.1448 10.177 67.6622 15.7575 67.6622C21.3399 67.6622 25.8824 63.1428 25.8824 57.5907V23.0942H31.5169V57.5907C31.5169 66.2348 24.4477 73.268 15.7575 73.268Z" fill="#009241"/>
</g>
<g id="Group_15">
<path id="Vector_13" d="M15.7564 28.5964C18.1589 28.5964 20.1065 26.6587 20.1065 24.2684C20.1065 21.8781 18.1589 19.9404 15.7564 19.9404C13.3539 19.9404 11.4062 21.8781 11.4062 24.2684C11.4062 26.6587 13.3539 28.5964 15.7564 28.5964Z" fill="#009241"/>
</g>
</g>
</g>
</g>
</g>
</g>
</svg>
