<svg width="48" height="48" viewBox="0 0 48 48" fill="none" xmlns="http://www.w3.org/2000/svg">
<path d="M39.3601 0.959961H8.64005C6.52805 0.959961 4.80005 2.68796 4.80005 4.79996V43.2C4.80005 45.312 6.52805 47.04 8.64005 47.04H39.3601C41.472 47.04 43.2001 45.312 43.2001 43.2V4.79996C43.2001 2.68796 41.472 0.959961 39.3601 0.959961ZM16.32 39.36C16.32 40.416 15.456 41.28 14.4 41.28H10.56C9.50405 41.28 8.64005 40.416 8.64005 39.36V38.4C8.64005 37.344 9.50405 36.48 10.56 36.48H14.4C15.456 36.48 16.32 37.344 16.32 38.4V39.36ZM16.32 31.68C16.32 32.736 15.456 33.6 14.4 33.6H10.56C9.50405 33.6 8.64005 32.736 8.64005 31.68V30.72C8.64005 29.664 9.50405 28.8 10.56 28.8H14.4C15.456 28.8 16.32 29.664 16.32 30.72V31.68ZM16.32 24C16.32 25.056 15.456 25.92 14.4 25.92H10.56C9.50405 25.92 8.64005 25.056 8.64005 24V23.04C8.64005 21.984 9.50405 21.12 10.56 21.12H14.4C15.456 21.12 16.32 21.984 16.32 23.04V24ZM27.84 39.36C27.84 40.416 26.976 41.28 25.92 41.28H22.08C21.024 41.28 20.16 40.416 20.16 39.36V38.4C20.16 37.344 21.024 36.48 22.08 36.48H25.92C26.976 36.48 27.84 37.344 27.84 38.4V39.36ZM27.84 31.68C27.84 32.736 26.976 33.6 25.92 33.6H22.08C21.024 33.6 20.16 32.736 20.16 31.68V30.72C20.16 29.664 21.024 28.8 22.08 28.8H25.92C26.976 28.8 27.84 29.664 27.84 30.72V31.68ZM27.84 24C27.84 25.056 26.976 25.92 25.92 25.92H22.08C21.024 25.92 20.16 25.056 20.16 24V23.04C20.16 21.984 21.024 21.12 22.08 21.12H25.92C26.976 21.12 27.84 21.984 27.84 23.04V24ZM39.3601 39.36C39.3601 40.416 38.4961 41.28 37.44 41.28H33.6C32.5441 41.28 31.68 40.416 31.68 39.36V38.4C31.68 37.344 32.5441 36.48 33.6 36.48H37.44C38.4961 36.48 39.3601 37.344 39.3601 38.4V39.36ZM39.3601 31.68C39.3601 32.736 38.4961 33.6 37.44 33.6H33.6C32.5441 33.6 31.68 32.736 31.68 31.68V30.72C31.68 29.664 32.5441 28.8 33.6 28.8H37.44C38.4961 28.8 39.3601 29.664 39.3601 30.72V31.68ZM39.3601 24C39.3601 25.056 38.4961 25.92 37.44 25.92H33.6C32.5441 25.92 31.68 25.056 31.68 24V23.04C31.68 21.984 32.5441 21.12 33.6 21.12H37.44C38.4961 21.12 39.3601 21.984 39.3601 23.04V24ZM39.3601 15.36C39.3601 16.416 38.4961 17.28 37.44 17.28H10.56C9.50405 17.28 8.64005 16.416 8.64005 15.36V7.67996C8.64005 6.62396 9.50405 5.75996 10.56 5.75996H37.44C38.4961 5.75996 39.3601 6.62396 39.3601 7.67996V15.36Z" fill="url(#paint0_linear_122_5389)"/>
<defs>
<linearGradient id="paint0_linear_122_5389" x1="24" y1="0.959961" x2="24" y2="47.04" gradientUnits="userSpaceOnUse">
<stop stop-color="#009241"/>
<stop offset="1" stop-color="#04AD4F" stop-opacity="0.84"/>
</linearGradient>
</defs>
</svg>
