<svg width="48" height="48" viewBox="0 0 48 48" fill="none" xmlns="http://www.w3.org/2000/svg">
<g clip-path="url(#clip0_122_5366)">
<path d="M36 18V0H12V18H0V39H48V18H36ZM21 36H3V21H9V24H15V21H21V36ZM15 18V3H21V6H27V3H33V18H15ZM45 36H27V21H33V24H39V21H45V36Z" fill="url(#paint0_linear_122_5366)"/>
<path d="M0 48H9V45H39V48H48V42H0V48Z" fill="url(#paint1_linear_122_5366)"/>
</g>
<defs>
<linearGradient id="paint0_linear_122_5366" x1="24" y1="0" x2="24" y2="39" gradientUnits="userSpaceOnUse">
<stop stop-color="#009241"/>
<stop offset="1" stop-color="#04AD4F" stop-opacity="0.84"/>
</linearGradient>
<linearGradient id="paint1_linear_122_5366" x1="24" y1="42" x2="24" y2="48" gradientUnits="userSpaceOnUse">
<stop stop-color="#009241"/>
<stop offset="1" stop-color="#04AD4F" stop-opacity="0.84"/>
</linearGradient>
<clipPath id="clip0_122_5366">
<rect width="48" height="48" fill="white"/>
</clipPath>
</defs>
</svg>
