<svg width="48" height="48" viewBox="0 0 48 48" fill="none" xmlns="http://www.w3.org/2000/svg">
<path d="M43.2001 16.0001C42.9562 16.0011 42.7156 15.9463 42.4961 15.8401L24.0001 6.40009L5.50408 15.7761C4.68232 16.1649 3.70088 15.8139 3.31208 14.9921C2.92328 14.1703 3.27432 13.1889 4.09608 12.8001L24.0001 2.94409L43.9041 12.8001C44.7876 12.9947 45.3466 13.8686 45.1521 14.7521C44.9575 15.6356 44.0836 16.1947 43.2001 16.0001ZM16.0001 32.0001H6.40008V41.6001H16.0001V32.0001ZM28.8001 32.0001H19.2001V41.6001H28.8001V32.0001ZM41.6001 32.0001H32.0001V41.6001H41.6001V32.0001ZM35.2001 19.2001H25.6001V28.8001H35.2001V19.2001ZM22.4001 19.2001H12.8001V28.8001H22.4001V19.2001Z" fill="url(#paint0_linear_122_5381)"/>
<defs>
<linearGradient id="paint0_linear_122_5381" x1="24.1721" y1="2.94409" x2="24.1721" y2="41.6001" gradientUnits="userSpaceOnUse">
<stop stop-color="#009241"/>
<stop offset="1" stop-color="#04AD4F" stop-opacity="0.84"/>
</linearGradient>
</defs>
</svg>
