<svg xmlns="http://www.w3.org/2000/svg" width="20" height="20" viewBox="0 0 20 20" fill="none">
  <path d="M11.0568 9.99899L16.427 3.59771C16.517 3.49133 16.4413 3.32971 16.3022 3.32971H14.6696C14.5735 3.32971 14.4814 3.37267 14.418 3.44632L9.98886 8.72651L5.55972 3.44632C5.49835 3.37267 5.40629 3.32971 5.30809 3.32971H3.67555C3.53643 3.32971 3.46074 3.49133 3.55075 3.59771L8.92095 9.99899L3.55075 16.4003C3.53059 16.424 3.51765 16.453 3.51348 16.4838C3.50931 16.5147 3.51407 16.5461 3.52721 16.5743C3.54035 16.6025 3.56131 16.6264 3.58761 16.643C3.6139 16.6597 3.64442 16.6684 3.67555 16.6683H5.30809C5.40424 16.6683 5.4963 16.6253 5.55972 16.5517L9.98886 11.2715L14.418 16.5517C14.4794 16.6253 14.5714 16.6683 14.6696 16.6683H16.3022C16.4413 16.6683 16.517 16.5067 16.427 16.4003L11.0568 9.99899Z" fill="black" fill-opacity="0.85"/>
</svg>