<svg width="90" height="90" viewBox="0 0 90 90" fill="none" xmlns="http://www.w3.org/2000/svg">
<rect width="90" height="90" rx="12.5" fill="#5DBD79"/>
<path d="M40.7427 41.5936V55.0029L43.9352 52.9195V39.4658L40.7427 41.5936Z" fill="white"/>
<path d="M18.145 28.6113L13.5 30.0857L40.7727 41.5944L43.9357 39.4819L18.145 28.6113Z" fill="white"/>
<path d="M22.1949 35.6349L17.5439 37.116L35.6606 44.7869L38.8276 42.6868L22.1949 35.6349Z" fill="white"/>
<path d="M35.635 44.7495V58.1959L38.8276 56.1271V42.6588L35.635 44.7495Z" fill="white"/>
<path d="M30.7395 48.1591V61.3887L33.9321 59.3161V46.0645L30.7395 48.1591Z" fill="white"/>
<path d="M26.0428 42.8712L21.3755 44.3204L30.7546 48.1921L33.9329 46.1373L26.0428 42.8712Z" fill="white"/>
<path d="M49.257 41.5936V55.0029L46.0645 52.9195V39.4658L49.257 41.5936Z" fill="white"/>
<path d="M71.8552 28.6113L46.0645 39.4819L49.2274 41.5944L76.5001 30.0857L71.8552 28.6113Z" fill="white"/>
<path d="M67.8093 35.6349L72.4556 37.116L54.3578 44.7869L51.1719 42.6868L67.8093 35.6349Z" fill="white"/>
<path d="M54.3644 44.7495V58.1959L51.1719 56.1271V42.6588L54.3644 44.7495Z" fill="white"/>
<path d="M59.2604 48.1591V61.3887L56.0679 59.3161V46.0645L59.2604 48.1591Z" fill="white"/>
<path d="M63.8241 42.8712L68.4124 44.3204L59.214 48.1921L56.0679 46.1373L63.8241 42.8712Z" fill="white"/>
</svg>
