<svg width="90" height="90" viewBox="0 0 90 90" fill="none" xmlns="http://www.w3.org/2000/svg">
<rect width="90" height="90" rx="12.5" fill="#0047BA"/>
<path d="M26.9946 20.2219V27.1205C26.9946 27.3298 27.0943 27.5292 27.2738 27.6488L36.545 33.8994C36.7544 34.039 37.0435 34.039 37.2528 33.8994L42.3171 30.49C42.5065 30.3604 42.5065 30.0912 42.3171 29.9616L27.4831 19.9627C27.2738 19.8131 26.9946 19.9627 26.9946 20.2219Z" fill="white"/>
<path d="M26.3317 72.375L63.7004 72.3643C64.0752 72.3643 64.375 72.0646 64.375 71.6794V43.6184C64.375 43.5007 64.3215 43.4043 64.2251 43.3401L53.9995 36.4479C53.7747 36.2981 53.4642 36.2981 53.2393 36.4479L47.8 40.0974C47.5965 40.2365 47.5965 40.5255 47.8 40.6646L57.2118 47.0216C57.3081 47.0859 57.3617 47.1929 57.3617 47.2999V65.0761C57.3617 65.4507 57.0619 65.7611 56.6764 65.7611H49.1919C48.8172 65.7611 48.5067 65.4614 48.5067 65.0761V49.5581L44.9411 47.1501L41.4933 49.4831V65.0654C41.4933 65.44 41.1935 65.7504 40.8081 65.7504H33.3236C32.9488 65.7504 32.6383 65.4507 32.6383 65.0654V47.2143C32.6383 47.0966 32.6919 47.0002 32.7882 46.936L64.0538 25.8528C64.2465 25.7244 64.3536 25.5104 64.3536 25.2856V17.9654C64.3536 17.6978 64.0538 17.5266 63.8289 17.6871L25.7749 43.2545C25.6785 43.3187 25.625 43.4257 25.625 43.5328V71.6901C25.6571 72.0646 25.9569 72.375 26.3317 72.375Z" fill="white"/>
</svg>
