<svg width="90" height="90" viewBox="0 0 90 90" fill="none" xmlns="http://www.w3.org/2000/svg">
<rect width="90" height="90" rx="12.5" fill="#FFCB05"/>
<path d="M10.5336 41.8664C10.0114 46.6243 9.51823 50.9471 9.43119 51.4403L9.28613 52.3977H12.5065H15.7268V51.4113C15.7268 50.8891 15.8138 50.0187 15.9008 49.5255C16.0749 48.6262 16.0749 48.6262 14.8854 48.6262C13.928 48.6262 13.6959 48.5101 13.725 48.1039C13.725 47.8428 14.0731 44.3904 14.5373 40.4158L15.3206 33.2499H13.4058H11.491L10.5336 41.8664Z" fill="white"/>
<path d="M68.7031 35.3385C68.616 35.8608 68.471 36.7891 68.3839 37.3984L68.2099 38.5008L67.4556 37.8916C66.4402 37.1083 65.5118 37.1663 64.4673 38.0947C63.3939 39.0811 63.2488 39.6903 62.5526 46.102C62.0594 50.9179 62.0594 50.976 62.6396 51.7593C63.3939 52.8037 64.8445 52.9488 65.976 52.1074C66.6432 51.6142 66.7883 51.5852 66.7883 51.9624C66.7883 52.3105 67.1654 52.3975 68.616 52.3975H70.4438L71.3722 43.8971C71.8944 39.2552 72.3006 35.1935 72.3006 34.9034C72.3006 34.4972 72.0104 34.4102 70.5598 34.4102C68.8481 34.4102 68.8481 34.4102 68.7031 35.3385ZM67.5426 45.0575C67.2815 47.5526 66.9914 49.6994 66.9043 49.8445C66.6432 50.2797 65.9179 50.0766 65.9179 49.5544C65.9179 49.2933 66.121 47.1754 66.3821 44.8545C66.8753 40.6477 67.1654 39.6033 67.7457 40.1835C67.9488 40.3866 67.8907 41.9533 67.5426 45.0575Z" fill="white"/>
<path d="M20.2241 37.7177C18.3963 38.53 17.8741 39.6325 17.2939 43.9843C16.4235 50.599 16.9167 52.1366 20.1661 52.5718C22.6901 52.9199 24.7499 51.2372 25.3012 48.336C25.4462 47.4947 25.5913 46.6824 25.5913 46.5663C25.5913 46.4213 24.808 46.3052 23.8506 46.3052H22.1389L21.9648 47.3786C21.7037 49.2064 21.3846 49.9317 20.9494 49.9317C20.6012 49.9317 20.5432 49.5545 20.6012 48.191C20.7463 45.0287 20.6303 45.1447 23.2703 45.1447C24.5179 45.1447 25.6203 45.0287 25.7363 44.8836C26.0265 44.3614 25.9394 39.6905 25.5913 39.0522C24.779 37.5146 22.1389 36.8763 20.2241 37.7177ZM22.4 41.3732C22.4 42.6207 22.3129 42.8238 21.8197 42.8238C21.3846 42.8238 21.2395 42.6207 21.2395 42.0114C21.2395 40.7929 21.5586 39.9226 21.9938 39.9226C22.2839 39.9226 22.4 40.3288 22.4 41.3732Z" fill="white"/>
<path d="M29.6233 37.8918C27.9696 38.7622 27.3894 40.2708 26.8381 45.3769C26.3739 49.4966 26.3739 49.8157 26.8381 50.8021C27.9116 53.065 31.364 53.3261 33.5109 51.2953C34.5843 50.2799 35.0485 48.5972 35.4837 44.1004C35.8028 40.677 35.8028 40.2708 35.3386 39.2844C34.4393 37.3986 31.7702 36.7603 29.6233 37.8918ZM32.0603 40.1547C32.2634 40.4158 31.2479 49.3225 30.9868 49.7577C30.5517 50.4249 30.2325 50.0188 30.2325 48.8293C30.2325 47.2627 31.0158 40.5609 31.2479 40.2128C31.451 39.8646 31.8862 39.8356 32.0603 40.1547Z" fill="white"/>
<path d="M42.7076 37.5144C42.4755 37.6015 41.9823 37.9206 41.6341 38.2397L40.9959 38.82L41.1699 38.2107C41.315 37.6305 41.228 37.6015 39.4292 37.6015H37.5144L37.3404 38.82C36.9052 42.0403 35.4546 55.1827 35.4546 55.908C35.4546 56.7493 35.4836 56.7493 37.1663 56.7493C39.1391 56.7493 39.0521 56.8654 39.4002 53.3549L39.6033 51.237L40.4446 51.9623C41.4891 52.8327 42.3884 52.8907 43.3748 52.0784C44.3322 51.3531 44.5933 50.3377 45.1736 45.5797C45.7828 40.2996 45.7538 38.6169 45.0285 37.8916C44.4773 37.3403 43.6069 37.1953 42.7076 37.5144ZM41.8372 41.1409C41.8372 43.2588 40.9959 49.5834 40.6767 49.9025C39.9224 50.6568 39.8354 49.4963 40.3576 45.1155C40.6477 42.6205 40.9669 40.4446 41.0829 40.2706C41.5181 39.5743 41.8372 39.9514 41.8372 41.1409Z" fill="white"/>
<path d="M49.0907 37.9786C47.6691 38.7329 46.9148 39.9514 46.6246 42.0113L46.4506 43.4038H48.1913H49.932L50.1061 42.0113C50.3672 40.1545 50.4832 39.8644 50.9184 39.9804C51.3826 40.1545 51.5277 42.0693 51.1215 42.8236C50.9474 43.1427 49.99 43.781 48.9746 44.2452C46.5376 45.3476 46.1024 46.0149 45.9574 49.0612C45.8413 51.208 45.8993 51.5272 46.4506 52.0784C47.2339 52.8617 48.5104 52.8617 49.4968 52.0784C50.1061 51.5852 50.2511 51.5562 50.2511 51.9333C50.2511 52.3105 50.5993 52.3975 52.1079 52.3975H53.9356L54.1387 50.4247C54.2258 49.3513 54.5159 46.6242 54.748 44.3322C55.1251 40.7057 55.1251 40.0675 54.748 39.1681C53.9937 37.3404 51.3536 36.7891 49.0907 37.9786ZM50.6863 47.6686C50.4542 49.9025 50.3962 50.0766 49.7869 50.0766C49.2357 50.0766 49.2357 48.0748 49.7869 46.7402C50.5122 45.0285 50.9184 45.4637 50.6863 47.6686Z" fill="white"/>
<path d="M61.6817 37.8627C61.1595 38.1819 60.6953 38.588 60.6082 38.8201C60.5212 39.0232 60.4342 38.8491 60.4342 38.385C60.4052 37.6306 60.3762 37.6016 58.6645 37.6016C56.6046 37.6016 56.8657 36.8763 56.0534 44.5645C55.7342 47.6688 55.3861 50.715 55.2991 51.2953L55.125 52.3977H57.0108H58.8675L59.3607 48.1039C59.7959 44.2454 59.912 43.7812 60.5792 43.1719C60.9854 42.8238 61.4786 42.5337 61.7107 42.5337C61.9138 42.5337 62.1749 42.3016 62.2619 42.0114C62.436 41.3442 62.8132 37.3115 62.6971 37.3115C62.6391 37.3115 62.1749 37.5726 61.6817 37.8627Z" fill="white"/>
<path d="M75.3466 37.7466C73.838 38.2978 73.2868 38.9941 72.8806 40.9959C72.3584 43.462 72.7646 44.5064 74.9405 46.1891C76.6231 47.4656 76.6812 47.5526 76.5941 48.7131C76.5361 49.6995 76.3911 49.9316 75.9269 49.9316C75.4046 49.9316 75.3466 49.7575 75.4046 48.539L75.4917 47.1755H73.925C72.1843 47.1755 72.0103 47.3496 72.0103 49.2353C72.0103 51.5563 73.2578 52.6877 75.8398 52.6877C78.5089 52.6877 79.8435 51.2081 80.0756 48.0168C80.2496 45.6379 79.9595 45.0576 77.8416 43.6941C76.217 42.6786 75.7818 41.7793 76.333 40.5898C76.7972 39.5744 77.4065 39.9225 77.2904 41.17L77.2034 42.1854L78.712 42.3885C80.4527 42.6206 80.7138 42.4175 80.7138 40.6188C80.7138 39.1102 79.9015 38.0077 78.4509 37.6016C77.0873 37.2244 76.7682 37.2534 75.3466 37.7466Z" fill="white"/>
</svg>
