<svg width="90" height="90" viewBox="0 0 90 90" fill="none" xmlns="http://www.w3.org/2000/svg">
<rect width="90" height="90" rx="12.5" fill="#3F9668"/>
<g clip-path="url(#clip0_16_1627)">
<path d="M11.3888 41.8022L9.73429 42.8376C9.73429 42.8376 7.1667 39.4872 5.62524 38.6055L23.6345 36.842C23.6345 36.842 10.0733 38.7682 9.00199 39.4148L11.3888 41.8022Z" fill="white"/>
<path d="M24.7328 36.842C24.7328 36.842 18.6619 38.4698 14.1415 47.219L12.3966 43.3621L10.9275 44.4654C10.9275 44.4654 13.6895 49.4753 13.8567 52.0978C13.8567 52.0978 17.6177 41.1963 24.7328 36.842Z" fill="white"/>
<path d="M6.6875 46.9068C6.6875 46.9068 11.339 41.1464 22.0976 37.4884C16.4429 39.6885 11.2249 42.8777 6.6875 46.9068Z" fill="white"/>
<path d="M61.0408 50.6554C60.9391 50.4746 60.786 50.3281 60.6008 50.2347C60.4156 50.1413 60.2069 50.1052 60.0011 50.1309C59.5934 50.1186 59.1936 50.2444 58.8665 50.4881C58.5402 50.734 58.319 51.0942 58.2472 51.4964C58.2174 51.6116 58.2022 51.7301 58.202 51.8491C58.1928 51.9943 58.2189 52.1397 58.2779 52.2727C58.3369 52.4057 58.4272 52.5226 58.541 52.6132C58.782 52.7837 59.0734 52.8681 59.3682 52.8529C59.6063 52.8579 59.8429 52.8144 60.0636 52.725C60.2843 52.6356 60.4845 52.5022 60.652 52.3329L60.878 52.5002C60.6766 52.7115 60.4337 52.8788 60.1646 52.9916C59.8954 53.1045 59.6058 53.1604 59.314 53.1558C59.0967 53.1733 58.8783 53.1417 58.6749 53.0635C58.4715 52.9852 58.2882 52.8622 58.1387 52.7037C57.9613 52.4875 57.8682 52.2145 57.8765 51.935C57.8837 51.6188 57.9594 51.3079 58.0983 51.0238C58.2372 50.7397 58.4361 50.489 58.6811 50.2891C59.0762 49.9833 59.5649 49.8236 60.0644 49.837C60.3182 49.8068 60.5753 49.852 60.8036 49.967C61.0319 50.082 61.2213 50.2616 61.3482 50.4836L61.0408 50.6554Z" fill="white"/>
<path d="M64.8607 52.8257C64.7118 52.9569 64.5381 53.0569 64.3499 53.1197C64.1881 53.1546 64.0226 53.1698 63.8572 53.1649C63.5927 53.1782 63.3319 53.0982 63.1203 52.9388C63.0187 52.8567 62.9381 52.7515 62.8854 52.632C62.8327 52.5124 62.8094 52.3819 62.8175 52.2515C62.8191 52.1481 62.8312 52.045 62.8536 51.944C62.9164 51.587 63.1078 51.2653 63.3916 51.0397C63.6733 50.8183 64.0233 50.7016 64.3815 50.7097C64.6488 50.6965 64.9124 50.7764 65.1274 50.9357C65.2291 51.0187 65.3097 51.1248 65.3623 51.2451C65.415 51.3653 65.4383 51.4965 65.4303 51.6275C65.4252 51.8542 65.3717 52.0771 65.2735 52.2814C65.1752 52.4857 65.0345 52.6667 64.8607 52.8122V52.8257ZM64.9737 51.2658C64.9032 51.1632 64.8019 51.0856 64.6844 51.0443C64.5662 51.0152 64.4444 51.003 64.3228 51.0081C64.0492 51.0009 63.7818 51.0906 63.5679 51.2613C63.4336 51.3721 63.324 51.5099 63.2462 51.6656C63.1683 51.8213 63.1239 51.9917 63.1158 52.1656C63.1096 52.2636 63.1264 52.3616 63.1648 52.4519C63.2033 52.5422 63.2624 52.6222 63.3373 52.6856C63.4979 52.8075 63.6965 52.8684 63.8979 52.8574C64.1706 52.8655 64.4372 52.7762 64.6501 52.6056C64.863 52.4349 65.0082 52.194 65.0596 51.926C65.0771 51.8442 65.0861 51.7609 65.0867 51.6773C65.0943 51.5315 65.0546 51.3872 64.9737 51.2658Z" fill="white"/>
<path d="M68.8747 53.115L68.9289 52.8618C68.6741 53.0689 68.3529 53.1765 68.0248 53.1647C67.8177 53.1736 67.6123 53.1234 67.4326 53.02C67.3468 52.9652 67.2769 52.8887 67.23 52.7982C67.1832 52.7077 67.1611 52.6064 67.1659 52.5046C67.1668 52.43 67.1759 52.3557 67.1931 52.283L67.5095 50.7819H67.8259L67.505 52.2785C67.499 52.3341 67.499 52.3902 67.505 52.4458C67.505 52.7307 67.7039 52.898 68.1017 52.898C68.3415 52.9082 68.5765 52.8292 68.7616 52.6764C68.9403 52.5145 69.0609 52.2985 69.1052 52.0615L69.3719 50.8045H69.6883L69.1911 53.1376L68.8747 53.115Z" fill="white"/>
<path d="M71.7451 52.1653L71.5507 53.1103H71.2388L71.7315 50.7772H72.0479L71.9801 51.0937C72.2841 50.835 72.6755 50.7024 73.0741 50.7229L73.0153 51.0078C72.3327 51.0078 71.9078 51.3921 71.7451 52.1653Z" fill="white"/>
<path d="M74.4348 53.1108L74.9411 50.7234H75.2575L74.7512 53.1108H74.4348ZM75.1581 50.3979C75.0903 50.3979 75.0496 50.3617 75.0315 50.2803L75.1084 49.9367C75.1246 49.9036 75.1488 49.8752 75.1788 49.8539C75.2088 49.8326 75.2436 49.8191 75.2801 49.8146C75.3299 49.8146 75.3796 49.8507 75.4248 49.9231L75.3479 50.2939C75.3051 50.3549 75.2403 50.397 75.1671 50.4114L75.1581 50.3979Z" fill="white"/>
<path d="M77.1561 52.0659C77.1518 52.123 77.1518 52.1805 77.1561 52.2377C77.1561 52.6627 77.4093 52.8752 77.9155 52.8752C78.1141 52.8824 78.3109 52.8357 78.4852 52.7402C78.6594 52.6447 78.8047 52.5039 78.9055 52.3326H79.2355C79.1109 52.5932 78.9125 52.8113 78.665 52.96C78.4174 53.1088 78.1317 53.1815 77.8432 53.1691C77.5875 53.1844 77.3342 53.1127 77.1245 52.9656C77.026 52.8876 76.9481 52.7867 76.8977 52.6716C76.8472 52.5565 76.8258 52.4308 76.8352 52.3055C76.836 52.1865 76.8512 52.0681 76.8804 51.9528C76.9431 51.5979 77.1307 51.2772 77.4093 51.0485C77.6825 50.8234 78.0271 50.7031 78.3811 50.7094C78.6385 50.6984 78.8929 50.7679 79.1089 50.9083C79.2107 50.9834 79.2921 51.0827 79.3457 51.1972C79.3994 51.3116 79.4237 51.4377 79.4163 51.564C79.4165 51.6598 79.4058 51.7553 79.3847 51.8488L79.3485 52.0478L77.1561 52.0659ZM78.3314 51.0078C78.0904 51 77.8534 51.0707 77.6561 51.2093C77.4588 51.348 77.3118 51.547 77.2375 51.7765H79.0456C79.0501 51.7359 79.0501 51.695 79.0456 51.6544C79.0519 51.5619 79.0359 51.4693 78.9989 51.3843C78.9619 51.2994 78.9051 51.2245 78.8332 51.1661C78.687 51.0613 78.5112 51.0058 78.3314 51.0078Z" fill="white"/>
<path d="M81.4958 52.1657L81.2924 53.1107H80.9805L81.4777 50.7776H81.7896L81.7218 51.0941C82.0263 50.8362 82.4173 50.7037 82.8158 50.7233L82.7615 51.0082C82.0744 51.0082 81.6495 51.3925 81.4958 52.1657Z" fill="white"/>
<path d="M25.0765 41.5806C25.0186 41.5815 24.9628 41.6022 24.9183 41.6394C24.8752 41.6735 24.8423 41.7189 24.8234 41.7705C24.8215 41.7855 24.8215 41.8007 24.8234 41.8157V41.9152C24.8234 41.9559 24.8234 42.0056 24.7872 42.0689C24.751 42.1322 24.751 42.2091 24.7284 42.2995C24.7058 42.3899 24.6787 42.503 24.6516 42.6251C24.6434 42.6634 24.6436 42.703 24.6522 42.7413C24.6608 42.7795 24.6775 42.8155 24.7013 42.8466C24.724 42.8763 24.7535 42.9001 24.7874 42.9158C24.8212 42.9316 24.8584 42.9389 24.8957 42.9371H28.1278C28.3984 42.9384 28.6648 43.0039 28.9052 43.128C29.1457 43.2522 29.3533 43.4316 29.511 43.6515C29.6871 43.8731 29.8087 44.133 29.866 44.4102C29.9233 44.6874 29.9147 44.9743 29.841 45.2476C29.8423 45.2626 29.8423 45.2777 29.841 45.2928C29.841 45.2928 29.841 45.3425 29.841 45.3787L29.7823 45.5505C29.7604 45.6203 29.7422 45.6913 29.728 45.763C29.728 45.8489 29.6828 45.9529 29.6557 46.066C29.6286 46.179 29.5924 46.3147 29.5562 46.4639C29.5201 46.6131 29.4749 46.7849 29.4342 46.9748C29.3266 47.3954 29.0835 47.7688 28.7426 48.0374C28.4022 48.311 27.9767 48.4566 27.5401 48.4488H21.0398C21.0407 48.4413 21.0407 48.4337 21.0398 48.4262C21.0415 48.4097 21.0415 48.393 21.0398 48.3765C21.0511 48.3425 21.0601 48.3077 21.0669 48.2725L21.1121 48.1007C21.1121 48.0283 21.1483 47.9424 21.1709 47.8384L21.2523 47.4767C21.2839 47.3365 21.3246 47.1783 21.3698 46.9974C21.415 46.8166 21.4602 46.6131 21.5144 46.387H27.2508C27.3093 46.388 27.3664 46.3694 27.4131 46.3342C27.4598 46.2989 27.4934 46.2491 27.5085 46.1926C27.5075 46.176 27.5075 46.1594 27.5085 46.1428C27.5068 46.1112 27.5068 46.0795 27.5085 46.0479C27.5085 46.0072 27.5311 45.9529 27.5492 45.8942L27.6034 45.659C27.6034 45.5686 27.6486 45.4601 27.6758 45.3335C27.7036 45.3017 27.7212 45.2622 27.726 45.2202C27.7309 45.1781 27.7228 45.1357 27.7029 45.0984C27.6829 45.0664 27.6548 45.0404 27.6214 45.0229C27.588 45.0054 27.5506 44.9971 27.513 44.9989H24.2402C23.9647 45.0078 23.691 44.9509 23.4418 44.833C23.1926 44.715 22.9751 44.5394 22.8073 44.3207C22.6298 44.098 22.5074 43.8365 22.4501 43.5576C22.3928 43.2787 22.4021 42.9901 22.4773 42.7155C22.479 42.699 22.479 42.6823 22.4773 42.6658C22.4871 42.6378 22.4946 42.609 22.4999 42.5798C22.4999 42.5392 22.4999 42.4939 22.5361 42.4352C22.5722 42.3764 22.5677 42.3086 22.5903 42.2226C22.6129 42.1367 22.6355 42.0373 22.6626 41.9197L22.7576 41.5173C22.7937 41.3681 22.8389 41.1962 22.8886 41.0063C23.2623 40.0478 23.8907 39.5685 24.7737 39.5685H31.3192C31.3192 39.5685 31.3192 39.5956 31.3192 39.6182C31.3122 39.6534 31.3032 39.6881 31.2921 39.7222C31.2921 39.7674 31.265 39.8262 31.2469 39.894C31.2288 39.9619 31.2062 40.0432 31.1791 40.1427C31.1519 40.2422 31.1248 40.3643 31.0887 40.4999C31.0525 40.6356 31.0118 40.7938 30.9666 40.9747C30.9214 41.1556 30.8672 41.3545 30.8129 41.5806H25.0765Z" fill="white"/>
<path d="M31.9474 39.546H34.1308C34.129 39.5535 34.129 39.5612 34.1308 39.5686V39.6093V39.6771L34.1036 39.7721C34.0899 39.815 34.0794 39.8588 34.072 39.9032L34.0313 40.066C34.0132 40.1233 33.9951 40.1911 33.9771 40.2695C33.959 40.3478 33.9364 40.4338 33.9093 40.5272L33.8324 40.8301C33.8324 40.9432 33.7782 41.0653 33.7465 41.1919C33.7149 41.3185 33.6742 41.4632 33.6335 41.6169H35.1614L34.7094 43.5883H33.1272C33.1272 43.5883 33.1272 43.5883 33.1272 43.6154C33.1286 43.632 33.1286 43.6486 33.1272 43.6652C33.1272 43.6652 33.1272 43.7104 33.1272 43.742C33.1272 43.7737 33.1272 43.8053 33.1046 43.8506C33.082 43.8958 33.1046 43.941 33.0685 43.9998C33.0323 44.0585 33.0368 44.1218 33.0187 44.1942C33.0007 44.2665 32.9826 44.3524 32.96 44.4429L32.8877 44.7549C32.8605 44.8634 32.8289 44.99 32.7972 45.1256C32.7656 45.2613 32.7294 45.415 32.6888 45.5778L32.5531 46.1023C32.5402 46.21 32.5693 46.3185 32.6345 46.4052C32.6672 46.4495 32.7102 46.4851 32.7599 46.5087C32.8096 46.5324 32.8643 46.5434 32.9193 46.5409H34.0313L33.5793 48.4173H32.0875C31.8119 48.4269 31.5382 48.3684 31.2907 48.247C31.0431 48.1255 30.8293 47.9449 30.6681 47.721C30.4973 47.4922 30.3795 47.2283 30.3232 46.9483C30.2669 46.6683 30.2736 46.3794 30.3427 46.1023L31.9474 39.546Z" fill="white"/>
<path d="M36.4182 42.9822C37.2463 42.1452 38.365 41.6594 39.5418 41.6257H41.1646C41.4236 41.6169 41.6811 41.6687 41.9166 41.777C42.152 41.8854 42.3589 42.0472 42.5207 42.2497C42.6849 42.4446 42.7994 42.6764 42.8545 42.9252C42.9096 43.174 42.9037 43.4325 42.8372 43.6785L42.7422 44.0222C42.7422 44.1216 42.697 44.203 42.6789 44.2708C42.6609 44.3387 42.6428 44.3929 42.6337 44.4336C42.6247 44.4743 42.6111 44.515 42.6066 44.5376C42.609 44.5541 42.609 44.5709 42.6066 44.5874C42.6055 44.5948 42.6055 44.6025 42.6066 44.61C42.5141 45.0178 42.2783 45.3788 41.9421 45.6273C41.603 45.8802 41.1897 46.0137 40.7668 46.0071H38.7462C38.6201 45.9973 38.5001 45.9485 38.4029 45.8675C38.3058 45.7865 38.2361 45.6773 38.2037 45.555C38.166 45.4226 38.1577 45.2835 38.1796 45.1475C38.2015 45.0116 38.2529 44.8821 38.3303 44.7682C38.4337 44.6202 38.5682 44.4965 38.7243 44.4059C38.8805 44.3153 39.0546 44.26 39.2344 44.2437H40.5001C40.5272 44.1397 40.5498 44.0448 40.5724 43.9679C40.595 43.891 40.6086 43.8277 40.6222 43.7735C40.6357 43.7192 40.6493 43.6785 40.6583 43.6423C40.6674 43.6062 40.6583 43.579 40.6583 43.5564C40.6595 43.5429 40.6595 43.5293 40.6583 43.5157H39.3022C38.873 43.5043 38.4514 43.6311 38.0998 43.8775C37.7125 44.1815 37.4477 44.6149 37.3539 45.0983C37.2789 45.472 37.3449 45.8602 37.5392 46.188C37.6672 46.3676 37.8418 46.5088 38.0442 46.5964C38.2465 46.6841 38.4689 46.7148 38.6874 46.6854H42.0777C42.028 46.8843 41.9828 47.0652 41.9421 47.2189C41.9014 47.3726 41.8607 47.5083 41.8291 47.6258L41.7477 47.9333C41.7477 48.0237 41.7025 48.0961 41.689 48.1594C41.6754 48.2227 41.6573 48.2679 41.6483 48.3041V48.3945C41.646 48.4095 41.646 48.4247 41.6483 48.4397H37.7291C36.825 48.4397 36.1469 48.2227 35.7446 47.7796C35.3473 47.3522 35.1275 46.7897 35.1299 46.2061C35.1099 45.6088 35.2141 45.0139 35.4358 44.4589C35.6576 43.904 35.9921 43.4011 36.4182 42.9822Z" fill="white"/>
<path d="M45.4905 48.4172C44.3755 48.2966 43.6387 47.8128 43.28 46.9658C42.9229 46.1157 43.0133 45.0667 43.5603 43.8007C44.4885 42.2513 45.9305 41.5293 47.8863 41.6348H50.9873L50.8879 41.9875L50.3454 44.1398L49.256 48.4262H47.0862L45.4905 48.4172ZM48.2028 44.1534L48.3791 43.4344H47.3394C46.8483 43.4217 46.3684 43.5817 45.9833 43.8866C45.6525 44.1567 45.4087 44.5185 45.2826 44.9265C45.0475 45.9936 45.4137 46.5227 46.3901 46.5091H47.5925L48.2028 44.1534Z" fill="white"/>
<path d="M57.6187 46.0296H55.4805L56.0863 43.4885H54.7301C53.7809 43.4885 53.1525 44.013 52.8451 45.062C52.7584 45.4357 52.8217 45.8286 53.0214 46.1562C53.1455 46.3292 53.3124 46.4668 53.5058 46.5556C53.6992 46.6444 53.9124 46.6813 54.1244 46.6626H57.4605L57.0084 48.4396H53.2158C52.8665 48.4653 52.5156 48.4188 52.1851 48.3029C51.8545 48.1869 51.5514 48.0042 51.2946 47.7659C50.8983 47.3318 50.6692 46.7708 50.6482 46.1833C50.6444 44.9775 51.1077 43.8172 51.9411 42.9459C52.7381 42.1123 53.8306 41.6252 54.9833 41.5894H56.5699L57.1124 39.5411H59.2506L57.6187 46.0296Z" fill="white"/>
<path d="M59.5489 41.029C59.8925 40.0433 60.5208 39.5549 61.4339 39.5549H67.55L67.098 41.5851H61.8091C61.7535 41.5882 61.7008 41.6106 61.6599 41.6484C61.6054 41.6868 61.5656 41.7426 61.5469 41.8067L61.2848 42.9823H64.8694L64.4174 45.0125H60.8011L60.0326 48.4443H57.8538L59.5489 41.029Z" fill="white"/>
<path d="M67.5908 48.4172C66.4788 48.2966 65.742 47.8128 65.3803 46.9658C65.0187 46.1187 65.1121 45.0637 65.6606 43.8007C66.5918 42.2513 68.0353 41.5293 69.9912 41.6348H73.0876L72.9882 41.9875L72.4548 44.1534L71.3699 48.4398H69.1956L67.5908 48.4172ZM70.3031 44.1534L70.4839 43.4344H69.4397C68.9485 43.4205 68.4681 43.5807 68.0835 43.8866C67.7501 44.1552 67.5045 44.5173 67.3784 44.9265C67.1433 45.9936 67.5125 46.5212 68.4859 46.5091H69.6973L70.3031 44.1534Z" fill="white"/>
<path d="M80.6549 41.644L81.1612 39.546H83.3446V39.5686C83.3432 39.5822 83.3432 39.5958 83.3446 39.6093V39.6771C83.3446 39.7043 83.3355 39.7359 83.3174 39.7721C83.3174 39.8128 83.2948 39.8535 83.2813 39.9032C83.2677 39.953 83.2587 40.0072 83.2451 40.066C83.2315 40.1248 83.2089 40.1926 83.1909 40.2695C83.1728 40.3463 83.1502 40.4322 83.1231 40.5272L83.0462 40.8301C83.0191 40.9432 82.992 41.0653 82.9558 41.1919C82.9196 41.3185 82.888 41.4632 82.8473 41.6169H84.4159L83.9639 43.5883H82.3546C82.3546 43.5883 82.3546 43.5883 82.3546 43.6154C82.356 43.632 82.356 43.6486 82.3546 43.6652C82.3546 43.6652 82.3546 43.7104 82.3546 43.742C82.3546 43.7737 82.3546 43.8053 82.3546 43.8506C82.3546 43.8958 82.3546 43.941 82.3184 43.9998C82.2823 44.0585 82.2868 44.1218 82.2687 44.1942C82.2506 44.2665 82.2325 44.3524 82.2099 44.4429L82.1376 44.7549C82.1105 44.8634 82.0788 44.99 82.0472 45.1256C82.0156 45.2613 81.9749 45.415 81.9387 45.5778L81.8031 46.1023C81.7954 46.1557 81.7987 46.21 81.8127 46.2621C81.8267 46.3142 81.8511 46.3629 81.8845 46.4052C81.9171 46.4495 81.9602 46.4851 82.0099 46.5087C82.0595 46.5324 82.1143 46.5434 82.1693 46.5409H83.3039L82.8518 48.4173H81.3601C81.0845 48.4269 80.8108 48.3684 80.5632 48.247C80.3156 48.1255 80.1018 47.9449 79.9407 47.721C79.769 47.4927 79.6507 47.2287 79.5943 46.9486C79.538 46.6685 79.5451 46.3793 79.6152 46.1023L80.2707 43.3894H76.017C75.7397 43.3894 75.5815 43.4888 75.5423 43.6878C75.5271 43.7542 75.5367 43.8239 75.5691 43.8838C75.6016 43.9437 75.6547 43.9898 75.7186 44.0133C75.8979 44.0713 76.0872 44.0914 76.2746 44.0721L77.1787 44.045C78.006 44.0721 78.5348 44.3072 78.8241 44.7458C79.1063 45.2884 79.1818 45.9151 79.0366 46.5092C78.7654 47.8295 77.8613 48.4641 76.3244 48.4128H72.3826L72.7578 46.568H76.2566C76.6272 46.5997 76.8532 46.4866 76.9301 46.2244C76.9301 45.935 76.7222 45.8039 76.2837 45.831H75.3028C75.0099 45.8435 74.7179 45.7912 74.4475 45.6778C74.1772 45.5645 73.9352 45.393 73.7387 45.1754C73.5516 44.9276 73.4241 44.64 73.3661 44.335C73.3081 44.03 73.3211 43.7157 73.4042 43.4165C73.799 42.1233 74.7919 41.5204 76.3831 41.6079H80.7363L80.6549 41.644Z" fill="white"/>
<mask id="mask0_16_1627" style="mask-type:luminance" maskUnits="userSpaceOnUse" x="21" y="51" width="36" height="2">
<path d="M56.9818 51.6168H21.04V52.0961H56.9818V51.6168Z" fill="white"/>
</mask>
<g mask="url(#mask0_16_1627)">
<path d="M21.23 51.6135H21.0447V52.0928H21.23V51.6135Z" fill="white"/>
<path d="M21.4153 51.6136H21.23V52.0929H21.4153V51.6136Z" fill="white"/>
<path d="M21.6009 51.6136H21.4155V52.0929H21.6009V51.6136Z" fill="#409668"/>
<path d="M21.7859 51.6136H21.6006V52.0929H21.7859V51.6136Z" fill="#409669"/>
<path d="M21.9759 51.6136H21.7905V52.0929H21.9759V51.6136Z" fill="#409669"/>
<path d="M22.1612 51.6136H21.9758V52.0929H22.1612V51.6136Z" fill="#419669"/>
<path d="M22.3465 51.6136H22.1611V52.0929H22.3465V51.6136Z" fill="#419769"/>
<path d="M22.532 51.6136H22.3467V52.0929H22.532V51.6136Z" fill="#419769"/>
<path d="M22.7171 51.6136H22.5317V52.0929H22.7171V51.6136Z" fill="#429769"/>
<path d="M22.907 51.6136H22.7217V52.0929H22.907V51.6136Z" fill="#42976A"/>
<path d="M23.0923 51.6136H22.907V52.0929H23.0923V51.6136Z" fill="#43976A"/>
<path d="M23.2779 51.6136H23.0925V52.0929H23.2779V51.6136Z" fill="#43986A"/>
<path d="M23.4629 51.6136H23.2776V52.0929H23.4629V51.6136Z" fill="#44986A"/>
<path d="M23.6485 51.6136H23.4631V52.0929H23.6485V51.6136Z" fill="#44986B"/>
<path d="M23.8384 51.6136H23.6531V52.0929H23.8384V51.6136Z" fill="#45996B"/>
<path d="M24.0237 51.6136H23.8384V52.0929H24.0237V51.6136Z" fill="#45996B"/>
<path d="M24.209 51.6136H24.0237V52.0929H24.209V51.6136Z" fill="#46996C"/>
<path d="M24.3943 51.6136H24.209V52.0929H24.3943V51.6136Z" fill="#46996C"/>
<path d="M24.5796 51.6136H24.3943V52.0929H24.5796V51.6136Z" fill="#479A6C"/>
<path d="M24.7693 51.6136H24.584V52.0929H24.7693V51.6136Z" fill="#479A6C"/>
<path d="M24.9549 51.6136H24.7695V52.0929H24.9549V51.6136Z" fill="#489A6D"/>
<path d="M25.1402 51.6136H24.9548V52.0929H25.1402V51.6136Z" fill="#499B6D"/>
<path d="M25.3255 51.6136H25.1401V52.0929H25.3255V51.6136Z" fill="#499B6D"/>
<path d="M25.5108 51.6136H25.3254V52.0929H25.5108V51.6136Z" fill="#4A9B6E"/>
<path d="M25.7007 51.6136H25.5154V52.0929H25.7007V51.6136Z" fill="#4A9C6E"/>
<path d="M25.886 51.6136H25.7007V52.0929H25.886V51.6136Z" fill="#4B9C6F"/>
<path d="M26.0713 51.6136H25.886V52.0929H26.0713V51.6136Z" fill="#4C9D6F"/>
<path d="M26.2569 51.6136H26.0715V52.0929H26.2569V51.6136Z" fill="#4C9D6F"/>
<path d="M26.4419 51.6136H26.2566V52.0929H26.4419V51.6136Z" fill="#4D9D70"/>
<path d="M26.6319 51.6136H26.4465V52.0929H26.6319V51.6136Z" fill="#4E9E70"/>
<path d="M26.8172 51.6136H26.6318V52.0929H26.8172V51.6136Z" fill="#4E9E70"/>
<path d="M27.0027 51.6136H26.8174V52.0929H27.0027V51.6136Z" fill="#4F9E71"/>
<path d="M27.1878 51.6136H27.0024V52.0929H27.1878V51.6136Z" fill="#509F71"/>
<path d="M27.3733 51.6136H27.188V52.0929H27.3733V51.6136Z" fill="#509F72"/>
<path d="M27.563 51.6136H27.3777V52.0929H27.563V51.6136Z" fill="#51A072"/>
<path d="M27.7483 51.6136H27.563V52.0929H27.7483V51.6136Z" fill="#52A072"/>
<path d="M27.9339 51.6136H27.7485V52.0929H27.9339V51.6136Z" fill="#53A073"/>
<path d="M28.1189 51.6136H27.9336V52.0929H28.1189V51.6136Z" fill="#53A173"/>
<path d="M28.3045 51.6136H28.1191V52.0929H28.3045V51.6136Z" fill="#54A174"/>
<path d="M28.4944 51.6136H28.3091V52.0929H28.4944V51.6136Z" fill="#55A274"/>
<path d="M28.6797 51.6136H28.4944V52.0929H28.6797V51.6136Z" fill="#56A275"/>
<path d="M28.865 51.6136H28.6797V52.0929H28.865V51.6136Z" fill="#57A275"/>
<path d="M29.0503 51.6136H28.865V52.0929H29.0503V51.6136Z" fill="#57A375"/>
<path d="M29.2356 51.6136H29.0503V52.0929H29.2356V51.6136Z" fill="#58A376"/>
<path d="M29.4256 51.6136H29.2402V52.0929H29.4256V51.6136Z" fill="#59A476"/>
<path d="M29.6109 51.6136H29.4255V52.0929H29.6109V51.6136Z" fill="#5AA477"/>
<path d="M29.7962 51.6136H29.6108V52.0929H29.7962V51.6136Z" fill="#5AA577"/>
<path d="M29.9815 51.6136H29.7961V52.0929H29.9815V51.6136Z" fill="#5BA578"/>
<path d="M30.1668 51.6136H29.9814V52.0929H30.1668V51.6136Z" fill="#5CA678"/>
<path d="M30.3567 51.6136H30.1714V52.0929H30.3567V51.6136Z" fill="#5DA679"/>
<path d="M30.542 51.6136H30.3567V52.0929H30.542V51.6136Z" fill="#5EA679"/>
<path d="M30.7273 51.6136H30.542V52.0929H30.7273V51.6136Z" fill="#5FA77A"/>
<path d="M30.9126 51.6136H30.7273V52.0929H30.9126V51.6136Z" fill="#5FA77A"/>
<path d="M31.0982 51.6136H30.9128V52.0929H31.0982V51.6136Z" fill="#60A87B"/>
<path d="M31.2879 51.6136H31.1025V52.0929H31.2879V51.6136Z" fill="#61A87B"/>
<path d="M31.4734 51.6136H31.2881V52.0929H31.4734V51.6136Z" fill="#62A97C"/>
<path d="M31.6585 51.6136H31.4731V52.0929H31.6585V51.6136Z" fill="#63A97C"/>
<path d="M31.844 51.6136H31.6587V52.0929H31.844V51.6136Z" fill="#64AA7D"/>
<path d="M32.0291 51.6136H31.8438V52.0929H32.0291V51.6136Z" fill="#65AA7D"/>
<path d="M32.219 51.6136H32.0337V52.0929H32.219V51.6136Z" fill="#65AB7E"/>
<path d="M32.4046 51.6136H32.2192V52.0929H32.4046V51.6136Z" fill="#66AB7E"/>
<path d="M32.5896 51.6136H32.4043V52.0929H32.5896V51.6136Z" fill="#67AC7F"/>
<path d="M32.7752 51.6136H32.5898V52.0929H32.7752V51.6136Z" fill="#68AC80"/>
<path d="M32.9605 51.6136H32.7751V52.0929H32.9605V51.6136Z" fill="#69AD80"/>
<path d="M33.1504 51.6136H32.9651V52.0929H33.1504V51.6136Z" fill="#6AAD81"/>
<path d="M33.3357 51.6136H33.1504V52.0929H33.3357V51.6136Z" fill="#6BAE81"/>
<path d="M33.521 51.6136H33.3357V52.0929H33.521V51.6136Z" fill="#6CAE82"/>
<path d="M33.7063 51.6136H33.521V52.0929H33.7063V51.6136Z" fill="#6DAF82"/>
<path d="M33.8916 51.6136H33.7063V52.0929H33.8916V51.6136Z" fill="#6EAF83"/>
<path d="M34.0816 51.6136H33.8962V52.0929H34.0816V51.6136Z" fill="#6FB084"/>
<path d="M34.2669 51.6136H34.0815V52.0929H34.2669V51.6136Z" fill="#70B084"/>
<path d="M34.4522 51.6136H34.2668V52.0929H34.4522V51.6136Z" fill="#70B185"/>
<path d="M34.6375 51.6136H34.4521V52.0929H34.6375V51.6136Z" fill="#71B185"/>
<path d="M34.8228 51.6136H34.6375V52.0929H34.8228V51.6136Z" fill="#72B286"/>
<path d="M35.0127 51.6136H34.8274V52.0929H35.0127V51.6136Z" fill="#73B287"/>
<path d="M35.198 51.6136H35.0127V52.0929H35.198V51.6136Z" fill="#74B387"/>
<path d="M35.3836 51.6136H35.1982V52.0929H35.3836V51.6136Z" fill="#75B388"/>
<path d="M35.5686 51.6136H35.3833V52.0929H35.5686V51.6136Z" fill="#76B489"/>
<path d="M35.7542 51.6136H35.5688V52.0929H35.7542V51.6136Z" fill="#77B489"/>
<path d="M35.9395 51.6136H35.7542V52.0929H35.9395V51.6136Z" fill="#78B58A"/>
<path d="M36.1292 51.6136H35.9438V52.0929H36.1292V51.6136Z" fill="#79B68B"/>
<path d="M36.3147 51.6136H36.1294V52.0929H36.3147V51.6136Z" fill="#7AB68B"/>
<path d="M36.4998 51.6136H36.3145V52.0929H36.4998V51.6136Z" fill="#7BB78C"/>
<path d="M36.6853 51.6136H36.5V52.0929H36.6853V51.6136Z" fill="#7CB78D"/>
<path d="M36.8706 51.6136H36.6853V52.0929H36.8706V51.6136Z" fill="#7DB88D"/>
<path d="M37.0606 51.6136H36.8752V52.0929H37.0606V51.6136Z" fill="#7EB88E"/>
<path d="M37.2456 51.6136H37.0603V52.0929H37.2456V51.6136Z" fill="#7FB98F"/>
<path d="M37.4312 51.6136H37.2458V52.0929H37.4312V51.6136Z" fill="#80B98F"/>
<path d="M37.6165 51.6136H37.4312V52.0929H37.6165V51.6136Z" fill="#81BA90"/>
<path d="M37.8018 51.6136H37.6165V52.0929H37.8018V51.6136Z" fill="#82BA91"/>
<path d="M37.9917 51.6136H37.8064V52.0929H37.9917V51.6136Z" fill="#83BB92"/>
<path d="M38.177 51.6136H37.9917V52.0929H38.177V51.6136Z" fill="#84BC92"/>
<path d="M38.3623 51.6136H38.177V52.0929H38.3623V51.6136Z" fill="#85BC93"/>
<path d="M38.5476 51.6136H38.3623V52.0929H38.5476V51.6136Z" fill="#86BD94"/>
<path d="M38.7332 51.6136H38.5479V52.0929H38.7332V51.6136Z" fill="#87BD94"/>
<path d="M38.9229 51.6136H38.7375V52.0929H38.9229V51.6136Z" fill="#89BE95"/>
<path d="M39.1082 51.6136H38.9229V52.0929H39.1082V51.6136Z" fill="#8ABE96"/>
<path d="M39.2935 51.6136H39.1082V52.0929H39.2935V51.6136Z" fill="#8BBF97"/>
<path d="M39.4788 51.6136H39.2935V52.0929H39.4788V51.6136Z" fill="#8CC097"/>
<path d="M39.6643 51.6136H39.479V52.0929H39.6643V51.6136Z" fill="#8DC098"/>
<path d="M39.854 51.6136H39.6687V52.0929H39.854V51.6136Z" fill="#8EC199"/>
<path d="M40.0396 51.6136H39.8542V52.0929H40.0396V51.6136Z" fill="#8FC19A"/>
<path d="M40.2249 51.6136H40.0396V52.0929H40.2249V51.6136Z" fill="#90C29B"/>
<path d="M40.4102 51.6136H40.2249V52.0929H40.4102V51.6136Z" fill="#91C39B"/>
<path d="M40.5955 51.6136H40.4102V52.0929H40.5955V51.6136Z" fill="#92C39C"/>
<path d="M40.7854 51.6136H40.6001V52.0929H40.7854V51.6136Z" fill="#93C49D"/>
<path d="M40.9705 51.6136H40.7852V52.0929H40.9705V51.6136Z" fill="#94C49E"/>
<path d="M41.156 51.6136H40.9707V52.0929H41.156V51.6136Z" fill="#95C59F"/>
<path d="M41.3413 51.6136H41.156V52.0929H41.3413V51.6136Z" fill="#96C69F"/>
<path d="M41.5266 51.6136H41.3413V52.0929H41.5266V51.6136Z" fill="#98C6A0"/>
<path d="M41.7163 51.6136H41.531V52.0929H41.7163V51.6136Z" fill="#99C7A1"/>
<path d="M41.9019 51.6136H41.7166V52.0929H41.9019V51.6136Z" fill="#9AC7A2"/>
<path d="M42.0872 51.6136H41.9019V52.0929H42.0872V51.6136Z" fill="#9BC8A3"/>
<path d="M42.2725 51.6136H42.0872V52.0929H42.2725V51.6136Z" fill="#9CC9A4"/>
<path d="M42.4578 51.6136H42.2725V52.0929H42.4578V51.6136Z" fill="#9DC9A5"/>
<path d="M42.6477 51.6136H42.4624V52.0929H42.6477V51.6136Z" fill="#9ECAA5"/>
<path d="M42.833 51.6136H42.6477V52.0929H42.833V51.6136Z" fill="#9FCBA6"/>
<path d="M43.0183 51.6136H42.833V52.0929H43.0183V51.6136Z" fill="#A1CBA7"/>
<path d="M43.2039 51.6136H43.0186V52.0929H43.2039V51.6136Z" fill="#A2CCA8"/>
<path d="M43.389 51.6136H43.2036V52.0929H43.389V51.6136Z" fill="#A3CCA9"/>
<path d="M43.5789 51.6136H43.3936V52.0929H43.5789V51.6136Z" fill="#A4CDAA"/>
<path d="M43.7642 51.6136H43.5789V52.0929H43.7642V51.6136Z" fill="#A5CEAB"/>
<path d="M43.9495 51.6136H43.7642V52.0929H43.9495V51.6136Z" fill="#A6CEAC"/>
<path d="M44.1348 51.6136H43.9495V52.0929H44.1348V51.6136Z" fill="#A7CFAD"/>
<path d="M44.3203 51.6136H44.135V52.0929H44.3203V51.6136Z" fill="#A9D0AE"/>
<path d="M44.5103 51.6136H44.325V52.0929H44.5103V51.6136Z" fill="#AAD0AF"/>
<path d="M44.6953 51.6136H44.51V52.0929H44.6953V51.6136Z" fill="#ABD1B0"/>
<path d="M44.8809 51.6136H44.6956V52.0929H44.8809V51.6136Z" fill="#ACD2B0"/>
<path d="M45.0662 51.6136H44.8809V52.0929H45.0662V51.6136Z" fill="#ADD2B1"/>
<path d="M45.2515 51.6136H45.0662V52.0929H45.2515V51.6136Z" fill="#AFD3B2"/>
<path d="M45.4412 51.6136H45.2559V52.0929H45.4412V51.6136Z" fill="#B0D3B3"/>
<path d="M45.6267 51.6136H45.4414V52.0929H45.6267V51.6136Z" fill="#B1D4B4"/>
<path d="M45.8118 51.6136H45.6265V52.0929H45.8118V51.6136Z" fill="#B2D5B5"/>
<path d="M45.9973 51.6136H45.812V52.0929H45.9973V51.6136Z" fill="#B3D5B6"/>
<path d="M46.1827 51.6136H45.9973V52.0929H46.1827V51.6136Z" fill="#B4D6B7"/>
<path d="M46.3723 51.6136H46.187V52.0929H46.3723V51.6136Z" fill="#B6D7B8"/>
<path d="M46.5579 51.6136H46.3726V52.0929H46.5579V51.6136Z" fill="#B7D7B9"/>
<path d="M46.7432 51.6136H46.5579V52.0929H46.7432V51.6136Z" fill="#B8D8BA"/>
<path d="M46.9285 51.6136H46.7432V52.0929H46.9285V51.6136Z" fill="#B9D9BB"/>
<path d="M47.114 51.6136H46.9287V52.0929H47.114V51.6136Z" fill="#BAD9BD"/>
<path d="M47.3037 51.6136H47.1184V52.0929H47.3037V51.6136Z" fill="#BCDABE"/>
<path d="M47.489 51.6136H47.3037V52.0929H47.489V51.6136Z" fill="#BDDBBF"/>
<path d="M47.6743 51.6136H47.489V52.0929H47.6743V51.6136Z" fill="#BEDBC0"/>
<path d="M47.8597 51.6136H47.6743V52.0929H47.8597V51.6136Z" fill="#BFDCC1"/>
<path d="M48.0452 51.6136H47.8599V52.0929H48.0452V51.6136Z" fill="#C0DDC2"/>
<path d="M48.2349 51.6136H48.0496V52.0929H48.2349V51.6136Z" fill="#C2DDC3"/>
<path d="M48.4202 51.6136H48.2349V52.0929H48.4202V51.6136Z" fill="#C3DEC4"/>
<path d="M48.6055 51.6136H48.4202V52.0929H48.6055V51.6136Z" fill="#C4DFC5"/>
<path d="M48.7908 51.6136H48.6055V52.0929H48.7908V51.6136Z" fill="#C5DFC6"/>
<path d="M48.9761 51.6136H48.7908V52.0929H48.9761V51.6136Z" fill="#C7E0C7"/>
<path d="M49.1663 51.6136H48.981V52.0929H49.1663V51.6136Z" fill="#C8E1C8"/>
<path d="M49.3514 51.6136H49.166V52.0929H49.3514V51.6136Z" fill="#C9E2CA"/>
<path d="M49.5369 51.6136H49.3516V52.0929H49.5369V51.6136Z" fill="#CAE2CB"/>
<path d="M49.7222 51.6136H49.5369V52.0929H49.7222V51.6136Z" fill="#CCE3CC"/>
<path d="M49.9075 51.6136H49.7222V52.0929H49.9075V51.6136Z" fill="#CDE4CD"/>
<path d="M50.0974 51.6136H49.9121V52.0929H50.0974V51.6136Z" fill="#CEE4CE"/>
<path d="M50.2825 51.6136H50.0972V52.0929H50.2825V51.6136Z" fill="#D0E5CF"/>
<path d="M50.468 51.6136H50.2827V52.0929H50.468V51.6136Z" fill="#D1E6D0"/>
<path d="M50.6534 51.6136H50.468V52.0929H50.6534V51.6136Z" fill="#D2E6D2"/>
<path d="M50.8387 51.6136H50.6533V52.0929H50.8387V51.6136Z" fill="#D3E7D3"/>
<path d="M51.024 51.6136H50.8386V52.0929H51.024V51.6136Z" fill="#D5E8D4"/>
<path d="M51.2139 51.6136H51.0286V52.0929H51.2139V51.6136Z" fill="#D6E8D5"/>
<path d="M51.3992 51.6136H51.2139V52.0929H51.3992V51.6136Z" fill="#D7E9D6"/>
<path d="M51.5845 51.6136H51.3992V52.0929H51.5845V51.6136Z" fill="#D8EAD8"/>
<path d="M51.7701 51.6136H51.5847V52.0929H51.7701V51.6136Z" fill="#DAEBD9"/>
<path d="M51.9551 51.6136H51.7698V52.0929H51.9551V51.6136Z" fill="#DBEBDA"/>
<path d="M52.1451 51.6136H51.9597V52.0929H52.1451V51.6136Z" fill="#DCECDB"/>
<path d="M52.3304 51.6136H52.145V52.0929H52.3304V51.6136Z" fill="#DEEDDD"/>
<path d="M52.5159 51.6136H52.3306V52.0929H52.5159V51.6136Z" fill="#DFEDDE"/>
<path d="M52.701 51.6136H52.5156V52.0929H52.701V51.6136Z" fill="#E0EEDF"/>
<path d="M52.8865 51.6136H52.7012V52.0929H52.8865V51.6136Z" fill="#E1EFE1"/>
<path d="M53.0762 51.6136H52.8909V52.0929H53.0762V51.6136Z" fill="#E3F0E2"/>
<path d="M53.2615 51.6136H53.0762V52.0929H53.2615V51.6136Z" fill="#E4F0E3"/>
<path d="M53.4471 51.6136H53.2617V52.0929H53.4471V51.6136Z" fill="#E5F1E4"/>
<path d="M53.6321 51.6136H53.4468V52.0929H53.6321V51.6136Z" fill="#E7F2E6"/>
<path d="M53.8177 51.6136H53.6323V52.0929H53.8177V51.6136Z" fill="#E8F2E7"/>
<path d="M54.0076 51.6136H53.8223V52.0929H54.0076V51.6136Z" fill="#E9F3E8"/>
<path d="M54.1929 51.6136H54.0076V52.0929H54.1929V51.6136Z" fill="#EBF4EA"/>
<path d="M54.3782 51.6136H54.1929V52.0929H54.3782V51.6136Z" fill="#ECF5EB"/>
<path d="M54.5635 51.6136H54.3782V52.0929H54.5635V51.6136Z" fill="#EDF5EC"/>
<path d="M54.7488 51.6136H54.5635V52.0929H54.7488V51.6136Z" fill="#EFF6EE"/>
<path d="M54.9388 51.6136H54.7534V52.0929H54.9388V51.6136Z" fill="#F0F7EF"/>
<path d="M55.1241 51.6136H54.9387V52.0929H55.1241V51.6136Z" fill="#F1F8F1"/>
<path d="M55.3094 51.6136H55.124V52.0929H55.3094V51.6136Z" fill="#F3F8F2"/>
<path d="M55.4947 51.6136H55.3093V52.0929H55.4947V51.6136Z" fill="#F4F9F3"/>
<path d="M55.68 51.6136H55.4946V52.0929H55.68V51.6136Z" fill="#F6FAF5"/>
<path d="M55.8699 51.6136H55.6846V52.0929H55.8699V51.6136Z" fill="#F7FBF6"/>
<path d="M56.0552 51.6136H55.8699V52.0929H56.0552V51.6136Z" fill="#F8FBF8"/>
<path d="M56.2405 51.6136H56.0552V52.0929H56.2405V51.6136Z" fill="#FAFCF9"/>
<path d="M56.4261 51.6136H56.2407V52.0929H56.4261V51.6136Z" fill="#FBFDFB"/>
<path d="M56.6111 51.6136H56.4258V52.0929H56.6111V51.6136Z" fill="#FCFDFC"/>
<path d="M56.8011 51.6136H56.6157V52.0929H56.8011V51.6136Z" fill="#FEFEFE"/>
<path d="M56.9866 51.6136H56.8013V52.0929H56.9866V51.6136Z" fill="white"/>
</g>
</g>
<defs>
<clipPath id="clip0_16_1627">
<rect width="78.75" height="16.75" fill="white" transform="translate(5.625 36.6251)"/>
</clipPath>
</defs>
</svg>
