<svg width="90" height="90" viewBox="0 0 90 90" fill="none" xmlns="http://www.w3.org/2000/svg">
<rect width="90" height="90" rx="12.5" fill="#008AFF"/>
<path d="M36.75 42.8894C36.75 34.881 42.7853 28.1415 52.6395 27.8752C52.7184 27.8726 52.7971 27.8856 52.8709 27.9137C52.9446 27.9417 53.0119 27.9841 53.0689 28.0383C53.1258 28.0926 53.1711 28.1576 53.2022 28.2295C53.2334 28.3015 53.2496 28.3788 53.25 28.4571V35.3281C53.2483 35.4793 53.1876 35.6241 53.0806 35.7319C52.9736 35.8398 52.8286 35.9024 52.676 35.9067C48.5717 36.1237 45.7084 38.7734 45.7084 43.9875V61.543C45.7075 61.6976 45.6449 61.8456 45.5342 61.9546C45.4236 62.0637 45.2738 62.1249 45.1178 62.1249H37.3406C37.1845 62.1249 37.0348 62.0637 36.9241 61.9546C36.8135 61.8456 36.7509 61.6976 36.75 61.543V42.8894Z" fill="white"/>
</svg>
