<svg width="90" height="90" viewBox="0 0 90 90" fill="none" xmlns="http://www.w3.org/2000/svg">
<rect width="90" height="90" rx="12.5" fill="#C54329"/>
<g clip-path="url(#clip0_16_1578)">
<path d="M11.4171 33.3499C10.5681 34.4889 9.8606 35.5092 9.8606 35.6041C9.8606 35.6753 12.5019 35.7465 15.7093 35.7465C21.0155 35.7465 21.6051 35.794 21.9353 36.1499C22.1239 36.3872 23.4446 38.6652 24.836 41.2041C26.2274 43.7431 27.6896 46.3296 28.0669 46.9465C28.8452 48.2041 29.8828 48.7974 31.2743 48.7974C32.1704 48.7974 32.2648 48.7262 33.892 46.5431L35.5664 44.2889H34.0807C32.9251 44.2889 32.4298 44.1702 31.9582 43.8143C31.628 43.5533 30.0008 40.9194 28.3499 37.977C26.6991 35.0109 25.0718 32.2821 24.7653 31.9262L24.1993 31.238H18.5864H12.9736L11.4171 33.3499Z" fill="white"/>
<path d="M9.8606 36.6723C9.8606 37.0045 21.3693 57.8384 21.8173 58.3367C22.1003 58.6451 22.5484 58.7638 23.4446 58.7638H24.6945L26.2274 56.7468C27.0764 55.6316 27.7839 54.6824 27.7839 54.6113C27.7839 54.5401 27.2179 54.4926 26.534 54.4926C25.8501 54.4926 25.0954 54.3502 24.8832 54.1841C24.6709 54.0418 22.3362 50.0079 19.6948 45.2384L14.8838 36.5774L12.3604 36.5062C10.8747 36.4587 9.8606 36.5299 9.8606 36.6723Z" fill="white"/>
<path d="M15.9927 36.8147C15.9927 36.8858 17.9737 40.5164 20.4263 44.9062C25.2373 53.6147 25.3553 53.7808 27.3363 53.7808C28.4211 53.7808 28.4211 53.7808 29.8597 51.8825C30.6615 50.8147 31.3218 49.9367 31.3218 49.8892C31.3218 49.8418 30.8502 49.7469 30.2606 49.6994C29.671 49.6282 28.9635 49.3909 28.6569 49.2011C28.3268 48.9875 26.6288 46.2113 24.6949 42.7706L21.2989 36.696H18.6576C17.1954 36.696 15.9927 36.7435 15.9927 36.8147Z" fill="white"/>
<path d="M35.2598 46.4248C34.3872 47.5875 33.6797 48.6079 33.6797 48.679C33.6797 48.7502 34.5759 48.7977 35.6843 48.7977H37.6889L34.1986 53.4723C32.2883 56.0587 30.6139 58.3129 30.5196 58.4553C30.3781 58.6926 31.0384 58.7638 33.4911 58.7638H36.6276L40.3538 53.7807L44.0564 48.7977H46.1553H48.2542L49.9287 46.5435L51.6031 44.2892H44.2215H36.8635L35.2598 46.4248Z" fill="white"/>
<path d="M52.8762 44.6214C52.0036 45.2384 42.8297 57.7672 42.9241 58.218C42.9948 58.6214 43.4429 58.6451 48.9142 58.7163L54.8572 58.7638L56.3901 56.6994L57.9466 54.6113L55.3053 54.4926C53.23 54.3977 52.6876 54.3028 52.7347 54.0418C52.7819 53.8045 55.6355 49.7468 56.2486 49.035C56.3194 48.9638 57.6872 48.8689 59.3381 48.7977L62.3096 48.679L63.701 46.8994C65.9414 43.9807 66.4366 44.2892 59.456 44.2892C54.5035 44.2892 53.2771 44.3604 52.8762 44.6214Z" fill="white"/>
<path d="M63.7483 48.5842C61.1542 52.0486 60.5882 52.9265 60.824 53.2113C61.0363 53.4723 61.7673 53.5435 63.8663 53.5435C65.3756 53.5435 66.6727 53.6147 66.767 53.6858C66.8378 53.7808 66.7434 54.0892 66.5312 54.3977C66.2718 54.8248 65.9416 54.9672 65.3756 54.9672C64.9275 54.9672 64.5738 54.8486 64.5738 54.7299C64.5738 54.5875 63.5597 54.4926 61.9796 54.4926H59.3854L58.0883 56.2248C57.3808 57.1977 56.7913 58.0994 56.7913 58.2418C56.7913 58.8587 57.8525 59.0011 62.3333 59.0011C65.6822 59.0011 67.1679 58.9062 67.7103 58.6689C68.6537 58.2892 74.6203 50.435 74.3844 49.8655C74.2901 49.5808 73.7477 49.5096 71.5308 49.5096C70.0451 49.5096 68.8188 49.4384 68.8188 49.3672C68.8188 48.774 69.3848 48.3231 70.1158 48.3231C70.5639 48.3231 70.9413 48.418 70.9413 48.5604C70.9413 48.7028 71.8846 48.7977 73.276 48.7977H75.6108L77.0258 46.8757C77.8276 45.8079 78.3936 44.8113 78.3228 44.6214C78.2285 44.3604 77.1908 44.2892 72.5921 44.2892H66.9793L63.7483 48.5842Z" fill="white"/>
</g>
<defs>
<clipPath id="clip0_16_1578">
<rect width="70.75" height="28" fill="white" transform="translate(9.625 31.0001)"/>
</clipPath>
</defs>
</svg>
