<svg width="59" height="59" viewBox="0 0 59 59" fill="none" xmlns="http://www.w3.org/2000/svg">
<path d="M32.0999 19.1001C32.0999 18.3201 32.6199 17.8001 33.3999 17.8001C34.1799 17.8001 34.6999 17.2801 34.6999 16.5001V13.9001C34.6999 13.1201 34.1799 12.6001 33.3999 12.6001H25.5999C24.82 12.6001 24.3 13.1201 24.3 13.9001V16.5001C24.3 17.2801 24.82 17.8001 25.5999 17.8001C26.3799 17.8001 26.8999 18.3201 26.8999 19.1001V25.21C26.8999 26.25 26.5099 27.42 25.8599 28.33L16.89 40.5499C16.63 40.9399 16.5 41.4599 16.5 42.1099V43.7999C16.5 45.2299 17.67 46.3999 19.1 46.3999H39.8999C41.3299 46.3999 42.4998 45.2299 42.4998 43.7999V42.1099C42.4998 41.5899 42.3699 41.0699 41.9799 40.5499L33.0099 28.33C32.3599 27.42 31.9699 26.38 31.9699 25.21V19.1001" stroke="black" stroke-opacity="0.45" stroke-width="3" stroke-miterlimit="10" stroke-linecap="round" stroke-linejoin="round"/>
<path d="M19.1016 38.5999H39.9014" stroke="black" stroke-opacity="0.45" stroke-width="3" stroke-miterlimit="10" stroke-linecap="round" stroke-linejoin="round"/>
</svg>
