<svg width="33" height="33" viewBox="0 0 33 33" fill="none" xmlns="http://www.w3.org/2000/svg">
<path d="M16.5 14.2143C25.3366 14.2143 32.5 11.1442 32.5 7.35714C32.5 3.57006 25.3366 0.5 16.5 0.5C7.66345 0.5 0.5 3.57006 0.5 7.35714C0.5 11.1442 7.66345 14.2143 16.5 14.2143ZM31.5896 14.2143C29.393 16.8776 23.4664 18.7857 16.5 18.7857C9.53351 18.7857 3.60688 16.8776 1.41042 14.2143C0.820823 14.9292 0.5 15.6985 0.5 16.5C0.5 20.2872 7.66345 23.3571 16.5 23.3571C25.3366 23.3571 32.5 20.2872 32.5 16.5C32.5 15.6985 32.1791 14.9292 31.5896 14.2143ZM31.5896 23.3571C29.393 26.0205 23.4664 27.9286 16.5 27.9286C9.53351 27.9286 3.60688 26.0205 1.41042 23.3571C0.820823 24.0721 0.5 24.8415 0.5 25.6429C0.5 29.4301 7.66345 32.5 16.5 32.5C25.3366 32.5 32.5 29.4301 32.5 25.6429C32.5 24.8415 32.1791 24.0721 31.5896 23.3571Z" fill="black" fill-opacity="0.45"/>
</svg>
