<svg width="41" height="31" viewBox="0 0 41 31" fill="none" xmlns="http://www.w3.org/2000/svg">
<path d="M36.1088 21.46C36.2246 21.46 36.3394 21.4648 36.4529 21.4744L36.1088 21.46C36.2664 21.46 36.4219 21.469 36.5751 21.4865C36.6501 21.495 36.7249 21.5057 36.7991 21.5184C36.8353 21.5246 36.8704 21.5311 36.9055 21.5381C36.9895 21.5548 37.0737 21.5743 37.157 21.5965C37.1765 21.6017 37.1948 21.6067 37.213 21.6118C39.0286 22.1221 40.3659 23.8621 40.3659 25.9299C40.3659 28.3986 38.4599 30.3999 36.1088 30.3999C33.7576 30.3999 31.8517 28.3986 31.8517 25.9299C31.8517 24.1977 32.7901 22.6956 34.1622 21.9536L34.2272 21.9191C34.2953 21.8838 34.3644 21.8504 34.4345 21.8189L34.1622 21.9536C34.2787 21.8905 34.3984 21.833 34.5209 21.7813C34.5902 21.752 34.6598 21.7248 34.7303 21.6995C34.7635 21.6876 34.7973 21.6759 34.8312 21.6647C34.8907 21.6451 34.9503 21.627 35.0104 21.6102C35.0567 21.5972 35.1032 21.5851 35.1499 21.5738C35.2185 21.5572 35.2888 21.5421 35.3597 21.5289C35.3897 21.5234 35.4195 21.5181 35.4495 21.5132C35.533 21.4996 35.6168 21.4886 35.7013 21.4802C35.726 21.4777 35.7506 21.4755 35.7753 21.4735C35.885 21.4645 35.9964 21.46 36.1088 21.46ZM4.88993 21.46C5.01246 21.46 5.13378 21.4654 5.25369 21.4761L4.88993 21.46C5.04516 21.46 5.19844 21.4687 5.34937 21.4857C5.42815 21.4946 5.50687 21.5058 5.58487 21.5192C5.63168 21.5273 5.67735 21.536 5.72277 21.5455C5.79678 21.5609 5.87026 21.5783 5.943 21.5978C5.98143 21.6081 6.01894 21.6187 6.05624 21.6298C6.16562 21.6624 6.27453 21.7 6.3814 21.742C6.391 21.7457 6.40103 21.7497 6.41105 21.7538C6.5059 21.7919 6.59869 21.8333 6.68972 21.8779C6.70356 21.8847 6.7172 21.8915 6.7308 21.8983C8.16064 22.6199 9.14704 24.154 9.14704 25.9299C9.14704 28.3986 7.24107 30.3999 4.88993 30.3999C2.53879 30.3999 0.632812 28.3986 0.632812 25.9299C0.632812 23.708 2.17675 21.8648 4.1996 21.5184C4.2278 21.5136 4.25655 21.509 4.28539 21.5047C4.29811 21.5028 4.3106 21.501 4.32311 21.4992C4.50835 21.4733 4.69765 21.46 4.88993 21.46ZM27.3728 14.01C28.0341 14.01 28.5701 14.5604 28.5701 15.2393C28.5701 15.4284 28.5285 15.6076 28.4541 15.7677L28.4569 15.7736L22.2154 26.0252C22.1018 26.2678 21.9506 26.4883 21.7695 26.6787C21.3347 27.136 20.7276 27.4199 20.0559 27.4199C18.7334 27.4199 17.6613 26.3192 17.6613 24.9614C17.6613 24.3496 17.879 23.7899 18.2392 23.3597L18.3347 23.2559L18.3255 23.2476L26.5958 14.296C26.81 14.1186 27.079 14.01 27.3728 14.01ZM26.6748 5.07007C32.4459 7.4822 36.632 13.1775 37.1568 19.9598C36.8163 19.8937 36.4664 19.8596 36.1088 19.8596C35.4087 19.8596 34.7377 19.9902 34.1167 20.2296C33.7023 14.804 30.4206 10.2268 25.8636 8.16807C26.3054 7.39329 26.5858 6.50326 26.6569 5.55109L26.6748 5.07007ZM15.1224 4.70739C15.1157 4.82738 15.1123 4.94831 15.1123 5.07007C15.1123 6.07823 15.3463 7.02899 15.7605 7.8657C10.8391 9.74119 7.22988 14.4953 6.77741 20.1914C6.18704 19.9763 5.55146 19.8596 4.88993 19.8596C4.49471 19.8596 4.10875 19.9012 3.73582 19.9806C4.25192 13.1946 8.43577 7.49246 14.2055 5.06105L14.6962 4.86364L15.1224 4.70739ZM20.8935 0.600098C23.0583 0.600098 24.8457 2.29673 25.1155 4.4927C25.1135 4.49179 25.1148 4.4925 25.1155 4.4927L25.1368 4.70686C25.146 4.82666 25.1506 4.94779 25.1506 5.07007C25.1506 5.19167 25.146 5.31214 25.1369 5.43128L25.1506 5.07007C25.1506 5.23296 25.1423 5.39383 25.1262 5.55221C25.1182 5.63061 25.1083 5.70799 25.0965 5.78472C25.0896 5.83025 25.082 5.87536 25.0737 5.92023C25.0609 5.9904 25.0464 6.06015 25.0304 6.12928C25.02 6.17429 25.0091 6.21844 24.9975 6.26233C24.9054 6.61262 24.7737 6.94568 24.6078 7.25585C24.5957 7.27849 24.5834 7.30102 24.5709 7.32342C24.5261 7.40395 24.479 7.48278 24.4296 7.55991C24.4188 7.57673 24.4083 7.5929 24.3977 7.609C23.6296 8.77567 22.3466 9.54004 20.8935 9.54004C19.134 9.54004 17.6238 8.41918 16.9752 6.82037C16.9584 6.7776 16.9417 6.73465 16.9256 6.69137C16.9064 6.64086 16.8886 6.59039 16.8718 6.5395C16.8543 6.48599 16.8374 6.43174 16.8215 6.37705C16.7715 6.20604 16.7312 6.03015 16.7011 5.85057C16.6957 5.81856 16.6906 5.78596 16.6858 5.75324C16.6533 5.53012 16.6364 5.30216 16.6364 5.07007C16.6364 4.8094 16.6577 4.55394 16.6984 4.3055C16.7021 4.28347 16.7058 4.26166 16.7097 4.2399C17.0803 2.16788 18.8125 0.600098 20.8935 0.600098Z" fill="black" fill-opacity="0.45"/>
</svg>
