<svg width="33" height="33" viewBox="0 0 33 33" fill="none" xmlns="http://www.w3.org/2000/svg">
<path d="M22.7448 13.2991C22.8408 14.3055 22.9 15.3663 22.9 16.4991C22.9 16.9234 22.7314 17.3304 22.4314 17.6305C22.1313 17.9305 21.7243 18.0991 21.3 18.0991C20.8757 18.0991 20.4687 17.9305 20.1686 17.6305C19.8686 17.3304 19.7 16.9234 19.7 16.4991C19.7 15.3583 19.6376 14.2943 19.532 13.2991H13.4472C13.2248 15.4271 13.2232 17.5711 13.4408 19.6991H16.5C16.9243 19.6991 17.3313 19.8677 17.6314 20.1677C17.9314 20.4678 18.1 20.8747 18.1 21.2991C18.1 21.7234 17.9314 22.1304 17.6314 22.4305C17.3313 22.7305 16.9243 22.8991 16.5 22.8991H13.9656C14.716 26.2271 15.8888 28.3551 16.5016 29.2991C16.5016 29.2991 17.764 29.3199 17.9832 29.3023C18.4057 29.2749 18.8221 29.4147 19.1424 29.6916C19.4627 29.9685 19.6612 30.3603 19.6952 30.7823C19.726 31.2053 19.5876 31.6233 19.3104 31.9443C19.0332 32.2654 18.6398 32.4632 18.2168 32.4943C18.0664 32.5055 16.5 32.4991 16.5 32.4991C7.6776 32.4991 0.5 25.3215 0.5 16.4991C0.5 7.67508 7.6776 0.499084 16.5 0.499084C25.3224 0.499084 32.5 7.67508 32.5 16.4991C32.5 17.1055 32.4424 17.6975 32.3736 18.2847C32.3101 18.6942 32.0902 19.0632 31.7603 19.3141C31.4304 19.5649 31.016 19.6781 30.6044 19.6298C30.1928 19.5815 29.8159 19.3756 29.5529 19.0552C29.29 18.7349 29.1615 18.325 29.1944 17.9119C29.2504 17.4463 29.3 16.9791 29.3 16.4991C29.3 15.3919 29.1432 14.3231 28.8792 13.2991H22.7448ZM16.4808 3.75668C15.8632 4.72628 14.7208 6.84628 13.9784 10.0991H18.9976C18.252 6.84628 17.1016 4.72628 16.4808 3.75668ZM4.1208 19.6991H10.2312C10.1313 18.6375 10.0806 17.5718 10.0792 16.5055C10.0792 15.4335 10.132 14.3647 10.2328 13.2991H4.1208C3.84516 14.3435 3.70375 15.4189 3.7 16.4991C3.704 17.5793 3.8454 18.6546 4.1208 19.6991ZM5.4312 22.8991C7.01119 25.625 9.53765 27.6755 12.5304 28.6607C11.6967 26.8179 11.0803 24.8844 10.6936 22.8991H5.4312ZM10.6968 10.0991C11.0834 8.11236 11.701 6.17764 12.5368 4.33428C9.54108 5.31879 7.01204 7.37062 5.4312 10.0991H10.6968ZM22.2792 10.0991H27.5672C25.9798 7.35777 23.4356 5.2996 20.4232 4.31988C21.2671 6.16656 21.89 8.10638 22.2792 10.0991Z" fill="black" fill-opacity="0.45"/>
<path d="M24.8586 30.811L20.7786 21.835C20.7113 21.6867 20.6908 21.5215 20.7199 21.3613C20.749 21.2011 20.8262 21.0536 20.9413 20.9385C21.0565 20.8234 21.204 20.7461 21.3642 20.717C21.5243 20.6879 21.6896 20.7084 21.8378 20.7758L30.8138 24.8558C30.9517 24.9181 31.069 25.0183 31.1522 25.1446C31.2354 25.271 31.2811 25.4183 31.2839 25.5696C31.2868 25.7208 31.2467 25.8698 31.1683 25.9992C31.0899 26.1285 30.9764 26.2331 30.841 26.3006L28.0538 27.6926C27.8993 27.7703 27.7741 27.8961 27.697 28.051L26.3034 30.8382C26.2359 30.9735 26.1314 31.087 26.002 31.1654C25.8726 31.2438 25.7237 31.2839 25.5724 31.281C25.4212 31.2782 25.2738 31.2325 25.1475 31.1493C25.0211 31.0661 24.921 30.9488 24.8586 30.811Z" fill="black" fill-opacity="0.45"/>
</svg>
