<svg width="56" height="56" viewBox="0 0 56 56" fill="none" xmlns="http://www.w3.org/2000/svg">
<path d="M8.48848 48.9999H14.2614C15.0835 48.9999 15.7499 48.3334 15.7499 47.5114V34.4633C15.7499 33.6413 15.0834 32.9749 14.2614 32.9749H8.48848C7.66642 32.9749 7 33.6414 7 34.4633V47.5114C7 48.3334 7.66653 48.9999 8.48848 48.9999Z" fill="url(#paint0_linear_907_21299)"/>
<path d="M21.6135 48.9999H27.3864C28.2085 48.9999 28.8749 48.3334 28.8749 47.5114V25.7133C28.8749 24.8913 28.2084 24.2249 27.3864 24.2249H21.6135C20.7914 24.2249 20.125 24.8914 20.125 25.7133V47.5114C20.125 48.3334 20.7915 48.9999 21.6135 48.9999Z" fill="url(#paint1_linear_907_21299)"/>
<path d="M34.7385 48.9999H40.5114C41.3335 48.9999 41.9999 48.3334 41.9999 47.5114V15.2133C41.9999 14.3913 41.3334 13.7249 40.5114 13.7249H34.7385C33.9164 13.7249 33.25 14.3914 33.25 15.2133V47.5114C33.25 48.3334 33.9165 48.9999 34.7385 48.9999Z" fill="url(#paint2_linear_907_21299)"/>
<path d="M47.8635 48.9999H53.6364C54.4585 48.9999 55.1249 48.3334 55.1249 47.5114V4.71334C55.1249 3.89128 54.4584 3.22485 53.6364 3.22485H47.8635C47.0414 3.22485 46.375 3.89138 46.375 4.71334V47.5114C46.375 48.3334 47.0415 48.9999 47.8635 48.9999Z" fill="url(#paint3_linear_907_21299)"/>
<defs>
<linearGradient id="paint0_linear_907_21299" x1="11.3749" y1="32.9749" x2="11.3749" y2="48.9999" gradientUnits="userSpaceOnUse">
<stop stop-color="#009241"/>
<stop offset="1" stop-color="#04AD4F" stop-opacity="0.84"/>
</linearGradient>
<linearGradient id="paint1_linear_907_21299" x1="24.4999" y1="24.2249" x2="24.4999" y2="48.9999" gradientUnits="userSpaceOnUse">
<stop stop-color="#009241"/>
<stop offset="1" stop-color="#04AD4F" stop-opacity="0.84"/>
</linearGradient>
<linearGradient id="paint2_linear_907_21299" x1="37.6249" y1="13.7249" x2="37.6249" y2="48.9999" gradientUnits="userSpaceOnUse">
<stop stop-color="#009241"/>
<stop offset="1" stop-color="#04AD4F" stop-opacity="0.84"/>
</linearGradient>
<linearGradient id="paint3_linear_907_21299" x1="50.7499" y1="3.22485" x2="50.7499" y2="48.9999" gradientUnits="userSpaceOnUse">
<stop stop-color="#009241"/>
<stop offset="1" stop-color="#04AD4F" stop-opacity="0.84"/>
</linearGradient>
</defs>
</svg>
