<svg width="56" height="56" viewBox="0 0 56 56" fill="none" xmlns="http://www.w3.org/2000/svg">
<path fill-rule="evenodd" clip-rule="evenodd" d="M46.2001 23.7534C45.4767 16.3334 41.0901 4.66675 27.5334 4.66675C13.9767 4.66675 9.59007 16.3334 8.86674 23.7534C6.32926 24.7165 4.65551 27.1527 4.66668 29.8667V33.1334C4.66668 36.7417 7.59181 39.6668 11.2001 39.6668C14.8083 39.6668 17.7334 36.7417 17.7334 33.1334V29.8667C17.7217 27.2113 16.1094 24.8251 13.6501 23.8234C14.1167 19.5301 16.4034 9.33342 27.5334 9.33342C38.6634 9.33342 40.9267 19.5301 41.3934 23.8234C38.9391 24.8273 37.3349 27.215 37.3334 29.8667V33.1334C37.3435 35.6417 38.7838 37.9244 41.0434 39.0134C40.0634 40.8568 37.5667 43.3534 31.4301 44.1001C30.2034 42.2374 27.8301 41.5031 25.7658 42.3475C23.7015 43.1919 22.5232 45.3791 22.9537 47.5675C23.3842 49.7559 25.3031 51.3334 27.5334 51.3334C29.2959 51.3237 30.9025 50.3218 31.6867 48.7434C41.6967 47.6001 44.8934 42.4434 45.8967 39.4101C48.6111 38.5308 50.4367 35.9864 50.4001 33.1334V29.8667C50.4113 27.1527 48.7375 24.7165 46.2001 23.7534ZM13.0667 33.1334C13.0667 34.1643 12.231 35.0001 11.2001 35.0001C10.1691 35.0001 9.33341 34.1643 9.33341 33.1334V29.8667C9.33341 29.1999 9.68919 28.5836 10.2667 28.2502C10.8443 27.9167 11.5559 27.9167 12.1334 28.2502C12.711 28.5836 13.0667 29.1999 13.0667 29.8667V33.1334ZM42.0001 29.8667C42.0001 28.8358 42.8358 28.0001 43.8667 28.0001C44.8977 28.0001 45.7334 28.8358 45.7334 29.8667V33.1334C45.7334 34.1643 44.8977 35.0001 43.8667 35.0001C42.8358 35.0001 42.0001 34.1643 42.0001 33.1334V29.8667Z" fill="#009241"/>
</svg>
