<svg width="108" height="133" viewBox="0 0 108 133" fill="none" xmlns="http://www.w3.org/2000/svg">
<g filter="url(#filter0_bd_2081_15341)">
<path d="M48.9845 51.6895L42.9163 50.8489V47.3937C42.9163 46.9632 42.7449 46.5504 42.4397 46.2461C42.1345 45.9417 41.7206 45.7708 41.289 45.7708H15.2523C14.8207 45.7708 14.4068 45.9417 14.1016 46.2461C13.7964 46.5504 13.625 46.9632 13.625 47.3937V68.4916C13.625 68.922 13.7964 69.3348 14.1016 69.6392C14.4068 69.9435 14.8207 70.1145 15.2523 70.1145H19.078C18.7066 70.8728 18.5113 71.7049 18.5068 72.5489C18.5068 74.0554 19.1069 75.5001 20.175 76.5654C21.2432 77.6306 22.6918 78.2291 24.2024 78.2291C25.7129 78.2291 27.1616 77.6306 28.2297 76.5654C29.2979 75.5001 29.8979 74.0554 29.8979 72.5489C29.8934 71.7049 29.6982 70.8728 29.3267 70.1145H40.2296C39.8593 70.8731 39.6652 71.7052 39.6617 72.5489C39.6617 74.0554 40.2618 75.5001 41.3299 76.5654C42.398 77.6306 43.8467 78.2291 45.3572 78.2291C46.8678 78.2291 48.3165 77.6306 49.3846 76.5654C50.4527 75.5001 51.0528 74.0554 51.0528 72.5489C51.0483 71.7049 50.8531 70.8728 50.4816 70.1145H55.9347C56.1638 70.1146 56.3903 70.0664 56.5995 69.9731C56.8087 69.8798 56.9957 69.7435 57.1484 69.5732C57.3011 69.4028 57.416 69.2022 57.4856 68.9845C57.5552 68.7668 57.5779 68.5369 57.5522 68.3098L56.5514 59.4325C56.3321 57.4868 55.4691 55.6695 54.0989 54.2673C52.7286 52.8652 50.9291 51.9582 48.9845 51.6895ZM48.537 54.9045C49.5834 55.0498 50.5667 55.4889 51.3724 56.1705C52.178 56.8521 52.7726 57.7482 53.0869 58.7541H42.9163V54.1255L48.537 54.9045ZM16.8795 49.0166H39.6617V66.8687H16.8795V49.0166ZM26.6433 72.5489C26.6433 73.0303 26.5002 73.501 26.232 73.9013C25.9637 74.3017 25.5825 74.6137 25.1365 74.7979C24.6905 74.9822 24.1997 75.0304 23.7262 74.9365C23.2527 74.8425 22.8177 74.6107 22.4764 74.2702C22.135 73.9298 21.9025 73.496 21.8083 73.0238C21.7142 72.5516 21.7625 72.0621 21.9472 71.6173C22.132 71.1725 22.4449 70.7923 22.8463 70.5248C23.2477 70.2573 23.7196 70.1145 24.2024 70.1145C24.8498 70.1145 25.4706 70.371 25.9284 70.8275C26.3862 71.284 26.6433 71.9032 26.6433 72.5489ZM47.7982 72.5489C47.7982 73.0303 47.655 73.501 47.3868 73.9013C47.1186 74.3017 46.7374 74.6137 46.2914 74.7979C45.8453 74.9822 45.3545 75.0304 44.881 74.9365C44.4075 74.8425 43.9726 74.6107 43.6312 74.2702C43.2899 73.9298 43.0574 73.496 42.9632 73.0238C42.869 72.5516 42.9174 72.0621 43.1021 71.6173C43.2869 71.1725 43.5997 70.7923 44.0011 70.5248C44.4025 70.2573 44.8745 70.1145 45.3572 70.1145C46.0046 70.1145 46.6255 70.371 47.0833 70.8275C47.541 71.284 47.7982 71.9032 47.7982 72.5489ZM42.9163 66.8687V61.9999H53.5637L54.1121 66.8687H42.9163Z" fill="url(#paint0_linear_2081_15341)"/>
</g>
<defs>
<filter id="filter0_bd_2081_15341" x="-36.0814" y="-2.56414" width="143.35" height="137.413" filterUnits="userSpaceOnUse" color-interpolation-filters="sRGB">
<feFlood flood-opacity="0" result="BackgroundImageFix"/>
<feGaussianBlur in="BackgroundImageFix" stdDeviation="1.03555"/>
<feComposite in2="SourceAlpha" operator="in" result="effect1_backgroundBlur_2081_15341"/>
<feColorMatrix in="SourceAlpha" type="matrix" values="0 0 0 0 0 0 0 0 0 0 0 0 0 0 0 0 0 0 127 0" result="hardAlpha"/>
<feOffset dy="4.14219"/>
<feGaussianBlur stdDeviation="24.8532"/>
<feComposite in2="hardAlpha" operator="out"/>
<feColorMatrix type="matrix" values="0 0 0 0 0.890196 0 0 0 0 0.796078 0 0 0 0 0.498039 0 0 0 0.3 0"/>
<feBlend mode="normal" in2="effect1_backgroundBlur_2081_15341" result="effect2_dropShadow_2081_15341"/>
<feBlend mode="normal" in="SourceGraphic" in2="effect2_dropShadow_2081_15341" result="shape"/>
</filter>
<linearGradient id="paint0_linear_2081_15341" x1="35.5937" y1="45.7708" x2="35.5937" y2="78.2291" gradientUnits="userSpaceOnUse">
<stop stop-color="#009241"/>
<stop offset="1" stop-color="#04AD4F" stop-opacity="0.84"/>
</linearGradient>
</defs>
</svg>
