<svg width="67" height="63" viewBox="0 0 67 63" fill="none" xmlns="http://www.w3.org/2000/svg">
<g clip-path="url(#clip0_2081_15299)" filter="url(#filter0_bd_2081_15299)">
<path fill-rule="evenodd" clip-rule="evenodd" d="M42.833 15.9995H48.1661C48.9025 15.9995 49.4994 16.5964 49.4994 17.3328C49.4994 18.0692 48.9025 18.6661 48.1661 18.6661H42.833C42.0966 18.6661 41.4997 18.0692 41.4997 17.3328C41.4997 16.5964 42.0966 15.9995 42.833 15.9995ZM42.833 21.3326H48.1661C48.9025 21.3326 49.4994 21.9296 49.4994 22.6659V23.9992C49.4994 24.7356 48.9025 25.3325 48.1661 25.3325H42.833C42.0966 25.3325 41.4997 24.7356 41.4997 23.9992V22.6659C41.4997 21.9296 42.0966 21.3326 42.833 21.3326ZM42.833 27.9991H48.1661C48.9025 27.9991 49.4994 28.596 49.4994 29.3324C49.4994 30.0687 48.9025 30.6656 48.1661 30.6656H42.833C42.0966 30.6656 41.4997 30.0687 41.4997 29.3324C41.4997 28.596 42.0966 27.9991 42.833 27.9991ZM42.833 33.3323H48.1661C48.9025 33.3323 49.4994 33.9292 49.4994 34.6655C49.4994 35.4019 48.9025 35.9988 48.1661 35.9988H42.833C42.0966 35.9988 41.4997 35.4019 41.4997 34.6655C41.4997 33.9292 42.0966 33.3323 42.833 33.3323ZM42.833 38.6653H48.1661C48.9025 38.6653 49.4994 39.2623 49.4994 39.9987V41.3319C49.4994 42.0683 48.9025 42.6652 48.1661 42.6652H42.833C42.0966 42.6652 41.4997 42.0683 41.4997 41.3319V39.9987C41.4997 39.2623 42.0966 38.6653 42.833 38.6653ZM36.1666 29.3324V21.3326H25.5003C25.4298 21.3326 25.3598 21.3345 25.2903 21.3381C23.1783 21.4467 21.4993 23.1935 21.4993 25.3325C21.4993 27.5416 23.2901 29.3324 25.4991 29.3324H36.1666ZM28.3735 38.6653L26.7533 43.1208C26.5617 43.6477 26.0609 43.9985 25.5003 43.9985H18.8339C17.9086 43.9985 17.2647 43.0791 17.5808 42.2096L21.7208 30.8248C19.9769 29.6224 18.8339 27.6109 18.8339 25.3325C18.8339 21.6507 21.8185 18.6661 25.5003 18.6661H37.4998C38.2362 18.6661 38.8332 19.263 38.8332 19.9994V30.6656C38.8332 31.402 38.2362 31.9989 37.4998 31.9989H36.1666V34.6655C36.1666 36.8745 34.3758 38.6653 32.1668 38.6653H28.3735ZM29.3431 35.9988H32.1668C32.903 35.9988 33.5 35.4019 33.5 34.6655V31.9989H30.7976L29.3431 35.9988ZM27.9602 31.9989H25.5003C25.0479 31.9989 24.606 31.9539 24.1788 31.868L20.7374 41.3319H24.5664L27.9602 31.9989Z" fill="url(#paint0_linear_2081_15299)"/>
</g>
<defs>
<filter id="filter0_bd_2081_15299" x="0.257046" y="-1.80604" width="66.4859" height="66.4859" filterUnits="userSpaceOnUse" color-interpolation-filters="sRGB">
<feFlood flood-opacity="0" result="BackgroundImageFix"/>
<feGaussianBlur in="BackgroundImageFix" stdDeviation="0.359228"/>
<feComposite in2="SourceAlpha" operator="in" result="effect1_backgroundBlur_2081_15299"/>
<feColorMatrix in="SourceAlpha" type="matrix" values="0 0 0 0 0 0 0 0 0 0 0 0 0 0 0 0 0 0 127 0" result="hardAlpha"/>
<feOffset dy="1.43691"/>
<feGaussianBlur stdDeviation="8.62148"/>
<feComposite in2="hardAlpha" operator="out"/>
<feColorMatrix type="matrix" values="0 0 0 0 0.890196 0 0 0 0 0.796078 0 0 0 0 0.498039 0 0 0 0.3 0"/>
<feBlend mode="normal" in2="effect1_backgroundBlur_2081_15299" result="effect2_dropShadow_2081_15299"/>
<feBlend mode="normal" in="SourceGraphic" in2="effect2_dropShadow_2081_15299" result="shape"/>
</filter>
<linearGradient id="paint0_linear_2081_15299" x1="33.4994" y1="15.9995" x2="33.4994" y2="43.9985" gradientUnits="userSpaceOnUse">
<stop stop-color="#009241"/>
<stop offset="1" stop-color="#04AD4F" stop-opacity="0.84"/>
</linearGradient>
<clipPath id="clip0_2081_15299">
<rect width="32" height="32" fill="white" transform="translate(17.5 14)"/>
</clipPath>
</defs>
</svg>
