<svg width="29" height="30" viewBox="0 0 29 30" fill="none" xmlns="http://www.w3.org/2000/svg">
<path d="M25.522 6.62534L19.9779 7.29331C19.7942 7.31557 19.7163 7.54101 19.8471 7.67182L21.4975 9.32226L15.2075 15.6123L12.3742 12.7818C12.1988 12.6064 11.9177 12.6092 11.7452 12.7818L2.79161 21.7381C2.75017 21.78 2.72693 21.8365 2.72693 21.8954C2.72693 21.9543 2.75017 22.0108 2.79161 22.0526L4.04405 23.3106C4.13033 23.3969 4.27227 23.3969 4.35855 23.3106L12.0597 15.6123L14.8902 18.4428C15.0655 18.6154 15.3466 18.6154 15.5192 18.4428L23.0728 10.8948L24.7232 12.5452C24.7528 12.5746 24.7901 12.5952 24.8307 12.6045C24.8714 12.6138 24.9139 12.6115 24.9533 12.5979C24.9928 12.5843 25.0276 12.5598 25.0538 12.5274C25.0801 12.495 25.0967 12.4558 25.1018 12.4144L25.7697 6.87026C25.7892 6.72832 25.6668 6.60586 25.522 6.62534Z" fill="url(#paint0_linear_491_14299)"/>
<defs>
<linearGradient id="paint0_linear_491_14299" x1="14.2494" y1="6.62329" x2="14.2494" y2="23.3753" gradientUnits="userSpaceOnUse">
<stop stop-color="#009241"/>
<stop offset="1" stop-color="#04AD4F" stop-opacity="0.84"/>
</linearGradient>
</defs>
</svg>
