<svg width="1440" height="493" viewBox="0 0 1440 493" fill="none" xmlns="http://www.w3.org/2000/svg">
<path opacity="0.2" d="M1440 211.201V214.179C1394.08 183.667 1347.97 159.566 1300.71 143.022C1091.3 69.71 858.675 144.922 518.59 467.173H514.607C856.607 142.819 1090.96 67.2734 1302.45 141.314C1349.14 157.66 1394.68 181.325 1440 211.201ZM1440 205.231V208.202C1396.15 179.592 1352.1 156.696 1307.02 140.523C1093.38 63.865 855.87 138.097 504.291 467.173H500.293C853.822 135.972 1093.07 61.4183 1308.79 138.822C1353.29 154.788 1396.76 177.236 1440 205.231ZM1440 199.303V202.224C1398.35 175.549 1356.51 153.926 1313.76 138.194C1095.72 57.9694 853.18 131.021 489.442 467.173H485.433C851.161 128.875 1095.43 55.5194 1315.55 136.509C1357.72 152.022 1398.97 173.225 1440 199.303ZM1440 193.367V196.285C1400.71 171.585 1361.22 151.276 1320.94 136.07C1098.34 52.0401 850.643 123.703 474.039 467.173H469.996C848.641 121.515 1098.08 49.5732 1322.77 134.393C1362.45 149.37 1401.33 169.245 1440 193.367ZM1440 187.484V190.36C1403.23 167.679 1366.27 148.754 1328.63 134.168C1103.9 47.0826 854.15 114.435 471.519 455.056C466.825 459.234 462.211 463.113 457.551 467.173H453.462C458.542 462.761 463.573 458.519 468.691 453.963C852.719 112.098 1103.93 44.7102 1330.49 132.506C1367.51 146.852 1403.86 165.361 1440 187.484ZM1440 181.606V184.448C1405.93 163.839 1371.69 146.38 1336.89 132.527C1110.39 42.3699 859.098 104.749 471.505 440.668C460.958 449.807 450.504 458.613 440.119 467.173H435.995C446.812 458.281 457.713 449.076 468.703 439.551C857.724 102.396 1110.47 39.9991 1338.79 130.88C1372.97 144.481 1406.57 161.537 1440 181.606ZM1440 175.741V178.559C1408.85 160.079 1377.54 144.176 1345.78 131.182C1117.33 37.7246 864.446 94.9223 471.499 426.279C454.366 440.727 437.507 454.199 420.794 467.173H416.529C433.719 453.87 451.068 440.014 468.708 425.14C863.124 92.5482 1117.47 35.3505 1347.72 129.545C1378.84 142.274 1409.5 157.783 1440 175.741ZM1440 169.903V172.697C1412 156.416 1383.87 142.161 1355.39 130.178C1124.81 33.1654 870.241 84.9383 471.485 411.891C447.201 431.803 423.377 450.118 399.94 467.173H395.516C419.486 449.795 443.854 431.116 468.72 410.728C868.977 82.5473 1125 30.7913 1357.37 128.555C1385.19 140.261 1412.67 154.123 1440 169.903ZM1440 164.09V166.851C1415.43 152.847 1390.75 140.368 1365.82 129.57C1132.87 28.7057 876.542 74.772 471.473 397.499C439.206 423.208 407.716 446.323 376.952 467.173H372.485C403.788 446.049 435.865 422.509 468.734 396.322C875.341 72.3709 1133.12 26.3384 1367.82 127.962C1392.09 138.469 1416.1 150.568 1440 164.09ZM1440 158.297V161.034C1419.17 149.403 1398.26 138.829 1377.17 129.425C1141.59 24.3743 883.431 64.4033 471.453 383.111C430.137 415.075 390.113 442.865 351.271 467.173H346.611C386.055 442.621 426.738 414.413 468.757 381.91C882.299 61.9904 1141.91 22.0188 1379.21 127.839C1399.62 136.939 1419.85 147.125 1440 158.297ZM1440 152.512V155.232C1423.27 146.083 1406.49 137.594 1389.59 129.832C1151.08 20.2116 891 53.8017 471.439 368.723C419.869 407.431 370.302 439.904 322.6 467.173H317.684C366.062 439.705 416.382 406.82 468.769 367.498C889.934 51.3719 1151.46 17.8578 1391.68 128.263C1407.87 135.704 1423.96 143.803 1440 152.512ZM1440 146.756V149.452C1427.79 142.917 1415.56 136.72 1403.27 130.895C1161.45 16.2548 899.366 42.9284 471.427 354.334C408.021 400.472 347.622 437.575 290.076 467.173H284.846C343.143 437.447 404.412 399.927 468.783 353.087C898.373 40.4784 1161.89 13.9026 1405.4 129.341C1416.97 134.828 1428.5 140.641 1440 146.756ZM1440 141.017V143.687C1432.83 139.927 1425.64 136.276 1418.44 132.753C1172.84 12.5544 908.677 31.7244 471.407 339.947C394.059 394.467 321.137 436.124 252.53 467.175H246.848C316.316 436.099 390.275 394.028 468.803 338.677C907.764 29.2592 1173.35 10.2141 1420.61 131.222C1427.08 134.391 1433.55 137.658 1440 141.017ZM1440 135.301V137.946C1438.46 137.158 1436.93 136.372 1435.39 135.596C1185.45 9.19661 919.138 20.1239 471.396 325.561C376.788 390.1 288.85 435.952 207.343 467.172H200.773C283.352 436.091 372.62 389.881 468.818 324.257C918.299 17.6334 1186.03 6.85626 1437.61 134.082C1438.41 134.486 1439.21 134.896 1440 135.301ZM1440 129.624V132.238C1189.23 6.47155 922.265 13.7811 471.372 311.175C354.312 388.383 247.464 438.004 150.486 467.173H142.436C240.803 438.471 349.485 388.568 468.838 309.847C920.189 12.1495 1188.29 4.18687 1440 129.624ZM1440 123.935V126.521C1189.74 3.82747 922.634 9.29278 471.352 296.785C319.991 393.21 185.731 445.15 67.9248 467.173H55.4227C175.478 446.616 313.079 394.673 468.855 295.435C920.652 7.61557 1188.86 1.53605 1440 123.935ZM1440 118.268V120.847C1190.26 1.19183 923.003 4.77915 471.332 282.397C289.999 393.855 133.203 443.807 0 456.038V453.791C132.5 441.608 288.478 391.906 468.876 281.023C921.113 3.05806 1189.43 -1.11815 1440 118.268ZM1440 112.641V115.198C1190.76 -1.45055 923.365 0.243532 471.306 268.014C289.889 375.473 133.128 423.533 0 435.151V432.927C132.44 421.353 288.4 373.525 468.901 266.608C921.571 -1.52309 1190 -3.7656 1440 112.641ZM1440 107.007V109.575C1191.27 -4.09968 923.72 -4.31566 471.286 253.626C289.783 357.102 133.056 403.265 0 414.261V412.059C132.376 401.103 288.317 355.164 468.922 252.197C922.029 -6.12956 1190.56 -6.4451 1440 107.007ZM1440 101.388V103.945C1191.76 -6.78594 924.062 -8.8968 471.26 239.24C289.673 338.749 132.984 383.012 0 393.384V391.199C132.316 380.867 288.239 336.812 468.948 237.783C922.493 -10.7613 1191.12 -9.13811 1440 101.388ZM1440 95.8065V98.4151C1192.22 -9.40808 924.347 -13.4763 471.234 224.852C289.567 320.404 132.909 362.769 0 372.51V370.348C132.258 360.644 288.161 318.474 468.976 223.37C923.014 -15.4454 1191.72 -11.8244 1440 95.8065ZM528.396 467.173C859.487 149.427 1089.07 73.083 1296.47 143.96C1345.23 160.623 1392.72 185.438 1440 217.167V220.196C1392.13 187.813 1344.08 162.534 1294.77 145.683C1089.44 75.5128 861.575 151.516 532.371 467.173H528.396Z" fill="#B3B3B3"/>
</svg>
