<svg width="16" height="17" viewBox="0 0 16 17" fill="none" xmlns="http://www.w3.org/2000/svg">
<g clip-path="url(#clip0_752_558)">
<path d="M8 0.900024C3.58214 0.900024 0 4.48217 0 8.90002C0 13.3179 3.58214 16.9 8 16.9C12.4179 16.9 16 13.3179 16 8.90002C16 4.48217 12.4179 0.900024 8 0.900024ZM8 15.5429C4.33214 15.5429 1.35714 12.5679 1.35714 8.90002C1.35714 5.23217 4.33214 2.25717 8 2.25717C11.6679 2.25717 14.6429 5.23217 14.6429 8.90002C14.6429 12.5679 11.6679 15.5429 8 15.5429Z" fill="#009241"/>
<path d="M9.99258 5.41197C9.45686 4.94232 8.74972 4.68518 7.99972 4.68518C7.24972 4.68518 6.54258 4.94411 6.00686 5.41197C5.44972 5.89947 5.14258 6.55482 5.14258 7.25661V7.39232C5.14258 7.4709 5.20686 7.53518 5.28544 7.53518H6.14258C6.22115 7.53518 6.28544 7.4709 6.28544 7.39232V7.25661C6.28544 6.46911 7.05508 5.82804 7.99972 5.82804C8.94436 5.82804 9.71401 6.46911 9.71401 7.25661C9.71401 7.81197 9.32115 8.3209 8.71222 8.55482C8.33365 8.69947 8.01222 8.95304 7.78186 9.28518C7.54794 9.62447 7.42651 10.0316 7.42651 10.4441V10.828C7.42651 10.9066 7.49079 10.9709 7.56936 10.9709H8.42651C8.50508 10.9709 8.56937 10.9066 8.56937 10.828V10.4227C8.57029 10.2493 8.62343 10.0803 8.72186 9.93757C8.82029 9.79486 8.95943 9.68513 9.12115 9.62268C10.1747 9.21732 10.8551 8.28875 10.8551 7.25661C10.8569 6.55482 10.5497 5.89947 9.99258 5.41197ZM7.28544 12.828C7.28544 13.0175 7.36069 13.1992 7.49465 13.3331C7.6286 13.4671 7.81028 13.5423 7.99972 13.5423C8.18916 13.5423 8.37084 13.4671 8.5048 13.3331C8.63875 13.1992 8.71401 13.0175 8.71401 12.828C8.71401 12.6386 8.63875 12.4569 8.5048 12.323C8.37084 12.189 8.18916 12.1138 7.99972 12.1138C7.81028 12.1138 7.6286 12.189 7.49465 12.323C7.36069 12.4569 7.28544 12.6386 7.28544 12.828Z" fill="#009241"/>
</g>
<defs>
<clipPath id="clip0_752_558">
<rect width="16" height="16" fill="white" transform="translate(0 0.900024)"/>
</clipPath>
</defs>
</svg>
