<svg width="70" height="48" viewBox="0 0 70 48" fill="none" xmlns="http://www.w3.org/2000/svg">
<g id="Group">
<g id="Group_2">
<g id="Group_3">
<g id="Group_4">
<path id="Vector" d="M30.7147 45.4642L28.8677 42.851H28.7576H26.828V45.4642H24.6113V36.0842H28.7576C31.3164 36.0842 32.9183 37.3844 32.9183 39.4881C32.9183 40.8949 32.1934 41.9268 30.948 42.4492L33.0965 45.4642H30.7147ZM28.6344 37.8529H26.828V41.1221H28.6344C29.9898 41.1221 30.6741 40.506 30.6741 39.4868C30.6728 38.4562 29.9885 37.8529 28.6344 37.8529Z" fill="black" fill-opacity="0.85"/>
<path id="Vector_2" d="M41.2463 43.7225V45.4642H33.8281V36.0842H41.068V37.826H36.0317V39.8629H40.4794V41.5507H36.0317V43.7212H41.2463V43.7225Z" fill="black" fill-opacity="0.85"/>
<path id="Vector_3" d="M44.9965 37.8529H41.9304V36.0842H50.278V37.8529H47.2119V45.4642H44.9952V37.8529H44.9965Z" fill="black" fill-opacity="0.85"/>
<path id="Vector_4" d="M55.448 43.4542H51.0002L50.1521 45.4642H47.8804L52.1498 36.0842H54.339L58.6229 45.4642H56.2961L55.448 43.4542ZM54.7506 41.8062L53.2313 38.2149L51.712 41.8062H54.7506Z" fill="black" fill-opacity="0.85"/>
<path id="Vector_5" d="M59.2666 36.0842H61.4833V45.4642H59.2666V36.0842Z" fill="black" fill-opacity="0.85"/>
<path id="Vector_6" d="M62.52 36.0842H64.7367V43.6955H69.541V45.4642H62.52V36.0842Z" fill="black" fill-opacity="0.85"/>
</g>
</g>
<g id="Group_5">
<g id="Group 1">
<g id="Group_6">
<g id="Group_7">
<path id="Vector_7" d="M61.5173 3.171C61.0743 2.98617 60.6233 2.79878 60.179 2.61395C60.5958 1.01854 62.2698 0.144459 63.9687 0.637331C64.5808 0.815741 65.1642 1.09041 65.7619 1.32145C65.8982 1.37407 66.0319 1.43055 66.1709 1.47419C67.2825 1.82587 67.8134 1.62307 68.6117 0.526946C69.0692 0.711773 69.5359 0.899168 69.9999 1.08528C69.4848 2.77439 67.7269 3.60483 65.9507 3.00928C65.4263 2.83343 64.9217 2.60369 64.4078 2.40089C62.9383 1.82459 62.4507 1.95166 61.5173 3.171Z" fill="#009241"/>
</g>
<g id="Group_8">
<path id="Vector_8" d="M66.9325 4.74854H63.2463V33.7908H66.9325V4.74854Z" fill="#009241"/>
</g>
</g>
<g id="Group_9">
<g id="Group_10">
<path id="Vector_9" d="M31.2902 33.9639C27.2488 33.9639 23.9612 30.7449 23.9612 26.7878V4.74585H27.6473V26.7878C27.6473 28.7554 29.282 30.356 31.2915 30.356C33.3011 30.356 34.9357 28.7554 34.9357 26.7878V15.1963H38.6219V26.7878C38.6205 30.7449 35.3329 33.9639 31.2902 33.9639Z" fill="#009241"/>
</g>
<g id="Group_11">
<path id="Vector_10" d="M42.2633 33.9639C38.222 33.9639 34.9343 30.7449 34.9343 26.7878V15.1963H38.6205V26.7878C38.6205 28.7554 40.2551 30.356 42.2647 30.356C44.2742 30.356 45.9089 28.7554 45.9089 26.7878V15.1963H49.595V26.7878C49.5937 30.7449 46.306 33.9639 42.2633 33.9639Z" fill="#009241"/>
</g>
<g id="Group_12">
<path id="Vector_11" d="M53.238 33.9639C49.1966 33.9639 45.9089 30.7449 45.9089 26.7878V15.1963H49.5951V26.7878C49.5951 28.7554 51.2297 30.356 53.2393 30.356C55.2488 30.356 56.8835 28.7554 56.8835 26.7878V15.1963H60.5696V26.7878C60.567 30.7449 57.2794 33.9639 53.238 33.9639Z" fill="#009241"/>
</g>
</g>
<g id="Group_13">
<g id="Group_14">
<path id="Vector_12" d="M10.3086 47.5C4.62472 47.5 0 42.9717 0 37.4064V18.8928H3.68614V37.4064C3.68614 40.9822 6.65787 43.8907 10.3086 43.8907C13.9607 43.8907 16.9324 40.981 16.9324 37.4064V15.1963H20.6185V37.4064C20.6185 42.9717 15.9938 47.5 10.3086 47.5Z" fill="#009241"/>
</g>
<g id="Group_15">
<path id="Vector_13" d="M10.3085 18.7388C11.8803 18.7388 13.1544 17.4912 13.1544 15.9523C13.1544 14.4133 11.8803 13.1658 10.3085 13.1658C8.73679 13.1658 7.46265 14.4133 7.46265 15.9523C7.46265 17.4912 8.73679 18.7388 10.3085 18.7388Z" fill="#009241"/>
</g>
</g>
</g>
</g>
</g>
</g>
</svg>
