<svg width="40" height="29" viewBox="0 0 40 29" fill="none" xmlns="http://www.w3.org/2000/svg">
<path d="M34.7269 2.95165V19.24H31.5068V9.86996H25.6233V0.5H11.4799V9.86996H5.59643V19.24H0V24.9395H3.229C3.19767 25.1099 3.1804 25.2853 3.1804 25.4647C3.1804 27.0646 4.48205 28.3663 6.08198 28.3663C7.6819 28.3663 8.98355 27.0646 8.98355 25.4647C8.98355 25.2853 8.96636 25.1099 8.93496 24.9395H28.1678C28.1365 25.1099 28.1192 25.2853 28.1192 25.4647C28.1192 27.0646 29.4208 28.3663 31.0207 28.3663C32.6208 28.3663 33.9224 27.0646 33.9224 25.4647C33.9224 25.2853 33.9052 25.1099 33.8738 24.9395H37.1028V20.4282V19.24V5.32799H39.9998V2.95165C40 2.95165 34.7269 2.95165 34.7269 2.95165ZM25.6232 14.6261V12.2463H29.1303V19.24H19.7398V12.2463H23.2469V14.6261H25.6232ZM13.8562 2.87642H17.3633V5.25619H19.7397V2.87642H23.2468V9.87004H19.7397H17.3633H13.8562V2.87642ZM7.97284 12.2464H11.48V14.6262H13.8563V12.2464H17.3634V19.2401H7.97284V12.2464ZM6.08213 25.9899C5.79244 25.9899 5.5569 25.7543 5.5569 25.4647C5.5569 25.1751 5.79252 24.9395 6.08213 24.9395C6.37174 24.9395 6.60737 25.175 6.60737 25.4647C6.60737 25.7543 6.37174 25.9899 6.08213 25.9899ZM31.0211 25.9899C30.7314 25.9899 30.4958 25.7543 30.4958 25.4647C30.4958 25.1751 30.7314 24.9395 31.0211 24.9395C31.3108 24.9395 31.5464 25.175 31.5464 25.4647C31.5464 25.7543 31.3107 25.9899 31.0211 25.9899ZM34.7269 22.5631H2.37634V21.6164H5.59643H17.3634H19.7398H31.5068H34.7269V22.5631Z" fill="#5FFF27"/>
</svg>
