<svg width="36" height="36" viewBox="0 0 36 36" fill="none" xmlns="http://www.w3.org/2000/svg">
<g id="Icon">
<g id="SVGRepo_iconCarrier">
<path id="Vector" d="M23.9852 2.69983H11.4152C5.95519 2.69983 2.7002 5.95483 2.7002 11.4148V23.9698C2.7002 29.4448 5.95519 32.6998 11.4152 32.6998H23.9702C29.4302 32.6998 32.6852 29.4448 32.6852 23.9848V11.4148C32.7002 5.95483 29.4452 2.69983 23.9852 2.69983ZM24.8702 14.2498L16.3652 22.7548C16.1552 22.9648 15.8702 23.0848 15.5702 23.0848C15.2702 23.0848 14.9852 22.9648 14.7752 22.7548L10.5302 18.5098C10.0952 18.0748 10.0952 17.3548 10.5302 16.9198C10.9652 16.4848 11.6852 16.4848 12.1202 16.9198L15.5702 20.3698L23.2802 12.6598C23.7152 12.2248 24.4352 12.2248 24.8702 12.6598C25.3052 13.0948 25.3052 13.7998 24.8702 14.2498Z" fill="#2EA663"/>
</g>
</g>
</svg>
