<svg width="136" height="105" viewBox="0 0 136 105" fill="none" xmlns="http://www.w3.org/2000/svg">
<g filter="url(#filter0_bd_11_1378)">
<path d="M85.3376 28.8496L80.3376 20.0996C80.2275 19.9089 80.0689 19.7506 79.8779 19.6408C79.6869 19.5311 79.4704 19.4737 79.2501 19.4746H56.7501C56.5298 19.4737 56.3132 19.5311 56.1223 19.6408C55.9313 19.7506 55.7727 19.9089 55.6626 20.0996L50.6626 28.8496C50.5527 29.04 50.4949 29.256 50.4951 29.4759C50.4953 29.6957 50.5535 29.9116 50.6638 30.1018C50.7741 30.2919 50.9326 30.4497 51.1233 30.559C51.3141 30.6684 51.5302 30.7255 51.7501 30.7246H53.6251V46.9746C53.6251 47.9692 54.0202 48.923 54.7234 49.6263C55.4267 50.3295 56.3805 50.7246 57.3751 50.7246H78.6251C79.6197 50.7246 80.5735 50.3295 81.2767 49.6263C81.98 48.923 82.3751 47.9692 82.3751 46.9746V30.7246H84.2501C84.4699 30.7255 84.6861 30.6684 84.8768 30.559C85.0676 30.4497 85.2261 30.2919 85.3364 30.1018C85.4467 29.9116 85.5048 29.6957 85.5051 29.4759C85.5053 29.256 85.4475 29.04 85.3376 28.8496ZM57.4751 21.9746H78.5251L82.0938 28.2246H53.9063L57.4751 21.9746ZM79.8751 46.9746C79.8751 47.3061 79.7434 47.6241 79.509 47.8585C79.2746 48.0929 78.9566 48.2246 78.6251 48.2246H57.3751C57.0436 48.2246 56.7256 48.0929 56.4912 47.8585C56.2568 47.6241 56.1251 47.3061 56.1251 46.9746V30.7246H79.8751V46.9746Z" fill="#5FFF27"/>
<path d="M61.7501 43.8496H74.2501C74.5816 43.8496 74.8996 43.7179 75.134 43.4835C75.3684 43.2491 75.5001 42.9311 75.5001 42.5996V35.7246C75.5001 35.3931 75.3684 35.0751 75.134 34.8407C74.8996 34.6063 74.5816 34.4746 74.2501 34.4746H61.7501C61.4186 34.4746 61.1006 34.6063 60.8662 34.8407C60.6318 35.0751 60.5001 35.3931 60.5001 35.7246V42.5996C60.5001 42.9311 60.6318 43.2491 60.8662 43.4835C61.1006 43.7179 61.4186 43.8496 61.7501 43.8496ZM63.0001 36.9746H73.0001V41.3496H63.0001V36.9746Z" fill="#5FFF27"/>
</g>
<defs>
<filter id="filter0_bd_11_1378" x="-1.70634" y="-29.0641" width="137.413" height="137.413" filterUnits="userSpaceOnUse" color-interpolation-filters="sRGB">
<feFlood flood-opacity="0" result="BackgroundImageFix"/>
<feGaussianBlur in="BackgroundImageFix" stdDeviation="1.03555"/>
<feComposite in2="SourceAlpha" operator="in" result="effect1_backgroundBlur_11_1378"/>
<feColorMatrix in="SourceAlpha" type="matrix" values="0 0 0 0 0 0 0 0 0 0 0 0 0 0 0 0 0 0 127 0" result="hardAlpha"/>
<feOffset dy="4.14219"/>
<feGaussianBlur stdDeviation="24.8532"/>
<feComposite in2="hardAlpha" operator="out"/>
<feColorMatrix type="matrix" values="0 0 0 0 0.890196 0 0 0 0 0.796078 0 0 0 0 0.498039 0 0 0 0.3 0"/>
<feBlend mode="normal" in2="effect1_backgroundBlur_11_1378" result="effect2_dropShadow_11_1378"/>
<feBlend mode="normal" in="SourceGraphic" in2="effect2_dropShadow_11_1378" result="shape"/>
</filter>
</defs>
</svg>
