<svg width="34" height="33" viewBox="0 0 34 33" fill="none" xmlns="http://www.w3.org/2000/svg">
<path d="M20.3333 8.16667V14.8333M25.3333 1.5H15.3333C14.8913 1.5 14.4674 1.67559 14.1548 1.98816C13.8423 2.30072 13.6667 2.72464 13.6667 3.16667V6.5C13.6667 6.94203 13.8423 7.36595 14.1548 7.67851C14.4674 7.99107 14.8913 8.16667 15.3333 8.16667H25.3333C25.7754 8.16667 26.1993 7.99107 26.5118 7.67851C26.8244 7.36595 27 6.94203 27 6.5V3.16667C27 2.72464 26.8244 2.30072 26.5118 1.98816C26.1993 1.67559 25.7754 1.5 25.3333 1.5Z" stroke="#5FFF27" stroke-width="3" stroke-linecap="round" stroke-linejoin="round"/>
<path d="M32 24.8333V29.8333C32 30.2753 31.8244 30.6993 31.5118 31.0118C31.1993 31.3244 30.7754 31.5 30.3333 31.5H3.66667C3.22464 31.5 2.80072 31.3244 2.48816 31.0118C2.17559 30.6993 2 30.2753 2 29.8333V24.8333H32ZM30.3333 24.8333V16.5C30.3333 16.058 30.1577 15.634 29.8452 15.3215C29.5326 15.0089 29.1087 14.8333 28.6667 14.8333H5.33333C4.89131 14.8333 4.46738 15.0089 4.15482 15.3215C3.84226 15.634 3.66667 16.058 3.66667 16.5V24.8333H30.3333Z" stroke="#5FFF27" stroke-width="3" stroke-linecap="round" stroke-linejoin="round"/>
</svg>
