<svg width="56" height="42" viewBox="0 0 56 42" fill="none" xmlns="http://www.w3.org/2000/svg">
<g filter="url(#filter0_bd_2_2450)">
<path d="M-0.408936 0.147583H55.8872V42.3696H-0.408936V0.147583Z" fill="#FFB700"/>
<path d="M1.93872 21.2586L9.67944 2.49622H17.4202V40.0211H9.67944L1.93872 21.2586Z" fill="#FF5B00"/>
<path d="M1.93872 2.49622H9.67944V40.0211H1.93872V2.49622Z" fill="#005641"/>
<path d="M19.761 2.49622H53.7762V40.0211H19.761V2.49622Z" fill="#8D2029"/>
<path d="M50.5459 36.0889C50.5459 36.0889 50.8626 36.7311 51.2144 37.0038C51.7422 37.3908 52.7977 37.3556 53.2639 37.8218C53.8005 38.3584 53.22 39.0709 53.22 39.1412L53.2551 39.5107C53.2551 39.5107 52.8857 39.5107 52.7274 39.5371C52.4987 39.5723 52.4107 39.7658 51.9709 39.7394C50.889 39.669 50.9329 38.6838 50.8714 37.8482C50.8186 37.5315 50.6954 37.1093 50.6163 36.7926C50.5547 36.5288 50.5459 36.0889 50.5459 36.0889Z" fill="#FFB700" stroke="black" stroke-width="0.0967589"/>
<path d="M22.9875 36.089C22.9875 36.089 22.6709 36.7311 22.319 37.0038C21.7913 37.3908 20.7357 37.3556 20.2695 37.8219C19.7329 38.3584 20.3135 39.0709 20.3135 39.1413L20.2783 39.5107C20.2783 39.5107 20.6477 39.5107 20.8061 39.5371C21.0348 39.5723 21.1227 39.7658 21.5626 39.7394C22.6445 39.6691 22.6005 38.6839 22.6621 37.8482C22.7149 37.5316 22.838 37.1094 22.9172 36.7927C22.9788 36.5288 22.9875 36.089 22.9875 36.089Z" fill="#FFB700" stroke="black" stroke-width="0.0967589"/>
<path d="M50.5461 6.42786C50.5461 6.42786 50.8628 5.78573 51.2147 5.51305C51.7424 5.12601 52.798 5.1612 53.2642 4.69499C53.8008 4.15842 53.2202 3.44593 53.2202 3.37556L53.2554 3.00611C53.2554 3.00611 52.8859 3.00611 52.7276 2.97972C52.4989 2.94454 52.411 2.75102 51.9711 2.77741C50.8892 2.84778 50.9332 3.83296 50.8716 4.6686C50.8188 4.98527 50.6957 5.40749 50.6165 5.72416C50.5549 5.98804 50.5461 6.42786 50.5461 6.42786Z" fill="#FFB700" stroke="black" stroke-width="0.0967589"/>
<path d="M22.9973 6.42786C22.9973 6.42786 22.6806 5.78573 22.3288 5.51305C21.801 5.12601 20.7455 5.1612 20.2793 4.69499C19.7427 4.15842 20.3232 3.44593 20.3232 3.37556L20.2881 3.00611C20.2881 3.00611 20.6575 3.00611 20.8158 2.97972C21.0445 2.94454 21.1325 2.75102 21.5723 2.77741C22.6543 2.84778 22.6103 3.83296 22.6719 4.6686C22.7246 4.98527 22.8478 5.40749 22.9269 5.72416C22.9885 5.98804 22.9973 6.42786 22.9973 6.42786Z" fill="#FFB700" stroke="black" stroke-width="0.0967589"/>
<path d="M31.5654 30.036L31.7677 29.9128L31.8557 30.036C31.97 30.1943 32.2955 30.1855 32.5066 30.036L32.6737 29.904L32.8145 30.0272C32.9904 30.1943 33.3246 30.1943 33.5446 30.0272C33.6941 29.9216 33.7205 29.9128 33.8084 30.0008C33.87 30.0535 34.0459 30.1063 34.1955 30.1327C34.477 30.1679 34.477 30.1679 34.6353 29.9216C34.776 29.7193 34.7936 29.6401 34.7672 29.4378C34.7427 29.2833 34.7251 29.1277 34.7145 28.9716C34.6969 28.7429 34.7057 28.7429 35.0311 28.6198C35.1927 28.5702 35.3513 28.5115 35.5061 28.4438C35.6381 28.3647 36.0075 27.9336 36.0075 27.8457C36.0075 27.8281 35.8668 27.7929 35.6908 27.7753C34.9871 27.6874 34.8728 27.3179 35.3302 26.6318C36.0603 25.4883 36.5089 24.3888 36.5089 23.6939C36.5089 23.3772 36.5353 23.2716 36.5705 23.342C36.7376 23.6147 36.4385 24.7846 35.9987 25.629L35.8228 25.9633L35.9899 25.9281C36.0779 25.9017 36.6408 25.6642 37.2214 25.4003C38.8223 24.679 39.3677 24.5383 40.4056 24.5823C41.2765 24.6175 41.6371 24.7846 42.2529 25.4267C42.5783 25.7786 42.895 26.0161 43.4667 26.3767C44.6806 27.1332 44.7334 27.2036 44.795 28.1008C44.8566 29.0068 44.8214 29.0596 44.1353 29.2091C43.5459 29.341 43.1765 29.6137 43.0797 30.0008C43.0269 30.1943 43.1413 30.2031 43.4316 30.0096L43.6515 29.8688L43.7482 30.0096C43.8802 30.1943 44.1441 30.1943 44.364 30.0096L44.5399 29.8776L44.7158 30.0096C44.9797 30.2295 45.3316 30.1767 45.4371 29.904C45.4547 29.86 45.5075 29.8688 45.613 29.9656C45.8153 30.1415 46.3167 30.2119 46.3695 30.0711C46.3871 30.0184 46.3519 29.8952 46.2815 29.7897C45.9913 29.3498 45.8945 29.1475 45.8945 28.91C45.8945 28.5758 45.9825 28.4086 46.3695 28.1448C46.8269 27.8105 46.9677 27.3883 46.6158 27.3883C46.4047 27.3883 46.1848 27.1948 46.044 26.8869C45.7626 26.2536 45.8241 25.5499 46.2464 24.3712C46.5701 23.6776 46.7325 22.9198 46.7214 22.1545C46.7214 21.5036 46.7038 21.398 46.563 21.0374C46.4529 20.7866 46.3173 20.5479 46.1584 20.3249L45.9121 19.9994L46.22 19.7355C47.17 18.9527 46.9765 17.6684 45.8329 17.1758C45.4811 17.0175 45.3931 17.0087 44.7774 17.0087C44.4255 17.0087 43.8538 17.0615 43.5459 17.123C43.1327 17.1884 42.7152 17.2237 42.2968 17.2286C41.6987 17.2286 41.5931 17.211 41.3644 17.0879C41.1269 16.9647 41.083 16.9031 41.039 16.6041C41.0347 16.5759 41.0237 16.5491 41.0069 16.5262C40.99 16.5032 40.9678 16.4846 40.9422 16.4721C40.8542 16.4457 40.4848 16.7712 40.432 16.9119C40.3968 16.9911 40.3792 16.9823 40.3001 16.8855C40.2255 16.7897 40.1661 16.6829 40.1242 16.5689C40.0362 16.2786 40.1505 16.0675 40.4936 15.9004L40.7575 15.7772L40.5992 15.6805C40.2825 15.4781 39.7371 15.6189 39.5436 15.9443C39.482 16.0323 39.4205 16.1203 39.4029 16.1203C39.3853 16.1203 39.2797 16.0323 39.1742 15.918C38.7607 15.5133 38.9015 14.9152 39.4556 14.7393C39.7459 14.6425 40.0098 14.7129 40.0626 14.9152C40.1505 15.2055 40.3968 14.8184 40.3529 14.4578C40.3265 14.2203 40.3265 14.2115 40.4936 14.2115C40.7223 14.2115 41.1973 14.5106 41.3556 14.7393C41.5316 15.0119 41.514 15.443 41.3205 15.7596L41.1709 16.0059L41.3732 15.9707C41.6547 15.9092 41.9362 15.7332 42.0769 15.5133C42.1511 15.3733 42.1928 15.2183 42.1989 15.0599C42.205 14.9016 42.1753 14.7439 42.1121 14.5985C41.9802 14.361 41.9978 14.3258 42.1913 14.405C42.5079 14.5369 42.6839 14.6865 42.807 14.9416C42.9302 15.1703 42.939 15.223 42.8774 15.4693C42.8353 15.6193 42.77 15.7618 42.6839 15.8916C42.5783 16.0323 42.5695 16.0587 42.6575 16.0587C42.8158 16.0587 43.1325 15.9092 43.2468 15.7948C43.3084 15.7244 43.3964 15.5749 43.4404 15.443L43.5283 15.223L43.6163 15.399C43.7482 15.6365 44.0121 15.8564 44.3288 15.9971C44.6718 16.1379 44.8126 16.1467 44.6366 16.0147C44.5135 15.9268 44.2848 15.267 44.364 15.2055C44.7436 15.418 45.0903 15.6847 45.3931 15.9971C45.8945 16.4457 46.2112 16.5953 46.6686 16.5953C47.2579 16.5953 47.601 16.0851 47.3371 15.6013C47.1876 15.3198 46.8445 15.2758 46.6334 15.5133C46.5454 15.6277 46.519 15.7156 46.5454 15.8388C46.5806 15.9795 46.5718 15.9971 46.4399 15.9971C46.264 15.9971 45.9297 15.7772 45.3315 15.2758C44.499 14.5593 43.5419 14.0018 42.5079 13.6309C41.8075 13.469 41.0842 13.4303 40.3705 13.5166C39.8075 13.6221 39.139 13.9476 38.7695 14.2906C38.1274 14.9064 38.1186 15.7244 38.7431 16.4721L38.9191 16.6832L38.8047 16.8767C38.7187 17.0154 38.6761 17.1765 38.6824 17.3395C38.6886 17.5025 38.7435 17.66 38.8399 17.7916C38.9279 17.9147 39.0158 18.0115 39.0422 18.0115C39.0598 18.0115 39.0774 17.9323 39.0862 17.8355C39.1038 17.598 39.2093 17.4397 39.3853 17.3781C39.5436 17.3166 39.6492 17.3517 40.3705 17.642C41.1357 17.9411 42.3936 17.9587 43.7306 17.6948C44.3101 17.561 44.9132 17.567 45.4899 17.7124C46.1232 17.9763 46.264 18.6536 45.8066 19.1638C45.6042 19.3925 45.4195 19.4804 44.7774 19.6564C44.2183 19.8038 43.6371 19.8485 43.0621 19.7883C42.1121 19.7795 41.7691 19.7971 41.3908 19.8763C40.9598 19.9642 40.7047 19.973 39.4732 19.9466L38.0394 19.9115L38.1978 20.0346C38.2826 20.1099 38.3738 20.1776 38.4705 20.2369C38.5848 20.2985 38.576 20.3073 38.4177 20.3689C38.3297 20.404 38.1186 20.4304 37.9515 20.4304H37.6612L37.626 20.6767C37.6023 20.7928 37.6023 20.9125 37.626 21.0286C37.6612 21.1165 37.6436 21.1341 37.5556 21.099C37.4941 21.0726 37.3269 21.0286 37.1774 21.0022C37.0265 20.9698 36.8792 20.9227 36.7376 20.8615C36.5705 20.7735 36.5529 20.7735 36.4913 20.8878C36.4385 20.9758 35.9459 21.3452 35.8756 21.3452C35.8438 21.117 35.7786 20.8948 35.682 20.6855C35.5941 20.5008 35.5149 20.2897 35.4885 20.2281C35.4621 20.1314 35.4445 20.1226 35.4006 20.2017C35.3742 20.2457 35.339 20.3777 35.3126 20.4832C35.2818 20.6257 35.2283 20.7623 35.1543 20.8878L35.0223 21.0814L34.9344 20.9142C34.8464 20.7383 34.7057 20.5448 34.6529 20.5448C34.6353 20.5448 34.6089 20.5976 34.5913 20.6767C34.5473 20.8175 34.2043 21.2309 34.1163 21.2309C34.0899 21.2309 34.0635 21.1165 34.0635 20.967C34.0635 20.8351 34.0371 20.7119 34.002 20.7119C33.9668 20.7119 33.9404 20.7559 33.9404 20.7999C33.9404 20.9054 33.6501 21.2397 33.5446 21.2397C33.5094 21.2397 33.439 21.2749 33.395 21.3277C33.2895 21.442 33.2015 21.4244 33.2455 21.2925C33.2578 21.1798 33.2458 21.0658 33.2103 20.9582L33.1223 20.6767C33.1047 20.6328 32.9992 20.6503 32.7705 20.7207C32.4186 20.8351 32.2955 20.8087 32.4802 20.6679C32.5506 20.6152 32.6561 20.4304 32.7089 20.2633C32.7705 20.0874 32.8584 19.9378 32.9024 19.9203C32.964 19.9027 32.964 19.9203 32.8848 20.0258C32.8339 20.0927 32.8006 20.1714 32.7881 20.2545C32.7881 20.2985 32.7441 20.4128 32.7001 20.5096C32.6473 20.5976 32.6121 20.6855 32.6209 20.6943C32.6297 20.7031 32.7705 20.6503 32.9288 20.58L33.2103 20.4392V20.5624C33.2103 20.6328 33.2455 20.8087 33.2895 20.9582L33.3686 21.2221L33.5621 21.1341C33.7557 21.0462 33.9404 20.7295 33.9404 20.4744C33.9404 20.3513 34.0108 20.3689 34.0459 20.5008C34.0459 20.536 34.0987 20.6855 34.1339 20.8263L34.2219 21.0726L34.3538 20.9142C34.433 20.8263 34.5209 20.6503 34.5561 20.536C34.6265 20.3249 34.732 20.2281 34.732 20.3865C34.732 20.492 35.0311 20.8966 35.0839 20.8615C35.1191 20.8439 35.1719 20.6943 35.2158 20.5272C35.3038 20.1753 35.4357 19.9466 35.5237 19.9994C35.5589 20.017 35.5677 20.0522 35.5501 20.0874C35.5325 20.105 35.6029 20.3337 35.7084 20.58C35.7849 20.7646 35.8611 20.9493 35.9371 21.1341C35.9723 21.2221 36.0075 21.2221 36.2274 21.0198C36.3594 20.8966 36.4913 20.7647 36.5001 20.7207C36.5265 20.6503 36.5529 20.6591 36.676 20.7383C36.9354 20.8753 37.2195 20.9591 37.5117 20.9846C37.5293 20.967 37.5469 20.8087 37.5469 20.6328L37.5556 20.3073L37.7316 20.3425C37.8195 20.3689 38.0219 20.3689 38.1714 20.3425L38.4353 20.3073L38.1978 20.1314C38.0658 20.0434 37.9339 19.929 37.8987 19.8763C37.8723 19.8235 37.7492 19.7707 37.6172 19.7619C37.2566 19.7267 36.6144 19.3749 36.6144 19.199C36.6144 19.1638 36.7024 19.2253 36.808 19.3221C37.0543 19.542 37.3885 19.674 37.6876 19.674H37.8987L37.7668 19.498C37.6727 19.3616 37.6125 19.2049 37.5908 19.0406C37.5732 18.7767 37.5469 18.7416 37.2742 18.5568C37.116 18.4448 36.9688 18.3182 36.8344 18.1786L36.6848 18.0115L36.6057 18.2138C36.5617 18.3281 36.5177 18.4161 36.4913 18.4161C36.4737 18.4161 36.3857 18.3457 36.3154 18.2666C36.2659 18.2092 36.2062 18.1615 36.1394 18.1258C36.1131 18.1258 36.0515 18.2314 35.9811 18.3633L35.858 18.6008L35.77 18.4689C35.6918 18.361 35.6034 18.2609 35.5061 18.1698C35.4006 18.0818 35.3566 18.0115 35.3918 18.0115C35.427 18.0115 35.5413 18.0994 35.6557 18.2138L35.8492 18.4161L35.9371 18.2666C35.9879 18.1629 36.0034 18.0455 35.9811 17.9323C35.9459 17.774 35.9547 17.7652 36.0075 17.8707C36.0834 17.97 36.1721 18.0588 36.2714 18.1346L36.4649 18.2929L36.5969 18.0554C36.7288 17.8092 36.7288 17.8092 36.7816 17.9587C36.8695 18.1434 37.4413 18.6184 37.9251 18.8911C38.0131 18.9351 37.9779 18.7943 37.8371 18.4513C37.7949 18.3386 37.7711 18.2197 37.7668 18.0994C37.7668 17.9411 37.7228 17.8707 37.5205 17.7124C37.3947 17.632 37.2894 17.5233 37.2131 17.395C37.1367 17.2667 37.0914 17.1224 37.0807 16.9735C37.0543 16.824 37.0015 16.6656 36.9575 16.6129C36.9047 16.5249 36.8871 16.5777 36.9047 16.8416C36.9223 17.0263 36.8959 17.255 36.8519 17.3517L36.7816 17.5277L36.7288 17.3781C36.6936 17.299 36.5529 17.1582 36.4209 17.0703C36.289 16.9823 36.1922 16.8943 36.2098 16.8767C36.2274 16.8592 36.3682 16.9383 36.5177 17.0527C36.7552 17.2374 36.7992 17.255 36.8344 17.1758C36.8695 17.0879 36.8344 16.6832 36.764 16.4017C36.7288 16.261 36.7288 16.261 36.9047 16.4369C37.0279 16.5601 37.0982 16.7184 37.1598 16.9823C37.2302 17.3166 37.2654 17.3781 37.5732 17.6508C37.758 17.8179 37.9251 17.9411 37.9339 17.9323C37.9515 17.9147 37.9691 17.4925 37.9867 16.9823C38.0219 16.0059 37.9867 15.7684 37.7492 15.4693L37.626 15.311L37.8195 15.1087C38.0363 14.9013 38.1812 14.6301 38.233 14.3346L38.2681 14.0971L38.057 14.2994C37.8811 14.4666 37.7931 14.5018 37.5908 14.5018C37.3885 14.5018 37.3094 14.4666 37.1774 14.3258C36.9719 14.128 36.7213 13.9831 36.4473 13.9036C36.3418 13.8684 36.3066 13.886 36.3066 13.9564C36.3066 14.0092 36.2538 14.1499 36.1834 14.2818L36.0603 14.5106L35.7964 14.2467C35.6293 14.0971 35.4445 13.9652 35.295 13.93C34.9344 13.842 34.9168 13.842 34.9168 14.1147C34.9168 14.5281 34.7408 14.6073 34.4242 14.3346C34.1779 14.1235 33.9844 14.0707 33.5182 14.1323L33.1663 14.1675L33.2279 14.3258C33.2807 14.4578 33.2719 14.5193 33.1575 14.6689C32.9728 14.9152 32.7353 15.0207 32.3659 15.0207C32.1899 15.0207 31.9788 15.0559 31.8909 15.0999C31.8029 15.1439 31.5742 15.1879 31.3895 15.2055C31.2135 15.223 31.0112 15.2582 30.9497 15.2758C30.8617 15.311 30.8617 15.2758 30.8881 15.0823C30.9321 14.7832 30.7122 14.5545 30.3867 14.5545C29.9557 14.5545 29.7622 14.9416 29.9293 15.4518C29.9635 15.5618 29.9929 15.6734 30.0172 15.786C30.1328 16.006 30.2878 16.2028 30.4747 16.3666C30.7034 16.5953 30.9145 16.8328 30.9497 16.8943C31.0205 16.9861 31.1105 17.0611 31.2135 17.1142L31.4071 17.2198L31.3807 17.0087C31.3543 16.78 31.3983 16.7448 31.5214 16.9119C31.5654 16.9647 31.6797 17.0615 31.7677 17.1142C31.9172 17.2022 31.9436 17.2022 31.9436 17.1318C31.9436 17.0791 31.97 16.9647 32.0052 16.8767L32.0668 16.7184L32.1811 16.9383C32.2427 17.0615 32.445 17.3342 32.6297 17.5541C32.9904 17.9675 33.2191 18.4337 33.1047 18.5392C33.052 18.5832 32.9288 18.5832 32.6649 18.5304C32.4714 18.4953 32.2251 18.4689 32.1196 18.4865C31.9172 18.5129 31.8996 18.4865 32.0316 18.3281C32.1635 18.1522 32.1371 18.1258 31.8733 18.1258C31.5654 18.1258 30.8001 17.9763 30.501 17.8619C30.2196 17.7476 30.1492 17.774 30.0612 18.0466L29.9117 18.5392L29.8237 18.8031L30.1404 18.7767C30.3036 18.7597 30.4654 18.7303 30.6242 18.6888C30.6865 18.668 30.7521 18.6591 30.8177 18.6624C30.8353 18.6712 30.7913 18.7767 30.7297 18.8999L30.6066 19.111L30.8001 19.0758C30.9057 19.0494 31.064 18.9966 31.152 18.9527C31.3103 18.8823 31.3279 18.8823 31.451 19.0846C31.6006 19.3221 31.7149 19.3133 31.7413 19.0582C31.7677 18.7943 31.8557 18.8295 32.0228 19.1814C32.1811 19.5156 32.3395 19.6388 32.3746 19.4453C32.3834 19.3749 32.4626 19.2693 32.5594 19.199C32.7529 19.067 32.8936 19.111 32.9728 19.3133C33.0608 19.5332 32.8672 19.7531 32.3219 20.0874C31.8168 20.3662 31.3822 20.7569 31.0514 21.2296C30.7206 21.7022 30.5022 22.2442 30.4131 22.8142C30.2459 23.8522 30.7649 24.9253 31.7853 25.7082C32.2779 26.0776 33.0608 26.4647 33.008 26.3239C32.7969 25.6818 32.8057 24.4767 33.0168 24.2744C33.052 24.2392 33.0432 24.3624 32.9904 24.5471C32.8145 25.242 32.9024 25.7874 33.3422 27.0716C33.7293 28.2327 33.6765 28.7341 33.1135 29.0596C32.9376 29.1651 32.8233 29.1827 32.3395 29.1739C31.8117 29.1739 31.7501 29.1739 31.583 29.3147C31.3809 29.5211 31.2486 29.7856 31.2047 30.0711C31.2047 30.1855 31.3279 30.1679 31.5566 30.036H31.5654Z" fill="#FFB700" stroke="black" stroke-width="0.492591"/>
<path d="M40.0966 30.0093L40.3165 29.8686L40.466 30.0093C40.6595 30.194 40.897 30.1852 41.0818 30.0005C41.1697 29.9126 41.2401 29.8598 41.2489 29.8686L41.3281 30.0093C41.372 30.0885 41.4688 30.1237 41.6447 30.1413C41.847 30.1501 41.9086 30.1413 41.9966 30.0181L42.0845 29.8686L42.3044 30.0093C42.9026 30.3964 43.2193 29.9917 42.9466 29.1913C42.8146 28.7866 42.8938 28.5579 43.3248 28.0478C43.5095 27.8278 43.6591 27.5903 43.6591 27.52C43.6591 27.4232 43.6239 27.4056 43.3776 27.4144C43.1489 27.4144 43.0785 27.388 42.9554 27.2561C42.7531 27.0362 42.7706 26.7811 42.9906 26.4996L43.1665 26.2797L42.8498 26.0686C42.597 25.8819 42.3615 25.6729 42.1461 25.4441C41.9541 25.2175 41.7193 25.0309 41.4552 24.8951C41.1911 24.7592 40.9028 24.6768 40.6068 24.6524L40.1933 24.6084V24.9251C40.1933 25.3209 40.3869 25.7079 40.897 26.3589C41.4776 27.0978 41.5128 27.2121 41.5392 28.1797L41.5656 28.9977L41.3896 29.1561C41.2401 29.2968 41.1785 29.3232 40.6859 29.3496C40.2197 29.376 40.1142 29.4024 39.9822 29.5255C39.8278 29.6381 39.7211 29.8044 39.6832 29.9917C39.6568 30.1237 39.6656 30.1501 39.7623 30.1501C39.8239 30.1501 39.9734 30.0885 40.0966 30.0093ZM27.5883 27.8982C27.6415 27.8201 27.6719 27.7287 27.6762 27.6343C27.6762 27.5464 27.729 27.5112 27.9577 27.476L28.2304 27.4408L28.0545 27.2913C27.8346 27.1154 27.8082 26.9834 28.0017 26.9834C28.1952 26.9834 28.5119 26.7899 28.5647 26.6404C28.5911 26.57 28.5647 26.482 28.5295 26.438C28.4239 26.3149 28.2216 26.3325 28.1864 26.4732C28.1425 26.614 28.0809 26.614 27.9225 26.4732C27.7026 26.2533 27.6938 25.8047 27.9225 25.5408C28.0193 25.4177 28.0193 25.4177 27.8874 25.2857C27.7466 25.145 27.6411 24.8811 27.7114 24.8107C27.729 24.7931 27.8434 24.8107 27.9577 24.8547C28.1337 24.9075 28.1952 24.9075 28.2656 24.8547C28.4679 24.6876 28.248 24.4765 27.9137 24.5293C27.773 24.5468 27.7202 24.5292 27.7026 24.4589C27.685 24.4061 27.5707 24.3357 27.4388 24.3005C27.2013 24.239 27.2012 24.239 27.2012 24.4061C27.2012 24.582 27.0957 24.6172 26.9022 24.5029C26.7438 24.4149 26.5943 24.4853 26.5943 24.6524C26.5943 24.8107 26.7438 24.8811 27.0341 24.8635C27.2452 24.8547 27.254 25.013 27.0517 25.2417L26.9022 25.4177L27.0165 25.5848C27.1925 25.8311 27.1749 26.2445 26.9901 26.4556L26.8406 26.614L26.7438 26.482C26.6031 26.3061 26.4184 26.3149 26.3656 26.5084C26.3392 26.6316 26.3656 26.6843 26.5239 26.8251C26.6295 26.913 26.7878 26.9834 26.867 26.9834C27.0693 26.9834 27.0605 27.1505 26.8494 27.3089L26.6735 27.4408L26.9374 27.476C27.0781 27.5024 27.2012 27.5376 27.2012 27.564C27.2012 27.6783 27.3772 28.0214 27.43 28.0214C27.4651 28.0214 27.5355 27.9598 27.5883 27.8894V27.8982Z" fill="#FFB700" stroke="black" stroke-width="0.492591"/>
<path d="M30.9488 26.4382C31.1863 26.3502 31.6965 25.9104 31.6965 25.8136C31.6965 25.7784 31.5557 25.6201 31.3798 25.4618C31.0279 25.1451 30.6321 24.591 30.5266 24.2743C30.4738 24.0984 30.2187 23.8169 29.4974 23.1132L28.5386 22.1896L28.2659 22.2599C28.1076 22.2951 27.9229 22.3303 27.8525 22.3303C27.7205 22.3303 27.7205 22.3303 27.8965 22.4711L28.0724 22.6118L28.3363 22.4711C28.5738 22.3303 28.5826 22.3303 28.609 22.4447C28.6266 22.5062 28.5914 22.6206 28.521 22.6998C28.4594 22.7789 28.4242 22.8757 28.433 22.9021C28.4594 22.9285 28.3979 22.99 28.3011 23.0428C28.1252 23.1308 27.9932 23.4211 28.134 23.4211C28.2659 23.4211 28.5474 23.0692 28.5122 22.9548C28.4946 22.8933 28.5122 22.8317 28.5298 22.8141C28.6442 22.7525 28.6354 23.0252 28.5298 23.166C28.4594 23.2363 28.4242 23.3243 28.4418 23.3595C28.4594 23.3859 28.3979 23.4474 28.3011 23.5002C28.1252 23.5882 27.9932 23.8785 28.134 23.8785C28.2747 23.8785 28.5474 23.5442 28.521 23.4211C28.5034 23.3595 28.5034 23.2891 28.5298 23.2715C28.609 23.2363 28.6442 23.4474 28.5826 23.553C28.5664 23.5827 28.5579 23.616 28.5579 23.6498C28.5579 23.6836 28.5664 23.7168 28.5826 23.7465C28.6442 23.8609 28.5826 24.072 28.4682 24.1423C28.4242 24.1687 28.4506 24.2303 28.5738 24.3183C28.7497 24.4414 28.7497 24.459 28.7497 25.022C28.7497 25.497 28.7673 25.6201 28.8553 25.6993C28.9432 25.7872 28.9608 25.7872 28.9608 25.6993C28.9608 25.6113 29.1367 25.4882 29.2687 25.4882C29.3127 25.4882 29.5678 25.7081 29.8404 25.972C30.1131 26.2359 30.4034 26.4734 30.4826 26.4821L30.6761 26.5173C30.7025 26.5173 30.8256 26.4909 30.9488 26.4294V26.4382ZM28.0196 24.1423C28.0196 23.9928 27.703 23.8257 27.3247 23.7905C27.0168 23.7465 27.0168 23.7553 27.0168 23.9048C27.0168 24.028 27.0608 24.0808 27.2807 24.1687C27.615 24.3183 28.0196 24.3007 28.0196 24.1423Z" fill="#FFB700" stroke="black" stroke-width="0.492591"/>
<path d="M28.3637 24.1243C28.522 23.9835 28.5924 23.8252 28.4956 23.8252C28.3901 23.8252 28.1086 24.0715 28.1086 24.1771C28.1086 24.3178 28.1614 24.309 28.3725 24.1243H28.3637ZM28.0382 23.6757C28.047 23.5877 27.9943 23.5349 27.8359 23.4558C27.4841 23.3062 27.0794 23.2271 26.9827 23.3062C26.798 23.4558 26.9211 23.6493 27.2114 23.6845C27.3345 23.6933 27.4929 23.7285 27.572 23.7636C27.8007 23.8516 28.0119 23.8076 28.0382 23.6757ZM28.0382 23.2095C28.0558 23.0951 27.9767 23.0511 27.3345 22.8224C26.8507 22.6465 26.6396 22.7345 26.798 23.0248C26.8507 23.1215 26.9387 23.1655 27.141 23.2007C27.2906 23.2183 27.4929 23.2623 27.5896 23.2974C27.8535 23.3854 28.0119 23.3502 28.0294 23.2095H28.0382ZM28.3549 22.7785C28.4517 22.6817 28.5308 22.5673 28.5308 22.5146C28.5308 22.3826 28.1526 22.6289 28.0998 22.8048C28.047 23.0072 28.1438 22.9984 28.3637 22.7785H28.3549ZM28.0382 22.7521C28.0558 22.6113 27.8271 22.4882 27.3697 22.3914C27.0267 22.3123 26.8771 22.3562 26.9035 22.5146C26.9211 22.6025 27.0355 22.6641 27.3433 22.7609C27.8623 22.9192 28.0119 22.9192 28.0382 22.7521ZM28.4781 22.1011C29.0762 21.8373 29.1202 21.1775 28.566 21.0016C28.3373 20.9312 28.1966 20.9752 28.1086 21.1248C28.0382 21.2479 28.0822 21.459 28.1702 21.459C28.2054 21.459 28.2318 21.503 28.2318 21.547C28.2318 21.7845 27.3345 21.8812 26.9651 21.6965C26.8332 21.6349 26.7892 21.459 26.8859 21.459C26.9739 21.459 27.0267 21.2831 26.9827 21.1687C26.9299 20.9928 26.754 20.94 26.5165 21.0104C25.9623 21.1511 25.9799 21.8021 26.5429 22.066C27.1657 22.2946 27.8473 22.3069 28.4781 22.1011Z" fill="#FFB700" stroke="black" stroke-width="0.492591"/>
<path d="M28.1184 21.5912C28.1536 21.556 28.136 21.5032 28.0832 21.468C27.9601 21.3713 27.9689 21.2217 28.1008 21.0546C28.2064 20.9315 28.2152 20.7379 28.2504 18.8467C28.312 15.5833 28.5582 13.1292 28.8749 12.531C29.0069 12.3023 28.9893 12.3023 28.655 12.531C28.2165 12.8366 27.8624 13.2481 27.6258 13.7273C27.0805 14.7389 26.8958 16.1023 26.8958 19.0227C26.8958 20.6764 26.9045 20.8963 27.0013 21.0458C27.0893 21.2041 27.0893 21.2569 27.0365 21.4152C26.9925 21.512 26.9749 21.6176 26.9925 21.6352C27.1157 21.7495 27.9953 21.7231 28.1184 21.5912ZM33.0531 18.4773C33.0795 18.4509 33.0355 18.3014 32.9652 18.1606C32.8596 17.9319 32.8156 17.8967 32.6661 17.8967C31.9628 17.8356 31.2768 17.6447 30.643 17.3338C30.1944 17.1315 30.0272 17.0875 29.9832 17.1403C29.8425 17.2722 30.0712 17.5801 30.4231 17.7472C30.9408 17.9338 31.4832 18.0434 32.0328 18.0727C32.2703 18.0727 32.2791 18.0727 32.1383 18.275L32.0504 18.4157H32.3143L32.7541 18.4685C33.018 18.5301 33.018 18.5301 33.0531 18.4773Z" fill="#FFB700" stroke="black" stroke-width="0.492591"/>
<path d="M35.8311 19.946C35.8311 19.8581 35.5761 19.6382 35.3298 19.4886C35.1274 19.3743 35.0923 19.3655 35.0923 19.4622C35.0923 19.603 34.9691 19.9636 34.9163 19.9636C34.8899 19.9636 34.846 19.8933 34.8284 19.8141C34.802 19.7261 34.7052 19.5502 34.6085 19.4359L34.4325 19.2159L34.3094 19.4183C34.1862 19.6118 33.9663 19.7965 33.8696 19.7965C33.852 19.7965 33.8432 19.6909 33.8696 19.5766C33.8784 19.4359 33.8696 19.3303 33.8256 19.3127C33.7904 19.2863 33.7552 19.2951 33.7552 19.3303C33.7552 19.4007 33.4562 19.7349 33.4034 19.7349C33.3682 19.7349 33.333 19.647 33.3154 19.5238L33.245 19.1016C33.2275 18.996 33.2714 19.0664 33.333 19.2775L33.4737 19.6382L33.6145 19.4183C33.6782 19.3274 33.7258 19.2262 33.7552 19.1192C33.7552 19.0752 33.7816 19.0576 33.8168 19.0752C33.852 19.0928 33.896 19.2423 33.9136 19.4007L33.9575 19.6997L34.1159 19.5238C34.1987 19.4356 34.2752 19.3415 34.3446 19.2423C34.4062 19.1368 34.4149 19.1368 34.5469 19.2423C34.6173 19.3127 34.7316 19.4622 34.802 19.5854C34.8724 19.7085 34.9339 19.7965 34.9427 19.7877L34.9955 19.5062L35.0307 19.2423C35.0395 19.1984 35.5057 19.5062 35.6816 19.6558C35.7872 19.7525 35.8927 19.8229 35.9103 19.8053C35.9279 19.7877 35.9455 19.647 35.9455 19.4798C35.9455 19.2335 35.9191 19.1632 35.7696 19.0312C35.5936 18.8729 35.5936 18.8729 35.5233 18.9872C35.4353 19.1368 35.3386 19.1368 35.3386 18.9872C35.3386 18.8817 35.0043 18.4683 34.9251 18.4683C34.8987 18.4683 34.8284 18.5562 34.7668 18.6706C34.7052 18.7849 34.6349 18.8729 34.6173 18.8729C34.5293 18.8729 34.0631 18.3451 34.0631 18.2572C34.0631 18.1868 34.0983 18.2044 34.1775 18.3275C34.2561 18.4431 34.3476 18.5493 34.4501 18.6442C34.6261 18.8025 34.6964 18.7673 34.7668 18.4595C34.7932 18.3715 34.8284 18.3011 34.8548 18.3011C34.9251 18.3011 35.3298 18.7322 35.3825 18.8729L35.4441 19.0136L35.4881 18.8553C35.5409 18.6618 35.6024 18.6618 35.6904 18.8377C35.7256 18.9081 35.9015 19.0664 36.0774 19.172L36.4029 19.3831L36.4645 19.172C36.4997 19.0576 36.5524 18.996 36.57 19.0312C36.6052 19.0752 36.5173 19.4271 36.4557 19.4974C36.4557 19.5062 36.3413 19.4447 36.227 19.3655L36.0071 19.2072V19.4886C36.0071 19.6382 35.9895 19.8229 35.9719 19.8933C35.9279 20.034 35.8224 20.0692 35.8224 19.946H35.8311ZM34.2038 17.7118C33.8168 17.3951 33.764 17.3248 33.764 17.1664L33.7728 17.0081L33.7992 17.1576C33.8168 17.2456 33.9224 17.3863 34.0455 17.4919L34.2742 17.6678L34.4062 17.5095C34.4853 17.4215 34.5469 17.316 34.5469 17.2808C34.5469 17.1752 34.5645 17.184 34.8284 17.4127C35.0571 17.615 35.0659 17.615 35.0923 17.4831C35.1187 17.4127 35.1099 17.272 35.0923 17.1752C35.0043 16.9113 35.0219 16.8761 35.1362 17.0345L35.3474 17.2808C35.4353 17.3775 35.4441 17.3775 35.4793 17.2544C35.5057 17.1752 35.5233 17.0433 35.5233 16.9553V16.7882L35.7256 17.0257C35.9279 17.2544 35.9455 17.2632 35.9983 17.1488C36.0423 17.0873 36.0686 16.9377 36.0686 16.8234C36.0686 16.665 36.0862 16.6299 36.1214 16.6826C36.1918 16.7882 36.1478 17.0521 36.0247 17.2808L35.9367 17.4567L35.8224 17.272C35.6728 17.0433 35.62 17.0433 35.5321 17.2896C35.4441 17.5271 35.3825 17.5447 35.2946 17.3599C35.2418 17.2456 35.2242 17.2632 35.189 17.5095L35.145 17.7734L34.8812 17.5711L34.6173 17.3687L34.4853 17.5007C34.4237 17.5798 34.371 17.6766 34.371 17.7118C34.371 17.7998 34.3006 17.7998 34.2038 17.7118ZM37.6344 16.5155C37.5024 16.3924 37.4057 16.2692 37.4233 16.2516C37.4497 16.2252 37.4673 16.2164 37.4761 16.234C37.5612 16.3247 37.6492 16.4128 37.7399 16.4979C38.039 16.8146 37.9774 16.8234 37.6432 16.5155H37.6344ZM33.0603 16.0405C32.9372 15.8646 32.946 15.759 33.1043 15.5655C33.2099 15.4336 33.2626 15.416 33.4562 15.4424C33.5881 15.4512 33.8608 15.5655 34.0631 15.6886C34.3555 15.8633 34.6901 15.9546 35.0307 15.9525L34.8812 15.7062C34.6876 15.416 34.6876 15.3808 34.9163 15.5567C35.145 15.7414 35.4177 15.7942 36.0335 15.7766L36.3325 15.7678L36.1566 15.5919C35.9191 15.3544 35.9895 15.328 36.2622 15.5655C36.5085 15.7854 36.4997 15.803 35.9631 15.8558C35.7394 15.8784 35.5134 15.8635 35.2946 15.8118C34.9955 15.7238 34.9779 15.7326 35.0395 15.8294C35.0747 15.891 35.1274 15.9349 35.1538 15.9349C35.189 15.9349 35.2154 15.9701 35.2154 16.0053C35.2154 16.1197 34.5645 16.0141 34.2478 15.8646C33.5441 15.5039 33.4562 15.4687 33.2802 15.5215C33.2334 15.5395 33.1906 15.5667 33.1543 15.6015C33.1181 15.6362 33.0891 15.6778 33.0691 15.7238C32.9548 16.0141 33.3682 16.2428 33.5353 15.9877C33.5881 15.9086 33.5793 15.8646 33.4913 15.7678C33.3682 15.6447 33.3858 15.6271 33.5441 15.6799C33.6585 15.7238 33.6673 15.9965 33.5617 16.1021C33.4474 16.2164 33.1659 16.19 33.0603 16.0405Z" fill="black" stroke="black" stroke-width="0.492591"/>
<path d="M35.8669 15.3282C35.779 15.2403 35.8493 15.2227 36.2452 15.2139C36.7378 15.2051 37.0368 15.1259 37.3887 14.8972C37.6702 14.7213 37.7493 14.7565 37.4767 14.9412C37.2392 15.1171 36.8609 15.2403 36.4827 15.2755L36.0341 15.337C35.9637 15.3546 35.8845 15.3458 35.8581 15.3282H35.8669Z" fill="black" stroke="black" stroke-width="0.492591"/>
<path d="M31.5654 30.036L31.7677 29.9128L31.8557 30.036C31.97 30.1943 32.2955 30.1855 32.5066 30.036L32.6737 29.904L32.8145 30.0272C32.9904 30.1943 33.3246 30.1943 33.5446 30.0272C33.6941 29.9216 33.7205 29.9128 33.8084 30.0008C33.87 30.0535 34.0459 30.1063 34.1955 30.1327C34.477 30.1679 34.477 30.1679 34.6353 29.9216C34.776 29.7193 34.7936 29.6401 34.7672 29.4378C34.7427 29.2833 34.7251 29.1277 34.7145 28.9716C34.6969 28.7429 34.7057 28.7429 35.0311 28.6198C35.1927 28.5702 35.3513 28.5115 35.5061 28.4438C35.6381 28.3647 36.0075 27.9336 36.0075 27.8457C36.0075 27.8281 35.8668 27.7929 35.6908 27.7753C34.9871 27.6874 34.8728 27.3179 35.3302 26.6318C36.0603 25.4883 36.5089 24.3888 36.5089 23.6939C36.5089 23.3772 36.5353 23.2716 36.5705 23.342C36.7376 23.6147 36.4385 24.7846 35.9987 25.629L35.8228 25.9633L35.9899 25.9281C36.0779 25.9017 36.6408 25.6642 37.2214 25.4003C38.8223 24.679 39.3677 24.5383 40.4056 24.5823C41.2765 24.6175 41.6371 24.7846 42.2529 25.4267C42.5783 25.7786 42.895 26.0161 43.4667 26.3767C44.6806 27.1332 44.7334 27.2036 44.795 28.1008C44.8566 29.0068 44.8214 29.0596 44.1353 29.2091C43.5459 29.341 43.1765 29.6137 43.0797 30.0008C43.0269 30.1943 43.1413 30.2031 43.4316 30.0096L43.6515 29.8688L43.7482 30.0096C43.8802 30.1943 44.1441 30.1943 44.364 30.0096L44.5399 29.8776L44.7158 30.0096C44.9797 30.2295 45.3316 30.1767 45.4371 29.904C45.4547 29.86 45.5075 29.8688 45.613 29.9656C45.8153 30.1415 46.3167 30.2119 46.3695 30.0711C46.3871 30.0184 46.3519 29.8952 46.2815 29.7897C45.9913 29.3498 45.8945 29.1475 45.8945 28.91C45.8945 28.5758 45.9825 28.4086 46.3695 28.1448C46.8269 27.8105 46.9677 27.3883 46.6158 27.3883C46.4047 27.3883 46.1848 27.1948 46.044 26.8869C45.7626 26.2536 45.8241 25.5499 46.2464 24.3712C46.5701 23.6776 46.7325 22.9198 46.7214 22.1545C46.7214 21.5036 46.7038 21.398 46.563 21.0374C46.4529 20.7866 46.3173 20.5479 46.1584 20.3249L45.9121 19.9994L46.22 19.7355C47.17 18.9527 46.9765 17.6684 45.8329 17.1758C45.4811 17.0175 45.3931 17.0087 44.7774 17.0087C44.4255 17.0087 43.8538 17.0615 43.5459 17.123C43.1327 17.1884 42.7152 17.2237 42.2968 17.2286C41.6987 17.2286 41.5931 17.211 41.3644 17.0879C41.1269 16.9647 41.083 16.9031 41.039 16.6041C41.0347 16.5759 41.0237 16.5491 41.0069 16.5262C40.99 16.5032 40.9678 16.4846 40.9422 16.4721C40.8542 16.4457 40.4848 16.7712 40.432 16.9119C40.3968 16.9911 40.3792 16.9823 40.3001 16.8855C40.2255 16.7897 40.1661 16.6829 40.1242 16.5689C40.0362 16.2786 40.1505 16.0675 40.4936 15.9004L40.7575 15.7772L40.5992 15.6805C40.2825 15.4781 39.7371 15.6189 39.5436 15.9443C39.482 16.0323 39.4205 16.1203 39.4029 16.1203C39.3853 16.1203 39.2797 16.0323 39.1742 15.918C38.7607 15.5133 38.9015 14.9152 39.4556 14.7393C39.7459 14.6425 40.0098 14.7129 40.0626 14.9152C40.1505 15.2055 40.3968 14.8184 40.3529 14.4578C40.3265 14.2203 40.3265 14.2115 40.4936 14.2115C40.7223 14.2115 41.1973 14.5106 41.3556 14.7393C41.5316 15.0119 41.514 15.443 41.3205 15.7596L41.1709 16.0059L41.3732 15.9707C41.6547 15.9092 41.9362 15.7332 42.0769 15.5133C42.1511 15.3733 42.1928 15.2183 42.1989 15.0599C42.205 14.9016 42.1753 14.7439 42.1121 14.5985C41.9802 14.361 41.9978 14.3258 42.1913 14.405C42.5079 14.5369 42.6839 14.6865 42.807 14.9416C42.9302 15.1703 42.939 15.223 42.8774 15.4693C42.8353 15.6193 42.77 15.7618 42.6839 15.8916C42.5783 16.0323 42.5695 16.0587 42.6575 16.0587C42.8158 16.0587 43.1325 15.9092 43.2468 15.7948C43.3084 15.7244 43.3964 15.5749 43.4404 15.443L43.5283 15.223L43.6163 15.399C43.7482 15.6365 44.0121 15.8564 44.3288 15.9971C44.6718 16.1379 44.8126 16.1467 44.6366 16.0147C44.5135 15.9268 44.2848 15.267 44.364 15.2055C44.7436 15.418 45.0903 15.6847 45.3931 15.9971C45.8945 16.4457 46.2112 16.5953 46.6686 16.5953C47.2579 16.5953 47.601 16.0851 47.3371 15.6013C47.1876 15.3198 46.8445 15.2758 46.6334 15.5133C46.5454 15.6277 46.519 15.7156 46.5454 15.8388C46.5806 15.9795 46.5718 15.9971 46.4399 15.9971C46.264 15.9971 45.9297 15.7772 45.3315 15.2758C44.499 14.5593 43.5419 14.0018 42.5079 13.6309C41.8075 13.469 41.0842 13.4303 40.3705 13.5166C39.8075 13.6221 39.139 13.9476 38.7695 14.2906C38.1274 14.9064 38.1186 15.7244 38.7431 16.4721L38.9191 16.6832L38.8047 16.8767C38.7187 17.0154 38.6761 17.1765 38.6824 17.3395C38.6886 17.5025 38.7435 17.66 38.8399 17.7916C38.9279 17.9147 39.0158 18.0115 39.0422 18.0115C39.0598 18.0115 39.0774 17.9323 39.0862 17.8355C39.1038 17.598 39.2093 17.4397 39.3853 17.3781C39.5436 17.3166 39.6492 17.3517 40.3705 17.642C41.1357 17.9411 42.3936 17.9587 43.7306 17.6948C44.3101 17.561 44.9132 17.567 45.4899 17.7124C46.1232 17.9763 46.264 18.6536 45.8066 19.1638C45.6042 19.3925 45.4195 19.4804 44.7774 19.6564C44.2183 19.8038 43.6371 19.8485 43.0621 19.7883C42.1121 19.7795 41.7691 19.7971 41.3908 19.8763C40.9598 19.9642 40.7047 19.973 39.4732 19.9466L38.0394 19.9115L38.1978 20.0346C38.2826 20.1099 38.3738 20.1776 38.4705 20.2369C38.5848 20.2985 38.576 20.3073 38.4177 20.3689C38.3297 20.404 38.1186 20.4304 37.9515 20.4304H37.6612L37.626 20.6767C37.6023 20.7928 37.6023 20.9125 37.626 21.0286C37.6612 21.1165 37.6436 21.1341 37.5556 21.099C37.4941 21.0726 37.3269 21.0286 37.1774 21.0022C37.0265 20.9698 36.8792 20.9227 36.7376 20.8615C36.5705 20.7735 36.5529 20.7735 36.4913 20.8878C36.4385 20.9758 35.9459 21.3452 35.8756 21.3452C35.8438 21.117 35.7786 20.8948 35.682 20.6855C35.5941 20.5008 35.5149 20.2897 35.4885 20.2281C35.4621 20.1314 35.4445 20.1226 35.4006 20.2017C35.3742 20.2457 35.339 20.3777 35.3126 20.4832C35.2818 20.6257 35.2283 20.7623 35.1543 20.8878L35.0223 21.0814L34.9344 20.9142C34.8464 20.7383 34.7057 20.5448 34.6529 20.5448C34.6353 20.5448 34.6089 20.5976 34.5913 20.6767C34.5473 20.8175 34.2043 21.2309 34.1163 21.2309C34.0899 21.2309 34.0635 21.1165 34.0635 20.967C34.0635 20.8351 34.0371 20.7119 34.002 20.7119C33.9668 20.7119 33.9404 20.7559 33.9404 20.7999C33.9404 20.9054 33.6501 21.2397 33.5446 21.2397C33.5094 21.2397 33.439 21.2749 33.395 21.3277C33.2895 21.442 33.2015 21.4244 33.2455 21.2925C33.2578 21.1798 33.2458 21.0658 33.2103 20.9582L33.1223 20.6767C33.1047 20.6328 32.9992 20.6503 32.7705 20.7207C32.4186 20.8351 32.2955 20.8087 32.4802 20.6679C32.5506 20.6152 32.6561 20.4304 32.7089 20.2633C32.7705 20.0874 32.8584 19.9378 32.9024 19.9203C32.964 19.9027 32.964 19.9203 32.8848 20.0258C32.8339 20.0927 32.8006 20.1714 32.7881 20.2545C32.7881 20.2985 32.7441 20.4128 32.7001 20.5096C32.6473 20.5976 32.6121 20.6855 32.6209 20.6943C32.6297 20.7031 32.7705 20.6503 32.9288 20.58L33.2103 20.4392V20.5624C33.2103 20.6328 33.2455 20.8087 33.2895 20.9582L33.3686 21.2221L33.5621 21.1341C33.7557 21.0462 33.9404 20.7295 33.9404 20.4744C33.9404 20.3513 34.0108 20.3689 34.0459 20.5008C34.0459 20.536 34.0987 20.6855 34.1339 20.8263L34.2219 21.0726L34.3538 20.9142C34.433 20.8263 34.5209 20.6503 34.5561 20.536C34.6265 20.3249 34.732 20.2281 34.732 20.3865C34.732 20.492 35.0311 20.8966 35.0839 20.8615C35.1191 20.8439 35.1719 20.6943 35.2158 20.5272C35.3038 20.1753 35.4357 19.9466 35.5237 19.9994C35.5589 20.017 35.5677 20.0522 35.5501 20.0874C35.5325 20.105 35.6029 20.3337 35.7084 20.58C35.7849 20.7646 35.8611 20.9493 35.9371 21.1341C35.9723 21.2221 36.0075 21.2221 36.2274 21.0198C36.3594 20.8966 36.4913 20.7647 36.5001 20.7207C36.5265 20.6503 36.5529 20.6591 36.676 20.7383C36.9354 20.8753 37.2195 20.9591 37.5117 20.9846C37.5293 20.967 37.5469 20.8087 37.5469 20.6328L37.5556 20.3073L37.7316 20.3425C37.8195 20.3689 38.0219 20.3689 38.1714 20.3425L38.4353 20.3073L38.1978 20.1314C38.0658 20.0434 37.9339 19.929 37.8987 19.8763C37.8723 19.8235 37.7492 19.7707 37.6172 19.7619C37.2566 19.7267 36.6144 19.3749 36.6144 19.199C36.6144 19.1638 36.7024 19.2253 36.808 19.3221C37.0543 19.542 37.3885 19.674 37.6876 19.674H37.8987L37.7668 19.498C37.6727 19.3616 37.6125 19.2049 37.5908 19.0406C37.5732 18.7767 37.5469 18.7416 37.2742 18.5568C37.116 18.4448 36.9688 18.3182 36.8344 18.1786L36.6848 18.0115L36.6057 18.2138C36.5617 18.3281 36.5177 18.4161 36.4913 18.4161C36.4737 18.4161 36.3857 18.3457 36.3154 18.2666C36.2659 18.2092 36.2062 18.1615 36.1394 18.1258C36.1131 18.1258 36.0515 18.2314 35.9811 18.3633L35.858 18.6008L35.77 18.4689C35.6918 18.361 35.6034 18.2609 35.5061 18.1698C35.4006 18.0818 35.3566 18.0115 35.3918 18.0115C35.427 18.0115 35.5413 18.0994 35.6557 18.2138L35.8492 18.4161L35.9371 18.2666C35.9879 18.1629 36.0034 18.0455 35.9811 17.9323C35.9459 17.774 35.9547 17.7652 36.0075 17.8707C36.0834 17.97 36.1721 18.0588 36.2714 18.1346L36.4649 18.2929L36.5969 18.0554C36.7288 17.8092 36.7288 17.8092 36.7816 17.9587C36.8695 18.1434 37.4413 18.6184 37.9251 18.8911C38.0131 18.9351 37.9779 18.7943 37.8371 18.4513C37.7949 18.3386 37.7711 18.2197 37.7668 18.0994C37.7668 17.9411 37.7228 17.8707 37.5205 17.7124C37.3947 17.632 37.2894 17.5233 37.2131 17.395C37.1367 17.2667 37.0914 17.1224 37.0807 16.9735C37.0543 16.824 37.0015 16.6656 36.9575 16.6129C36.9047 16.5249 36.8871 16.5777 36.9047 16.8416C36.9223 17.0263 36.8959 17.255 36.8519 17.3517L36.7816 17.5277L36.7288 17.3781C36.6936 17.299 36.5529 17.1582 36.4209 17.0703C36.289 16.9823 36.1922 16.8943 36.2098 16.8767C36.2274 16.8592 36.3682 16.9383 36.5177 17.0527C36.7552 17.2374 36.7992 17.255 36.8344 17.1758C36.8695 17.0879 36.8344 16.6832 36.764 16.4017C36.7288 16.261 36.7288 16.261 36.9047 16.4369C37.0279 16.5601 37.0982 16.7184 37.1598 16.9823C37.2302 17.3166 37.2654 17.3781 37.5732 17.6508C37.758 17.8179 37.9251 17.9411 37.9339 17.9323C37.9515 17.9147 37.9691 17.4925 37.9867 16.9823C38.0219 16.0059 37.9867 15.7684 37.7492 15.4693L37.626 15.311L37.8195 15.1087C38.0363 14.9013 38.1812 14.6301 38.233 14.3346L38.2681 14.0971L38.057 14.2994C37.8811 14.4666 37.7931 14.5018 37.5908 14.5018C37.3885 14.5018 37.3094 14.4666 37.1774 14.3258C36.9719 14.128 36.7213 13.9831 36.4473 13.9036C36.3418 13.8684 36.3066 13.886 36.3066 13.9564C36.3066 14.0092 36.2538 14.1499 36.1834 14.2818L36.0603 14.5106L35.7964 14.2467C35.6293 14.0971 35.4445 13.9652 35.295 13.93C34.9344 13.842 34.9168 13.842 34.9168 14.1147C34.9168 14.5281 34.7408 14.6073 34.4242 14.3346C34.1779 14.1235 33.9844 14.0707 33.5182 14.1323L33.1663 14.1675L33.2279 14.3258C33.2807 14.4578 33.2719 14.5193 33.1575 14.6689C32.9728 14.9152 32.7353 15.0207 32.3659 15.0207C32.1899 15.0207 31.9788 15.0559 31.8909 15.0999C31.8029 15.1439 31.5742 15.1879 31.3895 15.2055C31.2135 15.223 31.0112 15.2582 30.9497 15.2758C30.8617 15.311 30.8617 15.2758 30.8881 15.0823C30.9321 14.7832 30.7122 14.5545 30.3867 14.5545C29.9557 14.5545 29.7622 14.9416 29.9293 15.4518C29.9635 15.5618 29.9929 15.6734 30.0172 15.786C30.1328 16.006 30.2878 16.2028 30.4747 16.3666C30.7034 16.5953 30.9145 16.8328 30.9497 16.8943C31.0205 16.9861 31.1105 17.0611 31.2135 17.1142L31.4071 17.2198L31.3807 17.0087C31.3543 16.78 31.3983 16.7448 31.5214 16.9119C31.5654 16.9647 31.6797 17.0615 31.7677 17.1142C31.9172 17.2022 31.9436 17.2022 31.9436 17.1318C31.9436 17.0791 31.97 16.9647 32.0052 16.8767L32.0668 16.7184L32.1811 16.9383C32.2427 17.0615 32.445 17.3342 32.6297 17.5541C32.9904 17.9675 33.2191 18.4337 33.1047 18.5392C33.052 18.5832 32.9288 18.5832 32.6649 18.5304C32.4714 18.4953 32.2251 18.4689 32.1196 18.4865C31.9172 18.5129 31.8996 18.4865 32.0316 18.3281C32.1635 18.1522 32.1371 18.1258 31.8733 18.1258C31.5654 18.1258 30.8001 17.9763 30.501 17.8619C30.2196 17.7476 30.1492 17.774 30.0612 18.0466L29.9117 18.5392L29.8237 18.8031L30.1404 18.7767C30.3036 18.7597 30.4654 18.7303 30.6242 18.6888C30.6865 18.668 30.7521 18.6591 30.8177 18.6624C30.8353 18.6712 30.7913 18.7767 30.7297 18.8999L30.6066 19.111L30.8001 19.0758C30.9057 19.0494 31.064 18.9966 31.152 18.9527C31.3103 18.8823 31.3279 18.8823 31.451 19.0846C31.6006 19.3221 31.7149 19.3133 31.7413 19.0582C31.7677 18.7943 31.8557 18.8295 32.0228 19.1814C32.1811 19.5156 32.3395 19.6388 32.3746 19.4453C32.3834 19.3749 32.4626 19.2693 32.5594 19.199C32.7529 19.067 32.8936 19.111 32.9728 19.3133C33.0608 19.5332 32.8672 19.7531 32.3219 20.0874C31.8168 20.3662 31.3822 20.7569 31.0514 21.2296C30.7206 21.7022 30.5022 22.2442 30.4131 22.8142C30.2459 23.8522 30.7649 24.9253 31.7853 25.7082C32.2779 26.0776 33.0608 26.4647 33.008 26.3239C32.7969 25.6818 32.8057 24.4767 33.0168 24.2744C33.052 24.2392 33.0432 24.3624 32.9904 24.5471C32.8145 25.242 32.9024 25.7874 33.3422 27.0716C33.7293 28.2327 33.6765 28.7341 33.1135 29.0596C32.9376 29.1651 32.8233 29.1827 32.3395 29.1739C31.8117 29.1739 31.7501 29.1739 31.583 29.3147C31.3809 29.5211 31.2486 29.7856 31.2047 30.0711C31.2047 30.1855 31.3279 30.1679 31.5566 30.036H31.5654Z" fill="#FFB700"/>
<path d="M40.0966 30.0093L40.3165 29.8686L40.466 30.0093C40.6595 30.194 40.897 30.1852 41.0818 30.0005C41.1697 29.9126 41.2401 29.8598 41.2489 29.8686L41.3281 30.0093C41.372 30.0885 41.4688 30.1237 41.6447 30.1413C41.847 30.1501 41.9086 30.1413 41.9966 30.0181L42.0845 29.8686L42.3044 30.0093C42.9026 30.3964 43.2193 29.9917 42.9466 29.1913C42.8146 28.7866 42.8938 28.5579 43.3248 28.0478C43.5095 27.8278 43.6591 27.5903 43.6591 27.52C43.6591 27.4232 43.6239 27.4056 43.3776 27.4144C43.1489 27.4144 43.0785 27.388 42.9554 27.2561C42.7531 27.0362 42.7706 26.7811 42.9906 26.4996L43.1665 26.2797L42.8498 26.0686C42.597 25.8819 42.3615 25.6729 42.1461 25.4441C41.9541 25.2175 41.7193 25.0309 41.4552 24.8951C41.1911 24.7592 40.9028 24.6768 40.6068 24.6524L40.1933 24.6084V24.9251C40.1933 25.3209 40.3869 25.7079 40.897 26.3589C41.4776 27.0978 41.5128 27.2121 41.5392 28.1797L41.5656 28.9977L41.3896 29.1561C41.2401 29.2968 41.1785 29.3232 40.6859 29.3496C40.2197 29.376 40.1142 29.4024 39.9822 29.5255C39.8278 29.6381 39.7211 29.8044 39.6832 29.9917C39.6568 30.1237 39.6656 30.1501 39.7623 30.1501C39.8239 30.1501 39.9734 30.0885 40.0966 30.0093ZM27.5883 27.8982C27.6415 27.8201 27.6719 27.7287 27.6762 27.6343C27.6762 27.5464 27.729 27.5112 27.9577 27.476L28.2304 27.4408L28.0545 27.2913C27.8346 27.1154 27.8082 26.9834 28.0017 26.9834C28.1952 26.9834 28.5119 26.7899 28.5647 26.6404C28.5911 26.57 28.5647 26.482 28.5295 26.438C28.4239 26.3149 28.2216 26.3325 28.1864 26.4732C28.1425 26.614 28.0809 26.614 27.9225 26.4732C27.7026 26.2533 27.6938 25.8047 27.9225 25.5408C28.0193 25.4177 28.0193 25.4177 27.8874 25.2857C27.7466 25.145 27.6411 24.8811 27.7114 24.8107C27.729 24.7931 27.8434 24.8107 27.9577 24.8547C28.1337 24.9075 28.1952 24.9075 28.2656 24.8547C28.4679 24.6876 28.248 24.4765 27.9137 24.5293C27.773 24.5468 27.7202 24.5292 27.7026 24.4589C27.685 24.4061 27.5707 24.3357 27.4388 24.3005C27.2013 24.239 27.2012 24.239 27.2012 24.4061C27.2012 24.582 27.0957 24.6172 26.9022 24.5029C26.7438 24.4149 26.5943 24.4853 26.5943 24.6524C26.5943 24.8107 26.7438 24.8811 27.0341 24.8635C27.2452 24.8547 27.254 25.013 27.0517 25.2417L26.9022 25.4177L27.0165 25.5848C27.1925 25.8311 27.1749 26.2445 26.9901 26.4556L26.8406 26.614L26.7438 26.482C26.6031 26.3061 26.4184 26.3149 26.3656 26.5084C26.3392 26.6316 26.3656 26.6843 26.5239 26.8251C26.6295 26.913 26.7878 26.9834 26.867 26.9834C27.0693 26.9834 27.0605 27.1505 26.8494 27.3089L26.6735 27.4408L26.9374 27.476C27.0781 27.5024 27.2012 27.5376 27.2012 27.564C27.2012 27.6783 27.3772 28.0214 27.43 28.0214C27.4651 28.0214 27.5355 27.9598 27.5883 27.8894V27.8982Z" fill="#FFB700"/>
<path d="M30.9488 26.4382C31.1863 26.3502 31.6965 25.9104 31.6965 25.8136C31.6965 25.7784 31.5557 25.6201 31.3798 25.4618C31.0279 25.1451 30.6321 24.591 30.5266 24.2743C30.4738 24.0984 30.2187 23.8169 29.4974 23.1132L28.5386 22.1896L28.2659 22.2599C28.1076 22.2951 27.9229 22.3303 27.8525 22.3303C27.7205 22.3303 27.7205 22.3303 27.8965 22.4711L28.0724 22.6118L28.3363 22.4711C28.5738 22.3303 28.5826 22.3303 28.609 22.4447C28.6266 22.5062 28.5914 22.6206 28.521 22.6998C28.4594 22.7789 28.4242 22.8757 28.433 22.9021C28.4594 22.9285 28.3979 22.99 28.3011 23.0428C28.1252 23.1308 27.9932 23.4211 28.134 23.4211C28.2659 23.4211 28.5474 23.0692 28.5122 22.9548C28.4946 22.8933 28.5122 22.8317 28.5298 22.8141C28.6442 22.7525 28.6354 23.0252 28.5298 23.166C28.4594 23.2363 28.4242 23.3243 28.4418 23.3595C28.4594 23.3859 28.3979 23.4474 28.3011 23.5002C28.1252 23.5882 27.9932 23.8785 28.134 23.8785C28.2747 23.8785 28.5474 23.5442 28.521 23.4211C28.5034 23.3595 28.5034 23.2891 28.5298 23.2715C28.609 23.2363 28.6442 23.4474 28.5826 23.553C28.5664 23.5827 28.5579 23.616 28.5579 23.6498C28.5579 23.6836 28.5664 23.7168 28.5826 23.7465C28.6442 23.8609 28.5826 24.072 28.4682 24.1423C28.4242 24.1687 28.4506 24.2303 28.5738 24.3183C28.7497 24.4414 28.7497 24.459 28.7497 25.022C28.7497 25.497 28.7673 25.6201 28.8553 25.6993C28.9432 25.7872 28.9608 25.7872 28.9608 25.6993C28.9608 25.6113 29.1367 25.4882 29.2687 25.4882C29.3127 25.4882 29.5678 25.7081 29.8404 25.972C30.1131 26.2359 30.4034 26.4734 30.4826 26.4821L30.6761 26.5173C30.7025 26.5173 30.8256 26.4909 30.9488 26.4294V26.4382ZM28.0196 24.1423C28.0196 23.9928 27.703 23.8257 27.3247 23.7905C27.0168 23.7465 27.0168 23.7553 27.0168 23.9048C27.0168 24.028 27.0608 24.0808 27.2807 24.1687C27.615 24.3183 28.0196 24.3007 28.0196 24.1423Z" fill="#FFB700"/>
<path d="M28.3637 24.1243C28.522 23.9835 28.5924 23.8252 28.4956 23.8252C28.3901 23.8252 28.1086 24.0715 28.1086 24.1771C28.1086 24.3178 28.1614 24.309 28.3725 24.1243H28.3637ZM28.0382 23.6757C28.047 23.5877 27.9943 23.5349 27.8359 23.4558C27.4841 23.3062 27.0794 23.2271 26.9827 23.3062C26.798 23.4558 26.9211 23.6493 27.2114 23.6845C27.3345 23.6933 27.4929 23.7285 27.572 23.7636C27.8007 23.8516 28.0119 23.8076 28.0382 23.6757ZM28.0382 23.2095C28.0558 23.0951 27.9767 23.0511 27.3345 22.8224C26.8507 22.6465 26.6396 22.7345 26.798 23.0248C26.8507 23.1215 26.9387 23.1655 27.141 23.2007C27.2906 23.2183 27.4929 23.2623 27.5896 23.2974C27.8535 23.3854 28.0119 23.3502 28.0294 23.2095H28.0382ZM28.3549 22.7785C28.4517 22.6817 28.5308 22.5673 28.5308 22.5146C28.5308 22.3826 28.1526 22.6289 28.0998 22.8048C28.047 23.0072 28.1438 22.9984 28.3637 22.7785H28.3549ZM28.0382 22.7521C28.0558 22.6113 27.8271 22.4882 27.3697 22.3914C27.0267 22.3123 26.8771 22.3562 26.9035 22.5146C26.9211 22.6025 27.0355 22.6641 27.3433 22.7609C27.8623 22.9192 28.0119 22.9192 28.0382 22.7521ZM28.4781 22.1011C29.0762 21.8373 29.1202 21.1775 28.566 21.0016C28.3373 20.9312 28.1966 20.9752 28.1086 21.1248C28.0382 21.2479 28.0822 21.459 28.1702 21.459C28.2054 21.459 28.2318 21.503 28.2318 21.547C28.2318 21.7845 27.3345 21.8812 26.9651 21.6965C26.8332 21.6349 26.7892 21.459 26.8859 21.459C26.9739 21.459 27.0267 21.2831 26.9827 21.1687C26.9299 20.9928 26.754 20.94 26.5165 21.0104C25.9623 21.1511 25.9799 21.8021 26.5429 22.066C27.1657 22.2946 27.8473 22.3069 28.4781 22.1011Z" fill="#FFB700"/>
<path d="M28.1184 21.5912C28.1536 21.556 28.136 21.5032 28.0832 21.468C27.9601 21.3713 27.9689 21.2217 28.1008 21.0546C28.2064 20.9315 28.2152 20.7379 28.2504 18.8467C28.312 15.5833 28.5582 13.1292 28.8749 12.531C29.0069 12.3023 28.9893 12.3023 28.655 12.531C28.2165 12.8366 27.8624 13.2481 27.6258 13.7273C27.0805 14.7389 26.8958 16.1023 26.8958 19.0227C26.8958 20.6764 26.9045 20.8963 27.0013 21.0458C27.0893 21.2041 27.0893 21.2569 27.0365 21.4152C26.9925 21.512 26.9749 21.6176 26.9925 21.6352C27.1157 21.7495 27.9953 21.7231 28.1184 21.5912ZM33.0531 18.4773C33.0795 18.4509 33.0355 18.3014 32.9652 18.1606C32.8596 17.9319 32.8156 17.8967 32.6661 17.8967C31.9628 17.8356 31.2768 17.6447 30.643 17.3338C30.1944 17.1315 30.0272 17.0875 29.9832 17.1403C29.8425 17.2722 30.0712 17.5801 30.4231 17.7472C30.9408 17.9338 31.4832 18.0434 32.0328 18.0727C32.2703 18.0727 32.2791 18.0727 32.1383 18.275L32.0504 18.4157H32.3143L32.7541 18.4685C33.018 18.5301 33.018 18.5301 33.0531 18.4773Z" fill="#FFB700"/>
<path d="M35.8311 19.946C35.8311 19.8581 35.5761 19.6382 35.3298 19.4886C35.1274 19.3743 35.0923 19.3655 35.0923 19.4622C35.0923 19.603 34.9691 19.9636 34.9163 19.9636C34.8899 19.9636 34.846 19.8933 34.8284 19.8141C34.802 19.7261 34.7052 19.5502 34.6085 19.4359L34.4325 19.2159L34.3094 19.4183C34.1862 19.6118 33.9663 19.7965 33.8696 19.7965C33.852 19.7965 33.8432 19.6909 33.8696 19.5766C33.8784 19.4359 33.8696 19.3303 33.8256 19.3127C33.7904 19.2863 33.7552 19.2951 33.7552 19.3303C33.7552 19.4007 33.4562 19.7349 33.4034 19.7349C33.3682 19.7349 33.333 19.647 33.3154 19.5238L33.245 19.1016C33.2275 18.996 33.2714 19.0664 33.333 19.2775L33.4737 19.6382L33.6145 19.4183C33.6782 19.3274 33.7258 19.2262 33.7552 19.1192C33.7552 19.0752 33.7816 19.0576 33.8168 19.0752C33.852 19.0928 33.896 19.2423 33.9136 19.4007L33.9575 19.6997L34.1159 19.5238C34.1987 19.4356 34.2752 19.3415 34.3446 19.2423C34.4062 19.1368 34.4149 19.1368 34.5469 19.2423C34.6173 19.3127 34.7316 19.4622 34.802 19.5854C34.8724 19.7085 34.9339 19.7965 34.9427 19.7877L34.9955 19.5062L35.0307 19.2423C35.0395 19.1984 35.5057 19.5062 35.6816 19.6558C35.7872 19.7525 35.8927 19.8229 35.9103 19.8053C35.9279 19.7877 35.9455 19.647 35.9455 19.4798C35.9455 19.2335 35.9191 19.1632 35.7696 19.0312C35.5936 18.8729 35.5936 18.8729 35.5233 18.9872C35.4353 19.1368 35.3386 19.1368 35.3386 18.9872C35.3386 18.8817 35.0043 18.4683 34.9251 18.4683C34.8987 18.4683 34.8284 18.5562 34.7668 18.6706C34.7052 18.7849 34.6349 18.8729 34.6173 18.8729C34.5293 18.8729 34.0631 18.3451 34.0631 18.2572C34.0631 18.1868 34.0983 18.2044 34.1775 18.3275C34.2561 18.4431 34.3476 18.5493 34.4501 18.6442C34.6261 18.8025 34.6964 18.7673 34.7668 18.4595C34.7932 18.3715 34.8284 18.3011 34.8548 18.3011C34.9251 18.3011 35.3298 18.7322 35.3825 18.8729L35.4441 19.0136L35.4881 18.8553C35.5409 18.6618 35.6024 18.6618 35.6904 18.8377C35.7256 18.9081 35.9015 19.0664 36.0774 19.172L36.4029 19.3831L36.4645 19.172C36.4997 19.0576 36.5524 18.996 36.57 19.0312C36.6052 19.0752 36.5173 19.4271 36.4557 19.4974C36.4557 19.5062 36.3413 19.4447 36.227 19.3655L36.0071 19.2072V19.4886C36.0071 19.6382 35.9895 19.8229 35.9719 19.8933C35.9279 20.034 35.8224 20.0692 35.8224 19.946H35.8311ZM34.2038 17.7118C33.8168 17.3951 33.764 17.3248 33.764 17.1664L33.7728 17.0081L33.7992 17.1576C33.8168 17.2456 33.9224 17.3863 34.0455 17.4919L34.2742 17.6678L34.4062 17.5095C34.4853 17.4215 34.5469 17.316 34.5469 17.2808C34.5469 17.1752 34.5645 17.184 34.8284 17.4127C35.0571 17.615 35.0659 17.615 35.0923 17.4831C35.1187 17.4127 35.1099 17.272 35.0923 17.1752C35.0043 16.9113 35.0219 16.8761 35.1362 17.0345L35.3474 17.2808C35.4353 17.3775 35.4441 17.3775 35.4793 17.2544C35.5057 17.1752 35.5233 17.0433 35.5233 16.9553V16.7882L35.7256 17.0257C35.9279 17.2544 35.9455 17.2632 35.9983 17.1488C36.0423 17.0873 36.0686 16.9377 36.0686 16.8234C36.0686 16.665 36.0862 16.6299 36.1214 16.6826C36.1918 16.7882 36.1478 17.0521 36.0247 17.2808L35.9367 17.4567L35.8224 17.272C35.6728 17.0433 35.62 17.0433 35.5321 17.2896C35.4441 17.5271 35.3825 17.5447 35.2946 17.3599C35.2418 17.2456 35.2242 17.2632 35.189 17.5095L35.145 17.7734L34.8812 17.5711L34.6173 17.3687L34.4853 17.5007C34.4237 17.5798 34.371 17.6766 34.371 17.7118C34.371 17.7998 34.3006 17.7998 34.2038 17.7118ZM37.6344 16.5155C37.5024 16.3924 37.4057 16.2692 37.4233 16.2516C37.4497 16.2252 37.4673 16.2164 37.4761 16.234C37.5612 16.3247 37.6492 16.4128 37.7399 16.4979C38.039 16.8146 37.9774 16.8234 37.6432 16.5155H37.6344ZM33.0603 16.0405C32.9372 15.8646 32.946 15.759 33.1043 15.5655C33.2099 15.4336 33.2626 15.416 33.4562 15.4424C33.5881 15.4512 33.8608 15.5655 34.0631 15.6886C34.3555 15.8633 34.6901 15.9546 35.0307 15.9525L34.8812 15.7062C34.6876 15.416 34.6876 15.3808 34.9163 15.5567C35.145 15.7414 35.4177 15.7942 36.0335 15.7766L36.3325 15.7678L36.1566 15.5919C35.9191 15.3544 35.9895 15.328 36.2622 15.5655C36.5085 15.7854 36.4997 15.803 35.9631 15.8558C35.7394 15.8784 35.5134 15.8635 35.2946 15.8118C34.9955 15.7238 34.9779 15.7326 35.0395 15.8294C35.0747 15.891 35.1274 15.9349 35.1538 15.9349C35.189 15.9349 35.2154 15.9701 35.2154 16.0053C35.2154 16.1197 34.5645 16.0141 34.2478 15.8646C33.5441 15.5039 33.4562 15.4687 33.2802 15.5215C33.2334 15.5395 33.1906 15.5667 33.1543 15.6015C33.1181 15.6362 33.0891 15.6778 33.0691 15.7238C32.9548 16.0141 33.3682 16.2428 33.5353 15.9877C33.5881 15.9086 33.5793 15.8646 33.4913 15.7678C33.3682 15.6447 33.3858 15.6271 33.5441 15.6799C33.6585 15.7238 33.6673 15.9965 33.5617 16.1021C33.4474 16.2164 33.1659 16.19 33.0603 16.0405Z" fill="black"/>
<path d="M35.8669 15.3282C35.779 15.2403 35.8493 15.2227 36.2452 15.2139C36.7378 15.2051 37.0368 15.1259 37.3887 14.8972C37.6702 14.7213 37.7493 14.7565 37.4767 14.9412C37.2392 15.1171 36.8609 15.2403 36.4827 15.2755L36.0341 15.337C35.9637 15.3546 35.8845 15.3458 35.8581 15.3282H35.8669Z" fill="black"/>
</g>
<defs>
<filter id="filter0_bd_2_2450" x="-65.0282" y="-59.086" width="185.534" height="171.459" filterUnits="userSpaceOnUse" color-interpolation-filters="sRGB">
<feFlood flood-opacity="0" result="BackgroundImageFix"/>
<feGaussianBlur in="BackgroundImageFix" stdDeviation="1.34621"/>
<feComposite in2="SourceAlpha" operator="in" result="effect1_backgroundBlur_2_2450"/>
<feColorMatrix in="SourceAlpha" type="matrix" values="0 0 0 0 0 0 0 0 0 0 0 0 0 0 0 0 0 0 127 0" result="hardAlpha"/>
<feOffset dy="5.38485"/>
<feGaussianBlur stdDeviation="32.3091"/>
<feComposite in2="hardAlpha" operator="out"/>
<feColorMatrix type="matrix" values="0 0 0 0 0.890196 0 0 0 0 0.796078 0 0 0 0 0.498039 0 0 0 0.3 0"/>
<feBlend mode="normal" in2="effect1_backgroundBlur_2_2450" result="effect2_dropShadow_2_2450"/>
<feBlend mode="normal" in="SourceGraphic" in2="effect2_dropShadow_2_2450" result="shape"/>
</filter>
</defs>
</svg>
