<svg width="57" height="43" viewBox="0 0 57 43" fill="none" xmlns="http://www.w3.org/2000/svg">
<mask id="mask0_1_7994" style="mask-type:luminance" maskUnits="userSpaceOnUse" x="-1" y="0" width="58" height="43">
<path d="M-0.00292969 0.148071H56.2877V42.3701H-0.00292969V0.148071Z" fill="white"/>
</mask>
<g mask="url(#mask0_1_7994)">
<path fill-rule="evenodd" clip-rule="evenodd" d="M-3.52246 0.148071H59.8107V42.3701H-3.52246V0.148071Z" fill="#0C590B"/>
<path fill-rule="evenodd" clip-rule="evenodd" d="M-3.52246 0.148071H12.3521V42.3701H-3.52246V0.148071Z" fill="white"/>
<path fill-rule="evenodd" clip-rule="evenodd" d="M37.6039 18.7363L35.031 18.192L33.6786 20.4433L33.3982 17.8374L30.8418 17.2437L33.2333 16.1716L33.0106 13.5575L34.7754 15.5037L37.1916 14.4811L35.8804 16.7571L37.6122 18.7363H37.6039Z" fill="white"/>
<path fill-rule="evenodd" clip-rule="evenodd" d="M38.5678 25.3829C38.019 26.5804 37.2389 27.6577 36.2723 28.5527C35.3057 29.4477 34.1718 30.1428 32.9356 30.598C31.6995 31.0532 30.3855 31.2596 29.0693 31.2052C27.7531 31.1509 26.4606 30.8369 25.2662 30.2813C22.8429 29.1593 20.9646 27.1206 20.0444 24.6137C19.1242 22.1068 19.2376 19.337 20.3596 16.9137C20.9168 15.668 21.7285 14.5527 22.7425 13.6395C23.7566 12.7263 24.9505 12.0354 26.2476 11.6112C25.908 11.8939 25.5832 12.194 25.2745 12.5101C23.6656 14.2919 22.8115 16.6288 22.8923 19.0282C22.9731 21.4275 23.9825 23.7017 25.7076 25.3712C27.4328 27.0407 29.7388 27.9751 32.1395 27.9773C34.5402 27.9794 36.8479 27.0493 38.5761 25.3829H38.5678Z" fill="white"/>
</g>
</svg>
