<svg width="32" height="29" viewBox="0 0 32 29" fill="none" xmlns="http://www.w3.org/2000/svg">
<path fill-rule="evenodd" clip-rule="evenodd" d="M25.333 0.499573H30.6661C31.4025 0.499573 31.9994 1.09651 31.9994 1.83285C31.9994 2.56921 31.4025 3.16615 30.6661 3.16615H25.333C24.5966 3.16615 23.9997 2.56921 23.9997 1.83285C23.9997 1.09651 24.5966 0.499573 25.333 0.499573ZM25.333 5.83271H30.6661C31.4025 5.83271 31.9994 6.42964 31.9994 7.166V8.49928C31.9994 9.23563 31.4025 9.83256 30.6661 9.83256H25.333C24.5966 9.83256 23.9997 9.23563 23.9997 8.49928V7.166C23.9997 6.42964 24.5966 5.83271 25.333 5.83271ZM25.333 12.4991H30.6661C31.4025 12.4991 31.9994 13.0961 31.9994 13.8325C31.9994 14.5687 31.4025 15.1657 30.6661 15.1657H25.333C24.5966 15.1657 23.9997 14.5687 23.9997 13.8325C23.9997 13.0961 24.5966 12.4991 25.333 12.4991ZM25.333 17.8323H30.6661C31.4025 17.8323 31.9994 18.4293 31.9994 19.1655C31.9994 19.9019 31.4025 20.4989 30.6661 20.4989H25.333C24.5966 20.4989 23.9997 19.9019 23.9997 19.1655C23.9997 18.4293 24.5966 17.8323 25.333 17.8323ZM25.333 23.1654H30.6661C31.4025 23.1654 31.9994 23.7623 31.9994 24.4987V25.8319C31.9994 26.5683 31.4025 27.1653 30.6661 27.1653H25.333C24.5966 27.1653 23.9997 26.5683 23.9997 25.8319V24.4987C23.9997 23.7623 24.5966 23.1654 25.333 23.1654ZM18.6666 13.8325V5.83271H8.00029C7.92985 5.83271 7.85982 5.83453 7.79027 5.83813C5.67827 5.94673 3.99927 7.69357 3.99927 9.83256C3.99927 12.0417 5.79007 13.8325 7.99913 13.8325H18.6666ZM10.8735 23.1654L9.2533 27.6209C9.0617 28.1478 8.56094 28.4986 8.00029 28.4986H1.33386C0.408609 28.4986 -0.235349 27.5791 0.0808489 26.7097L4.22078 15.3249C2.47689 14.1225 1.33386 12.111 1.33386 9.83256C1.33386 6.1508 4.31853 3.16615 8.00029 3.16615H19.9998C20.7362 3.16615 21.3332 3.76307 21.3332 4.49943V15.1657C21.3332 15.9021 20.7362 16.499 19.9998 16.499H18.6666V19.1655C18.6666 21.3746 16.8758 23.1654 14.6668 23.1654H10.8735ZM11.8431 20.4989H14.6668C15.403 20.4989 16 19.9019 16 19.1655V16.499H13.2976L11.8431 20.4989ZM10.4602 16.499H8.00029C7.54786 16.499 7.10597 16.4539 6.67883 16.3681L3.23739 25.8319H7.06642L10.4602 16.499Z" fill="#5FFF27"/>
</svg>
