<svg width="45" height="33" viewBox="0 0 45 33" fill="none" xmlns="http://www.w3.org/2000/svg">
<path d="M35.9845 6.18965L29.9163 5.34898V1.89379C29.9163 1.46337 29.7448 1.05057 29.4397 0.746216C29.1345 0.44186 28.7206 0.270874 28.289 0.270874H2.25224C1.82065 0.270874 1.40674 0.44186 1.10156 0.746216C0.796386 1.05057 0.624939 1.46337 0.624939 1.89379V22.9917C0.624939 23.4221 0.796386 23.8349 1.10156 24.1393C1.40674 24.4436 1.82065 24.6146 2.25224 24.6146H6.07801C5.70655 25.3729 5.51131 26.205 5.50683 27.049C5.50683 28.5555 6.10689 30.0003 7.17502 31.0655C8.24314 32.1308 9.69182 32.7292 11.2024 32.7292C12.7129 32.7292 14.1616 32.1308 15.2297 31.0655C16.2978 30.0003 16.8979 28.5555 16.8979 27.049C16.8934 26.205 16.6982 25.3729 16.3267 24.6146H27.2296C26.8593 25.3732 26.6652 26.2053 26.6617 27.049C26.6617 28.5555 27.2618 30.0003 28.3299 31.0655C29.398 32.1308 30.8467 32.7292 32.3572 32.7292C33.8678 32.7292 35.3165 32.1308 36.3846 31.0655C37.4527 30.0003 38.0528 28.5555 38.0528 27.049C38.0483 26.205 37.8531 25.3729 37.4816 24.6146H42.9347C43.1638 24.6147 43.3903 24.5665 43.5995 24.4732C43.8086 24.3799 43.9957 24.2436 44.1484 24.0733C44.3011 23.9029 44.416 23.7023 44.4856 23.4846C44.5551 23.2669 44.5779 23.037 44.5522 22.8099L43.5514 13.9326C43.332 11.9869 42.4691 10.1696 41.0989 8.76745C39.7286 7.36533 37.9291 6.45833 35.9845 6.18965ZM35.537 9.40465C36.5833 9.54994 37.5667 9.98901 38.3723 10.6706C39.178 11.3522 39.7726 12.2483 40.0869 13.2542H29.9163V8.62565L35.537 9.40465ZM3.87953 3.51671H26.6617V21.3688H3.87953V3.51671ZM13.6433 27.049C13.6433 27.5305 13.5002 28.0011 13.2319 28.4015C12.9637 28.8018 12.5825 29.1138 12.1365 29.2981C11.6905 29.4823 11.1997 29.5305 10.7262 29.4366C10.2527 29.3427 9.81773 29.1108 9.47636 28.7704C9.13499 28.4299 8.90251 27.9961 8.80833 27.5239C8.71414 27.0517 8.76248 26.5622 8.94723 26.1174C9.13198 25.6726 9.44484 25.2924 9.84625 25.0249C10.2477 24.7574 10.7196 24.6146 11.2024 24.6146C11.8497 24.6146 12.4706 24.8711 12.9284 25.3276C13.3861 25.7842 13.6433 26.4034 13.6433 27.049ZM34.7982 27.049C34.7982 27.5305 34.655 28.0011 34.3868 28.4015C34.1186 28.8018 33.7374 29.1138 33.2913 29.2981C32.8453 29.4823 32.3545 29.5305 31.881 29.4366C31.4075 29.3427 30.9726 29.1108 30.6312 28.7704C30.2899 28.4299 30.0574 27.9961 29.9632 27.5239C29.869 27.0517 29.9173 26.5622 30.1021 26.1174C30.2868 25.6726 30.5997 25.2924 31.0011 25.0249C31.4025 24.7574 31.8745 24.6146 32.3572 24.6146C33.0046 24.6146 33.6255 24.8711 34.0832 25.3276C34.541 25.7842 34.7982 26.4034 34.7982 27.049ZM29.9163 21.3688V16.5H40.5637L41.1121 21.3688H29.9163Z" fill="#5FFF27"/>
</svg>
