<svg width="106" height="33" viewBox="0 0 106 33" fill="none" xmlns="http://www.w3.org/2000/svg">
<path d="M13.8725 11.8131V15.3097H22.3749C22.1491 17.244 21.472 18.732 20.4186 19.6991C19.2147 20.8895 17.2584 22.2286 13.8725 22.2286C8.68076 22.2286 4.61768 18.0624 4.61768 12.929C4.61768 7.79567 8.60552 3.62946 13.8725 3.62946C16.6564 3.62946 18.7632 4.74541 20.2681 6.15894L22.7511 3.70385C20.6443 1.69514 17.7851 0.132812 13.8725 0.132812C6.72446 0.132812 0.705078 5.86136 0.705078 12.929C0.705078 19.9967 6.72446 25.7253 13.8725 25.7253C17.7098 25.7253 20.6443 24.4605 22.9016 22.1542C25.2341 19.8479 25.9865 16.5745 25.9865 13.9706C25.9865 13.1522 25.9112 12.4083 25.836 11.8131H13.8725Z" fill="#8CA397"/>
<path d="M36.5199 8.91162C31.9301 8.91162 28.0928 12.4083 28.0928 17.1696C28.0928 21.931 31.8549 25.4277 36.5199 25.4277C41.1849 25.4277 44.947 22.0054 44.947 17.244C44.947 12.4083 41.1849 8.91162 36.5199 8.91162ZM36.5199 22.2286C33.9617 22.2286 31.7796 20.1455 31.7796 17.244C31.7796 14.2682 33.9617 12.2595 36.5199 12.2595C39.0781 12.2595 41.2602 14.2682 41.2602 17.244C41.2602 20.1455 39.0781 22.2286 36.5199 22.2286Z" fill="#8CA397"/>
<path d="M77.6777 10.7715H77.5272C76.6995 9.80438 75.1194 8.91162 73.0879 8.91162C68.8743 8.91162 65.2627 12.4827 65.2627 17.1697C65.2627 21.7822 68.8743 25.4277 73.0879 25.4277C75.1194 25.4277 76.6995 24.5349 77.5272 23.5678H77.6777V24.7581C77.6777 27.8828 75.9471 29.5939 73.2384 29.5939C70.9811 29.5939 69.6267 28.0316 69.0248 26.618L65.8646 27.9572C66.7675 30.1147 69.2505 32.8673 73.3136 32.8673C77.6024 32.8673 81.2893 30.3379 81.2893 24.2373V9.358H77.8282V10.7715H77.6777ZM73.4641 22.2286C70.9059 22.2286 69.0248 20.0711 69.0248 17.244C69.0248 14.3426 70.9811 12.2595 73.4641 12.2595C75.9471 12.2595 77.9034 14.417 77.9034 17.3184C77.9786 20.1455 76.0223 22.2286 73.4641 22.2286Z" fill="#8CA397"/>
<path d="M55.2553 8.91162C50.6655 8.91162 46.8281 12.4083 46.8281 17.1696C46.8281 21.931 50.5902 25.4277 55.2553 25.4277C59.9203 25.4277 63.6824 22.0054 63.6824 17.244C63.6824 12.4083 59.9203 8.91162 55.2553 8.91162ZM55.2553 22.2286C52.697 22.2286 50.515 20.1455 50.515 17.244C50.515 14.2682 52.697 12.2595 55.2553 12.2595C57.8135 12.2595 59.9955 14.2682 59.9955 17.244C59.9955 20.1455 57.8135 22.2286 55.2553 22.2286Z" fill="#8CA397"/>
<path d="M84.0732 0.504639H87.6849V25.5019H84.0732V0.504639Z" fill="#8CA397"/>
<path d="M98.8216 22.2286C96.9405 22.2286 95.6614 21.4103 94.7585 19.6991L105.97 15.1609L105.593 14.1938C104.916 12.3339 102.734 8.91162 98.4454 8.91162C94.1565 8.91162 90.5449 12.2595 90.5449 17.1696C90.5449 21.7822 94.0813 25.4277 98.8216 25.4277C102.659 25.4277 104.841 23.1214 105.819 21.7822L102.96 19.9223C101.982 21.3359 100.703 22.2286 98.8216 22.2286ZM98.5959 12.0363C100.101 12.0363 101.38 12.7802 101.756 13.8218L94.2318 16.9465C94.1566 13.5242 96.7148 12.0363 98.5959 12.0363Z" fill="#8CA397"/>
</svg>
