<svg width="85" height="43" viewBox="0 0 85 43" fill="none" xmlns="http://www.w3.org/2000/svg">
<path d="M12.4102 0.751629C10.5067 1.586 9.95919 3.33296 9.95919 8.70421V12.3024L7.95149 13.2411C6.83031 13.7626 4.87475 14.4926 3.57105 14.8577C0.624685 15.6921 -0.0010922 16.3961 0.989722 17.804C1.56335 18.6384 2.8149 18.5341 6.17846 17.3608C7.76897 16.8132 9.25519 16.2918 9.51593 16.1614C9.93312 15.9789 9.95919 16.3961 9.95919 22.732C9.95919 29.4591 9.95919 29.5113 10.5589 30.0588C11.289 30.7368 11.7322 30.7628 12.5144 30.2153C13.062 29.8242 13.0881 29.6677 13.0881 25.2091C13.0881 19.89 13.2967 19.1078 14.9915 18.2995C16.1648 17.7258 17.1035 17.9344 17.8596 18.9774C18.3029 19.551 18.4072 20.2289 18.5376 23.2535C18.694 26.591 18.7461 26.956 19.4501 28.1033C19.9977 29.0941 20.4931 29.5113 21.51 30.0067C23.257 30.815 24.1435 30.7889 25.8383 29.9546C27.0638 29.3288 27.2202 29.3027 27.6374 29.6677C28.4457 30.3978 30.3752 30.7628 31.5746 30.4239C32.8001 30.0328 34.0777 29.042 34.5992 28.0251L34.9903 27.295L35.955 27.8165C37.4934 28.5987 40.5701 28.4162 41.926 27.4254L42.9429 26.7214L43.0211 27.8947C43.0993 29.042 43.0472 29.1202 41.5349 30.5282C40.4658 31.519 39.6836 32.5359 39.11 33.7092C38.3278 35.2737 38.2495 35.6648 38.2495 37.7246C38.2495 39.6019 38.3278 40.0974 38.7971 40.6971C39.6575 41.8704 40.6223 42.444 41.952 42.5483C42.9689 42.6526 43.3861 42.5483 44.1162 42.0529C45.7328 40.9578 46.0457 39.9409 46.2021 35.1433L46.3325 30.9193L48.2098 29.6156C51.2083 27.5036 52.3034 25.6002 52.6685 21.7934C52.7988 20.4897 53.0857 19.2381 53.2682 19.0035C53.8418 18.2995 55.1977 17.8562 56.1103 18.0387C57.5182 18.2995 57.9354 19.3424 57.9354 22.5495C57.9615 26.93 58.6134 28.7291 60.5689 29.8503C62.2116 30.7628 63.5935 30.7889 65.2362 29.9285C66.4356 29.3288 66.8006 28.9637 67.3742 27.7904C68.0782 26.4346 68.1043 26.226 68.1043 22.367V18.3777H69.9556C70.9725 18.3777 71.9893 18.482 72.2501 18.6384C72.5108 18.7688 73.1627 19.916 73.7102 21.1676C74.2317 22.4192 75.0139 24.1661 75.405 25.0266C76.9695 28.4162 76.9434 28.1294 75.5354 31.5451C74.8575 33.1877 73.9449 35.039 73.5538 35.5865C71.9111 37.8289 69.0169 39.2369 66.0184 39.2369C64.5322 39.2369 64.0889 39.3412 63.6717 39.7584C63.072 40.3581 62.9938 41.2707 63.5153 42.0008C64.2714 43.0176 69.3037 42.444 72.0415 41.036C73.3973 40.3581 76.0308 37.855 76.787 36.5513C77.152 35.9516 78.925 31.7015 80.7241 27.1125C82.5493 22.5235 84.1398 18.508 84.2702 18.1691C85.0524 16.3178 83.7227 14.5448 82.2364 15.4574C81.9496 15.666 80.4895 18.9252 79.0293 22.7581C78.7164 23.5143 78.4557 24.114 78.4036 24.0618C78.3514 24.0097 77.7778 22.5756 77.0999 20.8547C75.3268 16.3439 74.2056 15.5095 69.9556 15.5095H68.1043V13.7104C68.1043 11.4941 68.6519 10.6337 70.112 10.5033C70.8421 10.4512 71.181 10.2426 71.4679 9.7211C71.8329 9.09532 71.8329 8.99102 71.3896 8.49562C70.7899 7.84377 68.5736 7.73947 67.2178 8.3131C65.6534 8.96495 65.1319 10.0601 65.0276 12.9543L64.9233 15.5095H64.0628C63.0459 15.5095 62.368 16.0832 62.368 16.9436C62.368 17.6998 63.2545 18.3777 64.2714 18.3777H65.0276L64.9233 22.2627C64.8451 26.6692 64.6104 27.2429 62.9938 27.2429C61.5337 27.2429 61.299 26.5649 61.0904 21.9759C60.96 18.5341 60.8557 17.8562 60.3603 17.074C58.9523 14.8055 55.5366 14.3623 53.6071 16.1614L52.7206 16.9958V15.3792C52.7206 13.8408 52.7728 13.7104 53.6071 13.0586C54.7544 12.1981 56.8403 9.04317 57.3097 7.5048C58.483 3.5937 56.4753 0.204071 53.19 0.464813C51.5734 0.595181 50.7129 1.22096 50.035 2.6811C49.4874 3.85443 49.4614 4.37592 49.331 13.6844C49.2267 21.2719 49.1224 23.6186 48.8356 24.114C48.4184 24.8962 46.6975 26.7214 46.4107 26.7214C46.3064 26.7214 46.2021 24.4008 46.2021 21.5587C46.2021 15.9267 46.0978 15.4313 44.8202 15.4313C43.9597 15.4313 43.334 15.9267 43.334 16.5786C43.334 17.074 42.9168 17.2565 42.7603 16.8393C42.7082 16.7089 42.2389 16.3178 41.6913 15.9528C39.6054 14.5448 36.659 14.8055 34.6513 16.5786C32.9565 18.0648 32.5654 19.0556 32.3568 22.5495C32.1743 25.8088 31.8614 26.7735 30.9227 27.2168C30.1666 27.5557 29.6712 27.3732 29.1497 26.591C28.8107 26.0695 28.7325 25.0787 28.7325 21.324C28.7325 16.031 28.5761 15.5095 27.0638 15.5095C25.5775 15.5095 25.4993 15.8485 25.3429 21.3762C25.1864 26.9039 25.1082 27.2429 23.6481 27.2429C22.0575 27.2429 21.849 26.6692 21.6925 22.0541C21.5621 18.6123 21.4578 17.8301 21.0667 17.1783C20.3106 16.031 19.6066 15.5617 18.1725 15.2227C16.4777 14.8316 14.9915 15.2227 13.8964 16.3439L13.0881 17.1783V15.6138C13.0881 14.0755 13.0881 14.0755 14.6525 12.511C18.7722 8.46954 19.3458 2.62896 15.8259 0.90807C14.5743 0.308369 13.5574 0.256222 12.4102 0.751629ZM14.4179 3.77621C15.1479 4.1934 15.0958 6.07073 14.2614 7.68732C13.1924 9.79932 13.0099 9.64288 13.1402 6.72258C13.2445 4.34985 13.427 3.51548 13.766 3.51548C13.8442 3.51548 14.131 3.64585 14.4179 3.77621ZM54.2068 4.32377C54.624 5.13206 54.3894 6.43577 53.5289 8.05236L52.851 9.35606L52.7728 6.95725C52.6685 3.77621 53.3203 2.57681 54.2068 4.32377ZM41.1437 18.3516C43.2557 19.3163 43.9076 22.2888 42.3953 24.0879C41.5349 25.1048 40.4398 25.4959 38.8753 25.3655C35.7464 25.0526 34.4427 21.298 36.7112 19.0295C37.9366 17.778 39.3968 17.5694 41.1437 18.3516ZM42.9429 38.1418C42.7603 39.3673 42.2649 39.7584 41.6131 39.2108C40.9612 38.6633 41.2741 36.1602 42.2128 34.5957L42.9429 33.3703L43.0211 35.1954C43.0732 36.1862 43.0211 37.516 42.9429 38.1418Z" fill="#8CA397"/>
</svg>
