<svg width="117" height="29" viewBox="0 0 117 29" fill="none" xmlns="http://www.w3.org/2000/svg">
<g clip-path="url(#clip0_455_44191)">
<path d="M114.513 26.7979C114.584 26.7986 114.655 26.7847 114.72 26.7571C114.786 26.7294 114.845 26.6886 114.894 26.6372C114.943 26.5857 114.981 26.5247 115.005 26.458C115.03 26.3913 115.04 26.3203 115.036 26.2493C115.036 25.8602 114.801 25.6743 114.32 25.6743H113.543V27.7114H113.835V26.8234H114.195L114.203 26.8342L114.76 27.7114H115.073L114.473 26.8035L114.513 26.7979ZM114.175 26.5939H113.836V25.9052H114.266C114.488 25.9052 114.741 25.9415 114.741 26.2324C114.741 26.5671 114.485 26.5939 114.174 26.5939" fill="#8CA397"/>
<path d="M0.603516 4.52393H4.91944V20.2603H12.9095V24.2471H0.603516V4.52393Z" fill="#8CA397"/>
<path d="M14.8179 10.8745H18.9641V24.24H14.8179V10.8745ZM16.891 4.22974C17.3667 4.22982 17.8317 4.3711 18.2272 4.6357C18.6226 4.9003 18.9308 5.27634 19.1128 5.71627C19.2948 6.15621 19.3424 6.64028 19.2495 7.10727C19.1567 7.57427 18.9276 8.00322 18.5912 8.33988C18.2548 8.67654 17.8262 8.9058 17.3597 8.99866C16.8931 9.09152 16.4095 9.04382 15.97 8.86158C15.5306 8.67934 15.1549 8.37076 14.8907 7.97484C14.6264 7.57893 14.4854 7.11347 14.4854 6.63731C14.4854 6.32111 14.5476 6.008 14.6685 5.71587C14.7894 5.42374 14.9666 5.15832 15.19 4.93475C15.4134 4.71118 15.6786 4.53385 15.9704 4.41288C16.2623 4.29191 16.5751 4.22968 16.891 4.22974Z" fill="#8CA397"/>
<path d="M36.3076 4.521H40.4538V16.3081L45.1528 10.8683H50.2362L44.7944 17.056L50.1218 24.2455H44.9105L40.5091 17.6388H40.4547V24.2446H36.3085L36.3076 4.521Z" fill="#8CA397"/>
<path d="M21.2627 10.8756H25.2443V12.7021H25.3009C25.6986 12.0201 26.2739 11.459 26.9654 11.0788C27.6568 10.6985 28.4385 10.5134 29.2268 10.5431C33.4313 10.5431 34.2053 13.3121 34.2053 16.9094V24.239H30.0591V17.7408C30.0591 16.1896 30.0306 14.1958 27.8996 14.1958C25.7445 14.1958 25.4119 15.8849 25.4119 17.628V24.2372H21.2657L21.2627 10.8756Z" fill="#8CA397"/>
<path d="M58.9682 16.0025C58.9761 15.6657 58.9157 15.3309 58.7906 15.0183C58.6654 14.7057 58.4782 14.4217 58.2402 14.1836C58.0022 13.9455 57.7184 13.7583 57.4059 13.6333C57.0935 13.5082 56.759 13.4479 56.4226 13.4561C55.6982 13.411 54.985 13.6526 54.4369 14.129C53.8889 14.6053 53.5497 15.2781 53.4926 16.0025H58.9682ZM62.4804 21.9252C61.7914 22.7615 60.9252 23.434 59.9446 23.8939C58.9639 24.3538 57.8934 24.5897 56.8105 24.5844C52.6643 24.5844 49.3447 21.8141 49.3447 17.5242C49.3447 13.2343 52.6638 10.4653 56.8105 10.4653C60.6859 10.4653 63.1161 13.2322 63.1161 17.5242V18.8255H53.4926C53.6125 19.5635 53.9947 20.2333 54.5689 20.7114C55.1431 21.1896 55.8706 21.444 56.6174 21.4276C57.2076 21.4239 57.7874 21.2726 58.3042 20.9873C58.821 20.7021 59.2583 20.2919 59.5763 19.7943L62.4804 21.9252Z" fill="#8CA397"/>
<path d="M71.7586 14.1051C69.6855 14.1051 68.4416 15.4907 68.4416 17.5096C68.4416 19.5285 69.685 20.9154 71.7586 20.9154C73.8321 20.9154 75.0786 19.532 75.0786 17.5096C75.0786 15.4872 73.8343 14.1051 71.7586 14.1051ZM78.8957 24.2373H75.0786V22.4648H75.022C74.5431 23.1096 73.922 23.6349 73.207 23.9999C72.492 24.365 71.7025 24.5598 70.9 24.5694C66.9162 24.5694 64.292 21.6914 64.292 17.6216C64.292 13.8838 66.6143 10.4516 70.4318 10.4516C72.1477 10.4516 73.7505 10.9215 74.6907 12.2241H74.7451V4.51978H78.8952L78.8957 24.2373Z" fill="#8CA397"/>
<path d="M106.886 24.245H102.74V17.7455C102.74 16.1957 102.712 14.2005 100.583 14.2005C98.4236 14.2005 98.0932 15.8891 98.0932 17.6327V24.2445H93.947V10.879H97.9273V12.7056H97.9831C98.3814 12.0238 98.957 11.463 99.6486 11.0828C100.34 10.7026 101.122 10.5173 101.91 10.5466C106.113 10.5466 106.887 13.3134 106.887 16.9129L106.886 24.245ZM89.2687 9.05205C88.7928 9.05213 88.3276 8.91096 87.9319 8.64639C87.5362 8.38182 87.2277 8.00573 87.0455 7.56567C86.8633 7.12562 86.8156 6.64138 86.9084 6.17417C87.0011 5.70696 87.2302 5.27778 87.5666 4.94089C87.9031 4.604 88.3318 4.37454 88.7985 4.28153C89.2652 4.18851 89.749 4.23612 90.1887 4.41833C90.6284 4.60054 91.0042 4.90917 91.2686 5.30519C91.5331 5.70121 91.6743 6.16683 91.6744 6.64318C91.6744 6.95946 91.6123 7.27265 91.4914 7.56488C91.3705 7.8571 91.1934 8.12264 90.97 8.34632C90.7466 8.57001 90.4814 8.74746 90.1895 8.86855C89.8976 8.98964 89.5847 9.05199 89.2687 9.05205ZM91.3418 24.245H87.1913V10.879H91.3418V24.245ZM108.953 0.381059H85.1079C84.5666 0.374945 84.0451 0.584159 83.6579 0.962727C83.2708 1.3413 83.0496 1.85824 83.043 2.39998V26.3672C83.0493 26.9092 83.2704 27.4265 83.6576 27.8055C84.0447 28.1844 84.5664 28.3941 85.1079 28.3883H108.953C109.495 28.3951 110.018 28.1861 110.407 27.8071C110.796 27.4282 111.018 26.9103 111.026 26.3672V2.39825C111.018 1.85544 110.795 1.3379 110.407 0.959345C110.018 0.580786 109.495 0.37217 108.953 0.379329" fill="#8CA397"/>
<path d="M114.21 24.7668C113.706 24.7717 113.224 24.9763 112.869 25.336C112.515 25.6956 112.318 26.181 112.32 26.6859C112.323 27.1909 112.525 27.6743 112.882 28.0305C113.24 28.3867 113.724 28.5867 114.228 28.5867C114.733 28.5867 115.217 28.3867 115.574 28.0305C115.932 27.6743 116.134 27.1909 116.137 26.6859C116.139 26.181 115.942 25.6956 115.587 25.336C115.233 24.9763 114.751 24.7717 114.247 24.7668H114.21ZM114.21 28.368C113.879 28.3736 113.554 28.2807 113.276 28.1013C112.998 27.9219 112.779 27.6639 112.647 27.3601C112.516 27.0562 112.477 26.72 112.536 26.3941C112.595 26.0682 112.75 25.7672 112.98 25.5291C113.21 25.291 113.505 25.1266 113.829 25.0565C114.152 24.9865 114.489 25.0141 114.797 25.1357C115.105 25.2574 115.369 25.4676 115.558 25.74C115.746 26.0123 115.85 26.3344 115.855 26.6656C115.855 26.6751 115.855 26.6842 115.855 26.6937C115.864 27.1282 115.701 27.5485 115.401 27.8624C115.1 28.1762 114.688 28.3578 114.254 28.3672H114.211" fill="#8CA397"/>
</g>
<defs>
<clipPath id="clip0_455_44191">
<rect width="115.534" height="28.2416" fill="white" transform="translate(0.603516 0.379395)"/>
</clipPath>
</defs>
</svg>
