<svg width="220" height="31" viewBox="0 0 220 31" fill="none" xmlns="http://www.w3.org/2000/svg">
<path d="M12.7038 6.43711C10.2196 7.78432 8.09884 10.295 7.49292 12.622C7.12937 13.908 7.00818 15.1327 7.18996 15.3164C7.37174 15.5001 9.25009 14.6428 11.4314 13.4181C13.6733 12.1934 15.4305 11.2748 15.4305 11.4585C15.4305 11.6422 13.6733 12.9282 11.492 14.3366C9.31068 15.6838 7.55351 17.0311 7.55351 17.3372C7.55351 17.5822 9.31068 16.8473 11.492 15.6838C13.6733 14.5204 15.4305 13.7243 15.4305 13.908C15.4305 14.0305 13.7945 15.194 11.7344 16.4187C6.34167 19.7255 7.85647 19.7867 14.0369 16.4799C19.8537 13.3569 19.3084 14.0917 12.8856 18.1333C10.6437 19.5418 8.76535 20.889 8.76535 21.1951C8.76535 21.4401 10.8255 20.5215 13.3098 19.1131C15.794 17.7659 17.8542 16.7249 17.8542 16.9086C17.8542 17.0923 16.0364 18.3783 13.8551 19.7867C11.6738 21.1951 9.97719 22.4811 10.159 22.6036C10.3407 22.7873 12.5221 21.8075 15.0669 20.3991C17.6118 18.9906 19.6719 17.9496 19.6719 18.1333C19.6719 18.317 17.8542 19.603 15.6123 21.0114C11.795 23.3997 11.6132 23.6446 12.7038 24.4407C14.5216 25.8491 19.7325 25.543 22.1562 23.8896C25.1252 21.93 27.1247 17.7659 26.7006 14.3366C26.2765 11.2748 24.0951 7.96803 21.4897 6.62082C19.4296 5.5798 14.461 5.45732 12.7038 6.43711Z" fill="#8CA397"/>
<path d="M103.289 14.8877V24.0732H109.045C112.499 24.0732 114.802 23.8283 114.802 23.4609C114.802 23.0935 112.681 22.8485 109.651 22.8485H104.501V14.2754C104.501 8.94779 104.259 5.70224 103.895 5.70224C103.531 5.70224 103.289 9.19273 103.289 14.8877Z" fill="#8CA397"/>
<path d="M116.317 6.31461C116.135 6.62079 116.014 10.7849 116.074 15.5001C116.135 22.4199 116.317 24.0732 116.983 24.0732C117.65 24.0732 117.832 22.3586 117.832 14.8877C117.832 6.55956 117.468 4.41627 116.317 6.31461Z" fill="#8CA397"/>
<path d="M125.768 6.80448C122.739 8.3354 121.284 10.6624 121.042 14.3978C120.739 18.1333 122.011 21.1339 124.617 23.0934C126.98 24.8081 131.767 24.7468 134.19 22.971C136.008 21.6238 136.008 21.6238 136.008 22.8485C136.008 23.5221 136.311 24.0732 136.614 24.0732C136.978 24.0732 137.22 22.1137 137.22 19.4805V14.8265L133.463 15.0102C131.161 15.1327 129.646 15.5001 129.464 15.9287C129.282 16.5411 130.191 16.7248 132.676 16.7248H136.129L135.766 18.3782C135.099 21.2563 132.736 22.8485 129.282 22.8485C126.919 22.8485 125.95 22.5423 124.799 21.3788C120.678 17.2147 122.193 9.07024 127.404 7.47809C130.313 6.62077 133.827 7.90674 134.918 10.2337C135.705 12.0096 137.402 12.4995 136.796 10.7236C135.887 8.02922 132.433 5.70222 129.525 5.70222C128.616 5.70222 126.919 6.19212 125.768 6.80448Z" fill="#8CA397"/>
<path d="M141.219 6.1309C141.037 6.31461 140.855 10.4787 140.855 15.3164C140.855 22.6648 140.977 24.0732 141.764 24.0732C142.491 24.0732 142.673 23.2159 142.673 19.7867V15.5001H148.127H153.58V19.7867C153.58 22.2361 153.822 24.0732 154.186 24.0732C154.549 24.0732 154.792 20.5828 154.792 14.8877C154.792 9.43768 154.549 5.70224 154.186 5.70224C153.883 5.70224 153.58 7.53934 153.459 9.8051L153.277 13.9692L148.005 14.1529L142.673 14.3366V10.3562C142.673 6.68203 142.188 5.21235 141.219 6.1309Z" fill="#8CA397"/>
<path d="M156.428 6.06966C155.58 6.98821 156.852 7.53934 159.7 7.53934H162.669V15.8063C162.669 20.8889 162.911 24.0732 163.275 24.0732C163.638 24.0732 163.881 20.9502 163.881 15.8675V7.60058L166.91 7.41687C168.607 7.29439 170.001 6.92697 170.122 6.62079C170.243 5.94719 157.094 5.39606 156.428 6.06966Z" fill="#8CA397"/>
<path d="M172.364 14.8877C172.364 20.5828 172.607 24.0732 172.97 24.0732C173.334 24.0732 173.576 20.5828 173.576 14.8877C173.576 9.19273 173.334 5.70224 172.97 5.70224C172.607 5.70224 172.364 9.19273 172.364 14.8877Z" fill="#8CA397"/>
<path d="M177.635 6.1309C177.393 6.31461 177.211 10.4787 177.211 15.3164C177.211 22.6648 177.332 24.0732 178.12 24.0732C178.908 24.0732 179.029 22.7873 179.029 16.2962V8.51913L184.3 16.2962C187.148 20.5828 189.875 24.0732 190.359 24.0732C190.965 24.0732 191.147 22.1137 191.147 14.8877C191.147 3.37525 190.056 2.39546 189.814 13.7242L189.632 21.7462L184.24 13.7242C181.271 9.31521 178.605 5.70224 178.423 5.70224C178.18 5.70224 177.817 5.88595 177.635 6.1309Z" fill="#8CA397"/>
<path d="M199.206 6.68214C196.297 8.15182 194.601 11.2749 194.601 15.1328C194.601 20.3992 196.964 23.5222 201.569 24.3795C203.75 24.8082 207.931 23.461 208.84 22.0525C209.143 21.5626 209.324 21.8076 209.324 22.6649C209.324 23.5222 209.688 24.0734 210.233 24.0734C211.021 24.0734 211.142 23.2773 211.021 19.6031L210.839 15.194L207.083 15.0103C203.932 14.8879 203.265 15.0103 203.265 15.8064C203.265 16.48 203.992 16.725 206.295 16.725C208.961 16.725 209.324 16.9087 209.324 18.0109C209.324 18.6845 208.537 20.093 207.567 21.0728C205.083 23.5835 201.084 23.5835 198.357 21.134C196.721 19.6643 196.358 18.8682 196.176 16.0513C195.994 13.4794 196.176 12.3159 197.206 10.7238C198.66 8.33553 201.993 6.74337 204.356 7.2945C206.234 7.7844 208.719 9.86644 208.719 11.0299C208.719 11.4586 209.143 11.826 209.627 11.826C210.779 11.826 210.779 11.5811 209.567 9.31531C207.931 6.00854 203.023 4.7838 199.206 6.68214Z" fill="#8CA397"/>
<path d="M28.7607 15.5V24.6855H31.1238H33.5475L33.7293 21.44L33.9111 18.2557L36.0318 21.44C38.0313 24.5018 38.2737 24.6855 40.758 24.6855C42.1516 24.6855 43.3028 24.5631 43.3028 24.3794C43.3028 24.1957 42.2122 22.5423 40.8792 20.7052L38.4555 17.3984L39.9097 16.4186C42.091 14.9489 42.8787 12.1933 41.8486 9.68256C40.6368 6.86568 39.3038 6.31455 33.6687 6.31455H28.7607V15.5ZM37.183 11.091C37.9707 12.6219 36.8801 14.2753 35.1229 14.2753C33.7899 14.2753 33.6081 13.9691 33.6081 12.132C33.6081 10.2337 33.7899 9.98875 35.1229 9.98875C35.9106 9.98875 36.8801 10.4786 37.183 11.091Z" fill="#8CA397"/>
<path d="M45.1201 15.5V24.6855H47.5438H49.9675V15.5V6.31455H47.5438H45.1201V15.5Z" fill="#8CA397"/>
<path d="M52.3916 15.5V24.6855H57.5419H62.6923V22.5423C62.6923 20.399 62.6923 20.399 59.9656 20.399C57.4813 20.399 57.239 20.2765 57.239 18.8681C57.239 17.4596 57.4813 17.3371 59.6627 17.3371C61.9651 17.3371 62.0863 17.2147 62.0863 15.5C62.0863 13.7854 61.9651 13.6629 59.6627 13.6629C57.3602 13.6629 57.239 13.5405 57.239 11.8258C57.239 10.05 57.3602 9.98875 59.9656 9.98875C62.5711 9.98875 62.6923 9.92751 62.6923 8.15165V6.31455H57.5419H52.3916V15.5Z" fill="#8CA397"/>
<path d="M65.1162 15.5V24.6855H67.5399H69.903L70.0848 19.0518L70.2665 13.4792L74.508 19.0518C78.6888 24.6243 78.7494 24.6855 81.2943 24.6855H83.8998V15.5V6.31455H81.4761H79.113L78.9312 11.9483L78.7494 17.5209L74.508 11.9483C70.3271 6.37578 70.2665 6.31455 67.7217 6.31455H65.1162V15.5Z" fill="#8CA397"/>
<path d="M86.3232 8.15165C86.3232 9.80504 86.505 9.98875 88.141 9.98875H89.9588V17.3371V24.6855H92.3824H94.8061V17.3371V9.98875H96.9269C98.8658 9.98875 99.0476 9.86627 99.0476 8.15165V6.31455H92.6854H86.3232V8.15165Z" fill="#8CA397"/>
</svg>
