<svg width="167" height="21" viewBox="0 0 167 21" fill="none" xmlns="http://www.w3.org/2000/svg">
<path d="M5.14227 1.06833C3.56648 1.62694 2.54984 2.33788 1.68569 3.45509C0.236982 5.35942 0.0844856 6.40046 0.0844856 13.7131C0.0844856 20.9495 0.00823759 20.6195 1.73653 19.9085C2.804 19.4515 3.13441 18.8421 3.13441 17.344C3.13441 15.7698 3.49023 15.135 4.25271 15.3381C5.24394 15.5666 9.46299 14.9573 10.81 14.3733C13.3516 13.2814 15.0545 10.3107 14.7495 7.44149C14.4699 4.72465 12.3096 1.95702 9.81882 1.11911C8.39552 0.636683 6.38766 0.611292 5.14227 1.06833ZM9.46299 4.24222C9.69174 4.36917 10.2001 4.82621 10.6067 5.25786C11.1913 5.86725 11.3692 6.32429 11.4709 7.44149C11.5979 9.1173 11.2421 10.1076 10.0984 11.0978C9.03092 12.0373 6.94681 12.4943 4.88811 12.2658C3.56648 12.1135 3.36315 12.0119 3.23607 11.4533C2.98191 10.4376 3.2869 6.95906 3.71898 6.14655C4.25271 5.10551 5.47268 4.0137 6.33682 3.78518C7.07389 3.58205 8.6751 3.83596 9.46299 4.24222Z" fill="#8CA397"/>
<path d="M96.3603 0.941303C93.7679 1.77921 92.4208 3.35346 92.065 5.96874C91.7854 8.20315 91.76 19.9338 92.065 20.1116C92.37 20.3147 93.2596 19.2737 93.8441 17.9787C94.327 16.9377 94.3779 16.3283 94.3779 11.1485V5.46092L95.4962 4.3691C96.462 3.37885 96.7416 3.25189 97.7074 3.25189C98.3682 3.25189 99.1561 3.45502 99.639 3.75971C101.113 4.6484 101.24 5.207 101.24 10.6915C101.24 15.8713 101.316 16.2013 102.409 16.2013C103.68 16.2013 103.782 15.7697 103.782 10.6915C103.782 6.83203 103.858 5.84178 104.214 5.10544C105.332 2.74407 108.585 2.61712 110.187 4.82614C110.746 5.63865 110.771 5.89256 110.898 11.7579L111.025 17.8518L111.737 19.0705C112.144 19.7561 112.601 20.2385 112.754 20.1877C113.211 20.0354 113.186 5.74022 112.728 4.49605C112.093 2.6679 109.882 1.06826 107.645 0.788956C106.323 0.63661 105.078 1.04287 103.451 2.16007L102.486 2.82024L101.799 2.28703C100.147 0.966694 97.9615 0.433481 96.3603 0.941303Z" fill="#8CA397"/>
<path d="M39.3016 1.37296C38.9204 1.65227 37.8021 4.1152 35.6671 9.47272C33.9897 13.6876 32.6172 17.3693 32.6172 17.6486C32.6172 18.5119 33.583 19.5022 34.3963 19.5022C35.2605 19.5022 35.8959 18.7659 36.5567 17.0393C37.3446 14.9572 37.37 14.9318 40.8774 14.9318C42.9615 14.9318 44.0798 15.0334 44.3594 15.2365C44.5881 15.4142 45.0964 16.3283 45.4777 17.2932C45.8335 18.2326 46.3672 19.1213 46.6214 19.2483C47.9685 19.9846 49.5697 18.8674 49.2901 17.344C49.2138 16.9123 47.816 13.3322 46.2148 9.34576C44.2069 4.3945 43.0632 1.93157 42.6311 1.52531C41.8686 0.865143 40.1657 0.788969 39.3016 1.37296ZM42.2244 8.58403C42.8344 10.2598 43.2411 11.7579 43.1648 11.8849C42.9615 12.1896 38.7933 12.215 38.6154 11.9357C38.5391 11.8087 38.8695 10.6407 39.327 9.32037C40.5978 5.8164 40.7249 5.5371 40.9282 5.5371C41.0553 5.5371 41.6145 6.90822 42.2244 8.58403Z" fill="#8CA397"/>
<path d="M56.2542 1.3731C54.6784 1.95709 53.0772 3.09969 52.3147 4.2169C50.7135 6.52749 50.2052 10.6408 51.1456 13.637C52.4926 17.9789 56.8388 20.4926 61.0832 19.4008C64.3365 18.5629 66.3444 16.6585 66.5985 14.1194C66.7256 12.8499 66.6748 12.6721 66.141 12.2913C64.9465 11.4534 64.0823 11.885 63.2944 13.6624C62.4557 15.5667 61.1087 16.4554 59.0754 16.4554C56.305 16.4554 54.7038 14.5511 54.5259 10.9709C54.2972 6.62905 56.0763 3.98838 59.2787 3.9376C60.9053 3.9122 61.922 4.54698 63.1165 6.27358C63.6757 7.11148 64.3365 7.84782 64.6161 7.94939C65.3785 8.17791 66.3952 7.64469 66.5731 6.90835C67.0052 5.23254 65.4802 2.92195 63.1928 1.83014C61.3628 0.941448 58.0587 0.712929 56.2542 1.3731Z" fill="#8CA397"/>
<path d="M70.3852 1.52531C70.0293 2.00774 69.9785 3.2519 69.9785 10.0567C69.9785 17.928 70.0548 18.7912 70.8427 19.2991C71.351 19.6545 72.4693 19.5022 73.0539 19.0198C73.6384 18.5627 73.6638 18.3342 73.7909 15.008L73.918 11.504H77.6033H81.2886L81.4157 14.9572C81.5174 17.9026 81.619 18.5119 82.0257 18.969C82.6611 19.6799 83.9827 19.6799 84.6181 18.969C85.0756 18.4612 85.101 17.8772 85.1773 10.3868C85.2535 2.51556 85.2281 2.31243 84.7198 1.65227C84.1098 0.865143 82.8644 0.712795 82.0257 1.32218C81.5936 1.65227 81.5428 2.05852 81.4666 4.6992C81.4157 6.34962 81.2632 7.84769 81.1107 8.00004C80.8057 8.35551 74.6551 8.48247 74.1467 8.12699C73.9688 8.02543 73.8163 6.78126 73.7401 4.9785C73.6638 2.54095 73.5368 1.90618 73.1555 1.47453C72.4947 0.738186 70.8935 0.763578 70.3852 1.52531Z" fill="#8CA397"/>
<path d="M123.276 1.52528C122.615 2.18545 117.1 15.8205 116.846 17.4201C116.719 18.258 116.795 18.5373 117.227 18.969C117.888 19.6291 119.057 19.6545 119.641 19.0451C119.87 18.7658 120.328 17.8517 120.683 16.9631C121.039 16.0744 121.471 15.2619 121.649 15.1349C122.183 14.8048 128.029 14.881 128.512 15.2365C128.74 15.4142 129.172 16.2267 129.477 17.0646C130.214 19.0705 130.774 19.6037 131.943 19.4006C133.112 19.2229 133.391 18.9182 133.366 17.7756C133.315 16.3791 127.749 2.54093 126.885 1.65224C125.97 0.738159 124.14 0.661985 123.276 1.52528ZM126.402 8.71096C126.961 10.2344 127.368 11.6309 127.317 11.8087C127.165 12.1895 122.971 12.2911 122.742 11.9102C122.615 11.7071 124.369 6.40037 124.775 5.7402C125.03 5.33394 125.309 5.81638 126.402 8.71096Z" fill="#8CA397"/>
<path d="M17.8502 1.70305L17.2402 2.18548V10.2345V18.2834L17.8502 18.7659C18.384 19.1975 18.9177 19.2483 24.2042 19.2483C30.5836 19.2483 31.092 19.1467 31.092 17.7502C31.092 16.4553 30.6599 16.3283 25.6529 16.2014L21.0526 16.0744V13.7892V11.504L25.1446 11.3771C29.5924 11.2501 30.0753 11.0978 30.0753 9.85359C30.0753 8.60943 29.5924 8.45708 25.1446 8.33012L21.0526 8.20317L20.9764 6.32423C20.9256 4.9785 21.0018 4.36911 21.2305 4.24216C21.4085 4.1152 23.4672 4.01364 25.8054 4.01364C30.3803 4.01364 30.8378 3.88668 30.8378 2.61713C30.8378 1.34758 30.2024 1.22062 24.0771 1.22062C18.9177 1.22062 18.384 1.2714 17.8502 1.70305Z" fill="#8CA397"/>
<path d="M136.568 1.72856C136.059 2.23638 136.034 2.41412 136.11 10.5139C136.187 18.3597 136.212 18.7914 136.669 19.1468C137.381 19.6547 138.423 19.5785 139.135 19.0199C139.719 18.5628 139.745 18.3343 139.821 15.2112C139.923 11.5295 140.05 11.2248 141.448 11.4787C143.049 11.7834 143.761 12.4944 145.819 15.7952C146.912 17.5472 148.005 19.1214 148.259 19.2484C149.454 19.8832 151.055 19.1976 151.055 18.055C151.055 17.1156 149.174 13.6624 148.005 12.5198C147.471 11.9612 147.014 11.3772 146.988 11.2248C146.988 11.0725 147.446 10.7424 148.005 10.4885C151.512 8.91423 151.817 4.19149 148.564 1.95708C147.7 1.37308 147.471 1.34769 142.388 1.27152C137.305 1.19534 137.076 1.22074 136.568 1.72856ZM145.413 4.31845C146.48 4.64853 147.192 5.96887 146.836 6.98451C146.378 8.30485 145.438 8.68571 142.541 8.78728L139.923 8.88884L139.821 6.90834C139.77 5.79113 139.821 4.69931 139.923 4.47079C140.228 3.81063 143.456 3.70906 145.413 4.31845Z" fill="#8CA397"/>
<path d="M151.463 1.77922C150.955 2.49017 150.955 2.99799 151.412 3.65816C151.717 4.06442 152.175 4.16598 154.284 4.26755L156.775 4.3945L156.902 11.4532L157.029 18.5373L157.665 19.0452C158.376 19.6292 159.622 19.5022 160.155 18.8166C160.384 18.5119 160.46 16.633 160.46 11.631C160.46 6.70509 160.537 4.80076 160.765 4.57224C160.943 4.3945 161.884 4.26755 163.205 4.26755C165.849 4.26755 166.306 4.03903 166.306 2.79486C166.306 2.26165 166.179 1.70305 166.001 1.52531C165.772 1.29679 163.815 1.22062 158.783 1.22062C151.895 1.22062 151.844 1.22062 151.463 1.77922Z" fill="#8CA397"/>
<path d="M97.0726 5.91803C96.7677 6.22272 96.6914 7.1368 96.6914 10.8185C96.6914 13.2814 96.7677 15.4397 96.8693 15.592C97.1743 16.0491 97.9368 16.2014 98.4705 15.9475C98.928 15.6936 98.9534 15.3635 98.9534 10.9962C98.9534 7.08602 98.8772 6.2735 98.5468 5.94342C98.0639 5.4356 97.581 5.4356 97.0726 5.91803Z" fill="#8CA397"/>
<path d="M106.477 5.94354C106.147 6.27363 106.07 7.11153 106.07 11.0218V15.6937L106.706 15.9476C107.316 16.1761 108.104 16.0492 108.104 15.7191C108.129 15.6429 108.18 13.4847 108.256 10.971C108.358 6.9338 108.332 6.32441 107.977 5.94354C107.443 5.43572 106.985 5.43572 106.477 5.94354Z" fill="#8CA397"/>
</svg>
