<svg width="90" height="43" viewBox="0 0 90 43" fill="none" xmlns="http://www.w3.org/2000/svg">
<path fill-rule="evenodd" clip-rule="evenodd" d="M79.076 21.9094C79.076 17.0354 76.7291 13.1895 72.2436 13.1895C67.7391 13.1895 65.0137 17.0354 65.0137 21.8714C65.0137 27.6022 68.2312 30.4961 72.8492 30.4961C75.1015 30.4961 76.8048 29.9821 78.0918 29.2586V25.4507C76.8048 26.0981 75.3286 26.4979 73.4549 26.4979C71.619 26.4979 69.9913 25.8506 69.7831 23.6039H79.0382C79.0382 23.3564 79.076 22.3664 79.076 21.9094ZM69.7264 20.1007C69.7264 17.9493 71.0323 17.0544 72.2246 17.0544C73.3792 17.0544 74.6094 17.9493 74.6094 20.1007H69.7264Z" fill="#8CA397"/>
<path fill-rule="evenodd" clip-rule="evenodd" d="M57.7083 13.1895C55.8535 13.1895 54.6612 14.0653 53.9987 14.6745L53.7527 13.4941H49.5889V35.6938L54.3205 34.6848L54.3394 29.2967C55.0208 29.7917 56.0239 30.4961 57.6894 30.4961C61.0772 30.4961 64.1622 27.7545 64.1622 21.719C64.1433 16.1977 61.0204 13.1895 57.7083 13.1895ZM56.5727 26.3075C55.4561 26.3075 54.7936 25.9077 54.3394 25.4127L54.3205 18.3491C54.8126 17.797 55.4939 17.4162 56.5727 17.4162C58.295 17.4162 59.4874 19.3582 59.4874 21.8523C59.4874 24.4036 58.314 26.3075 56.5727 26.3075Z" fill="#8CA397"/>
<path fill-rule="evenodd" clip-rule="evenodd" d="M43.0781 12.0662L47.8287 11.0381V7.1731L43.0781 8.18218V12.0662Z" fill="#8CA397"/>
<path d="M47.8287 13.5132H43.0781V30.1725H47.8287V13.5132Z" fill="#8CA397"/>
<path fill-rule="evenodd" clip-rule="evenodd" d="M37.9866 14.9221L37.6838 13.5132H33.5957V30.1726H38.3273V18.8823C39.444 17.4163 41.3366 17.6828 41.9233 17.8922V13.5132C41.3177 13.2847 39.1033 12.8659 37.9866 14.9221Z" fill="#8CA397"/>
<path fill-rule="evenodd" clip-rule="evenodd" d="M28.5237 9.38159L23.9056 10.3716L23.8867 25.6221C23.8867 28.4399 25.9876 30.5152 28.7887 30.5152C30.3406 30.5152 31.4762 30.2296 32.1008 29.8869V26.0219C31.4952 26.2694 28.5048 27.1452 28.5048 24.3274V17.5685H32.1008V13.5131H28.5048L28.5237 9.38159Z" fill="#8CA397"/>
<path fill-rule="evenodd" clip-rule="evenodd" d="M15.7288 18.3491C15.7288 17.6066 16.3345 17.321 17.3376 17.321C18.776 17.321 20.5929 17.7589 22.0313 18.5395V14.0653C20.4604 13.437 18.9085 13.1895 17.3376 13.1895C13.4955 13.1895 10.9404 15.2076 10.9404 18.5776C10.9404 23.8324 18.1325 22.9947 18.1325 25.2603C18.1325 26.1361 17.3754 26.4217 16.3155 26.4217C14.7446 26.4217 12.7384 25.7744 11.1486 24.8986V29.4299C12.9088 30.1915 14.6879 30.5152 16.3155 30.5152C20.2522 30.5152 22.9587 28.5541 22.9587 25.1461C22.9398 19.4724 15.7288 20.4815 15.7288 18.3491Z" fill="#8CA397"/>
</svg>
