<svg width="68" height="68" viewBox="0 0 68 68" fill="none" xmlns="http://www.w3.org/2000/svg">
<g filter="url(#filter0_b_10_1577)">
<rect width="67.5" height="67.5" rx="9.375" fill="#FFCB05"/>
<path d="M7.90023 31.4C7.50857 34.9685 7.13867 38.2106 7.07339 38.5805L6.9646 39.2985L9.37984 39.2985L11.7951 39.2985L11.7951 38.5587C11.7951 38.167 11.8604 37.5143 11.9256 37.1444C12.0562 36.4698 12.0562 36.4698 11.1641 36.4698C10.446 36.4698 10.272 36.3828 10.2937 36.0782C10.2937 35.8824 10.5548 33.293 10.903 30.3121L11.4905 24.9376L10.0544 24.9376L8.61828 24.9376L7.90023 31.4Z" fill="white"/>
<path d="M51.5273 26.5041C51.462 26.8958 51.3532 27.5921 51.288 28.049L51.1574 28.8758L50.5917 28.4189C49.8301 27.8314 49.1338 27.8749 48.3505 28.5712C47.5454 29.311 47.4366 29.768 46.9144 34.5767C46.5445 38.1887 46.5445 38.2322 46.9797 38.8197C47.5454 39.603 48.6334 39.7118 49.482 39.0808C49.9824 38.7109 50.0912 38.6891 50.0912 38.972C50.0912 39.2331 50.3741 39.2984 51.462 39.2984L52.8328 39.2984L53.5291 32.923C53.9208 29.4416 54.2254 26.3953 54.2254 26.1777C54.2254 25.8731 54.0078 25.8078 52.9199 25.8078C51.6361 25.8078 51.6361 25.8078 51.5273 26.5041ZM50.657 33.7934C50.4611 35.6646 50.2435 37.2748 50.1783 37.3836C49.9824 37.71 49.4385 37.5577 49.4385 37.166C49.4385 36.9702 49.5908 35.3818 49.7866 33.6411C50.1565 30.486 50.3741 29.7027 50.8093 30.1379C50.9616 30.2902 50.9181 31.4652 50.657 33.7934Z" fill="white"/>
<path d="M15.1679 28.2884C13.7971 28.8977 13.4055 29.7245 12.9703 32.9883C12.3175 37.9494 12.6874 39.1026 15.1244 39.429C17.0175 39.6901 18.5623 38.4281 18.9758 36.2522C19.0846 35.6212 19.1933 35.0119 19.1933 34.9249C19.1933 34.8161 18.6059 34.7291 17.8878 34.7291L16.604 34.7291L16.4735 35.5341C16.2776 36.9049 16.0383 37.4489 15.7119 37.4489C15.4508 37.4489 15.4073 37.1661 15.4508 36.1434C15.5596 33.7717 15.4726 33.8587 17.4526 33.8587C18.3883 33.8587 19.2151 33.7717 19.3021 33.6629C19.5197 33.2712 19.4545 29.768 19.1933 29.2893C18.5841 28.1361 16.604 27.6574 15.1679 28.2884ZM16.7999 31.03C16.7999 31.9657 16.7346 32.118 16.3647 32.118C16.0383 32.118 15.9295 31.9657 15.9295 31.5087C15.9295 30.5949 16.1689 29.9421 16.4952 29.9421C16.7128 29.9421 16.7999 30.2467 16.7999 31.03Z" fill="white"/>
<path d="M22.2175 28.419C20.9773 29.0718 20.5421 30.2032 20.1287 34.0328C19.7805 37.1226 19.7805 37.3619 20.1287 38.1017C20.9337 39.7989 23.5231 39.9947 25.1332 38.4716C25.9383 37.7101 26.2864 36.448 26.6128 33.0754C26.8522 30.5079 26.8522 30.2032 26.504 29.4634C25.8295 28.0491 23.8277 27.5704 22.2175 28.419ZM24.0453 30.1162C24.1976 30.312 23.436 36.992 23.2402 37.3184C22.9138 37.8189 22.6745 37.5142 22.6745 36.6221C22.6745 35.4471 23.2619 30.4208 23.436 30.1597C23.5883 29.8986 23.9147 29.8768 24.0453 30.1162Z" fill="white"/>
<path d="M32.0308 28.1361C31.8567 28.2013 31.4868 28.4407 31.2257 28.68L30.747 29.1152L30.8776 28.6583C30.9864 28.2231 30.9211 28.2013 29.572 28.2013L28.1359 28.2013L28.0054 29.1152C27.679 31.5304 26.5911 41.3872 26.5911 41.9312C26.5911 42.5622 26.6128 42.5622 27.8748 42.5622C29.3544 42.5622 29.2892 42.6493 29.5503 40.0164L29.7026 38.428L30.3336 38.972C31.1169 39.6248 31.7914 39.6683 32.5313 39.059C33.2493 38.5151 33.4451 37.7535 33.8803 34.185C34.3372 30.2249 34.3155 28.9629 33.7715 28.4189C33.3581 28.0055 32.7053 27.8967 32.0308 28.1361ZM31.378 30.8559C31.378 32.4443 30.747 37.1878 30.5077 37.4271C29.9419 37.9928 29.8767 37.1225 30.2683 33.8369C30.4859 31.9656 30.7253 30.3337 30.8123 30.2032C31.1387 29.6809 31.378 29.9638 31.378 30.8559Z" fill="white"/>
<path d="M36.8181 28.4843C35.7519 29.05 35.1862 29.9639 34.9686 31.5088L34.838 32.5532L36.1436 32.5532L37.4491 32.5532L37.5797 31.5088C37.7755 30.1162 37.8625 29.8986 38.1889 29.9857C38.5371 30.1162 38.6459 31.5523 38.3412 32.118C38.2107 32.3574 37.4926 32.8361 36.7311 33.1842C34.9033 34.0111 34.5769 34.5115 34.4681 36.7962C34.3811 38.4064 34.4246 38.6457 34.838 39.0591C35.4255 39.6466 36.3829 39.6466 37.1227 39.0591C37.5797 38.6892 37.6885 38.6675 37.6885 38.9503C37.6885 39.2332 37.9496 39.2985 39.081 39.2985L40.4519 39.2985L40.6042 37.8189C40.6694 37.0138 40.887 34.9685 41.0611 33.2495C41.344 30.5296 41.344 30.0509 41.0611 29.3764C40.4954 28.0056 38.5153 27.5922 36.8181 28.4843ZM38.0149 35.7518C37.8408 37.4272 37.7973 37.5578 37.3403 37.5578C36.9269 37.5578 36.9269 36.0564 37.3403 35.0555C37.8843 33.7717 38.1889 34.0981 38.0149 35.7518Z" fill="white"/>
<path d="M46.2614 28.3973C45.8697 28.6366 45.5216 28.9413 45.4563 29.1153C45.391 29.2676 45.3258 29.1371 45.3258 28.7889C45.304 28.2232 45.2822 28.2015 43.9985 28.2015C42.4536 28.2015 42.6494 27.6575 42.0402 33.4236C41.8008 35.7518 41.5397 38.0365 41.4744 38.4717L41.3439 39.2985L42.7582 39.2985L44.1508 39.2985L44.5207 36.0782C44.8471 33.1842 44.9341 32.8361 45.4346 32.3792C45.7392 32.1181 46.1091 31.9005 46.2831 31.9005C46.4355 31.9005 46.6313 31.7264 46.6966 31.5088C46.8271 31.0084 47.11 27.9839 47.023 27.9839C46.9794 27.9839 46.6313 28.1797 46.2614 28.3973Z" fill="white"/>
<path d="M56.5101 28.3102C55.3786 28.7236 54.9652 29.2458 54.6606 30.7472C54.2689 32.5967 54.5735 33.38 56.2055 34.642C57.4675 35.5994 57.511 35.6647 57.4457 36.5351C57.4022 37.2749 57.2934 37.4489 56.9453 37.4489C56.5536 37.4489 56.5101 37.3184 56.5536 36.4045L56.6189 35.3818L55.4439 35.3818C54.1384 35.3818 54.0078 35.5124 54.0078 36.9267C54.0078 38.6674 54.9434 39.516 56.88 39.516C58.8818 39.516 59.8827 38.4063 60.0568 36.0129C60.1873 34.2286 59.9698 33.7934 58.3814 32.7708C57.1629 32.0092 56.8365 31.3347 57.2499 30.4426C57.598 29.681 58.055 29.9421 57.9679 30.8777L57.9027 31.6393L59.0341 31.7916C60.3397 31.9657 60.5355 31.8134 60.5355 30.4643C60.5355 29.3329 59.9262 28.506 58.8383 28.2014C57.8156 27.9185 57.5763 27.9403 56.5101 28.3102Z" fill="white"/>
</g>
<defs>
<filter id="filter0_b_10_1577" x="-18.5976" y="-18.5976" width="104.695" height="104.695" filterUnits="userSpaceOnUse" color-interpolation-filters="sRGB">
<feFlood flood-opacity="0" result="BackgroundImageFix"/>
<feGaussianBlur in="BackgroundImageFix" stdDeviation="9.2988"/>
<feComposite in2="SourceAlpha" operator="in" result="effect1_backgroundBlur_10_1577"/>
<feBlend mode="normal" in="SourceGraphic" in2="effect1_backgroundBlur_10_1577" result="shape"/>
</filter>
</defs>
</svg>
