<svg width="68" height="68" viewBox="0 0 68 68" fill="none" xmlns="http://www.w3.org/2000/svg">
<g filter="url(#filter0_b_10_1591)">
<rect x="0.5" width="67.5" height="67.5" rx="9.375" fill="#0047BA"/>
<path d="M20.7461 15.1666L20.7461 20.3405C20.7461 20.4975 20.8209 20.6471 20.9554 20.7368L27.9089 25.4248C28.0659 25.5294 28.2827 25.5294 28.4397 25.4248L32.238 22.8677C32.38 22.7705 32.38 22.5686 32.238 22.4714L21.1125 14.9722C20.9554 14.86 20.7461 14.9722 20.7461 15.1666Z" fill="white"/>
<path d="M20.2488 54.2813L48.2753 54.2733C48.5564 54.2733 48.7813 54.0486 48.7813 53.7596L48.7813 32.7139C48.7813 32.6256 48.7411 32.5533 48.6688 32.5052L40.9997 27.336C40.831 27.2237 40.5981 27.2237 40.4295 27.336L36.35 30.0731C36.1974 30.1775 36.1974 30.3942 36.35 30.4985L43.4088 35.2663C43.4811 35.3145 43.5212 35.3948 43.5212 35.475L43.5212 48.8072C43.5212 49.0881 43.2964 49.3209 43.0073 49.3209L37.394 49.3209C37.1129 49.3209 36.88 49.0962 36.88 48.8072L36.88 37.1686L34.2058 35.3626L31.62 37.1124L31.62 48.7992C31.62 49.0801 31.3951 49.3129 31.106 49.3129L25.4927 49.3129C25.2116 49.3129 24.9787 49.0881 24.9787 48.7992L24.9787 35.4108C24.9787 35.3225 25.0189 35.2503 25.0912 35.2021L48.5403 19.3897C48.6849 19.2934 48.7652 19.1329 48.7652 18.9643L48.7652 13.4741C48.7652 13.2734 48.5403 13.145 48.3717 13.2654L19.8312 32.441C19.7589 32.4891 19.7187 32.5694 19.7187 32.6497L19.7187 53.7676C19.7428 54.0486 19.9677 54.2813 20.2488 54.2813Z" fill="white"/>
</g>
<defs>
<filter id="filter0_b_10_1591" x="-18.0976" y="-18.5976" width="104.695" height="104.695" filterUnits="userSpaceOnUse" color-interpolation-filters="sRGB">
<feFlood flood-opacity="0" result="BackgroundImageFix"/>
<feGaussianBlur in="BackgroundImageFix" stdDeviation="9.2988"/>
<feComposite in2="SourceAlpha" operator="in" result="effect1_backgroundBlur_10_1591"/>
<feBlend mode="normal" in="SourceGraphic" in2="effect1_backgroundBlur_10_1591" result="shape"/>
</filter>
</defs>
</svg>
