<svg width="32" height="32" viewBox="0 0 32 32" fill="none" xmlns="http://www.w3.org/2000/svg">
<g filter="url(#filter0_bd_2081_15275)">
<path d="M17.1111 25.9993H11.8889C11.1218 25.9993 10.5 26.6211 10.5 27.3882V40.6104C10.5 41.3774 11.1218 41.9993 11.8889 41.9993H17.1111C17.8782 41.9993 18.5 41.3774 18.5 40.6104V27.3882C18.5 26.6211 17.8782 25.9993 17.1111 25.9993Z" fill="url(#paint0_linear_2081_15275)"/>
<path d="M29.1111 10H23.8889C23.1218 10 22.5 10.6218 22.5 11.3889V40.6111C22.5 41.3782 23.1218 42 23.8889 42H29.1111C29.8782 42 30.5 41.3782 30.5 40.6111V11.3889C30.5 10.6218 29.8782 10 29.1111 10Z" fill="url(#paint1_linear_2081_15275)"/>
<path d="M41.1111 20.6663H35.8889C35.1218 20.6663 34.5 21.2881 34.5 22.0551V40.6107C34.5 41.3778 35.1218 41.9996 35.8889 41.9996H41.1111C41.8782 41.9996 42.5 41.3778 42.5 40.6107V22.0551C42.5 21.2881 41.8782 20.6663 41.1111 20.6663Z" fill="url(#paint2_linear_2081_15275)"/>
</g>
<defs>
<filter id="filter0_bd_2081_15275" x="0.38061" y="0.723893" width="52.2388" height="52.2388" filterUnits="userSpaceOnUse" color-interpolation-filters="sRGB">
<feFlood flood-opacity="0" result="BackgroundImageFix"/>
<feGaussianBlur in="BackgroundImageFix" stdDeviation="0.210821"/>
<feComposite in2="SourceAlpha" operator="in" result="effect1_backgroundBlur_2081_15275"/>
<feColorMatrix in="SourceAlpha" type="matrix" values="0 0 0 0 0 0 0 0 0 0 0 0 0 0 0 0 0 0 127 0" result="hardAlpha"/>
<feOffset dy="0.843282"/>
<feGaussianBlur stdDeviation="5.05969"/>
<feComposite in2="hardAlpha" operator="out"/>
<feColorMatrix type="matrix" values="0 0 0 0 0.890196 0 0 0 0 0.796078 0 0 0 0 0.498039 0 0 0 0.3 0"/>
<feBlend mode="normal" in2="effect1_backgroundBlur_2081_15275" result="effect2_dropShadow_2081_15275"/>
<feBlend mode="normal" in="SourceGraphic" in2="effect2_dropShadow_2081_15275" result="shape"/>
</filter>
<linearGradient id="paint0_linear_2081_15275" x1="14.5" y1="25.9993" x2="14.5" y2="41.9993" gradientUnits="userSpaceOnUse">
<stop stop-color="#009241"/>
<stop offset="1" stop-color="#04AD4F" stop-opacity="0.84"/>
</linearGradient>
<linearGradient id="paint1_linear_2081_15275" x1="26.5" y1="10" x2="26.5" y2="42" gradientUnits="userSpaceOnUse">
<stop stop-color="#009241"/>
<stop offset="1" stop-color="#04AD4F" stop-opacity="0.84"/>
</linearGradient>
<linearGradient id="paint2_linear_2081_15275" x1="38.5" y1="20.6663" x2="38.5" y2="41.9996" gradientUnits="userSpaceOnUse">
<stop stop-color="#009241"/>
<stop offset="1" stop-color="#04AD4F" stop-opacity="0.84"/>
</linearGradient>
</defs>
</svg>
